<?xml version="1.0" standalone="no"?>
<!DOCTYPE svg PUBLIC "-//W3C//DTD SVG 1.1//EN" "http://www.w3.org/Graphics/SVG/1.1/DTD/svg11.dtd" >
<svg>
<metadata>
Created by FontForge 20090914 at Tue Jul 12 12:29:45 2022
 By www-data
&#194;&#169; Copyright 2006, 2007 Berthold LLC. All Rights Reserved. This font software computer program is the property of Berthold. You may not reproduce, modify, adapt, translate, alter nor create derivative works of the font software. You may not reverse engineer, decompile, decrypt, disassemble, nor seek to discover the source code of the font software.
</metadata>
<defs>
<font id="AkzidenzGroteskPro-Regular" horiz-adv-x="375" >
  <font-face 
    font-family="Akzidenz-Grotesk Pro Regular"
    font-weight="400"
    font-stretch="normal"
    units-per-em="1000"
    panose-1="2 0 5 3 3 0 0 2 0 3"
    ascent="750"
    descent="-250"
    x-height="471"
    cap-height="706"
    bbox="-138 -292 1225 998"
    underline-thickness="50"
    underline-position="-150"
    unicode-range="U+0020-U+FB02"
  />
<missing-glyph horiz-adv-x="500" 
d="M0 0v706h500v-706h-500zM250 401l170 255h-340zM280 353l170 -258v516zM80 50h340l-170 258zM50 611v-516l170 258z" />
    <glyph glyph-name="fi" unicode="fi" horiz-adv-x="479" 
d="M416 614h-77v92h77v-92zM416 0h-77v471h77v-471zM167 471h89.001v-66h-89v-405h-78v405h-78v66h78v41c0 62.667 4 104 12 124c16.667 43.333 54 65 112 65c17.333 0 36.666 -2 57.999 -6v-63c-10 3.33301 -24.667 5 -44 5c-40 0 -60 -25.333 -60 -76v-90z" />
    <glyph glyph-name="fl" unicode="fl" horiz-adv-x="479" 
d="M414 0h-76v706h76v-706zM167 471h89.001v-66h-89v-405h-78v405h-78v66h78v41c0 62.667 4 104 12 124c16.667 43.333 54 65 112 65c17.333 0 36.666 -2 57.999 -6v-63c-10 3.33301 -24.667 5 -44 5c-40 0 -60 -25.333 -60 -76v-90z" />
    <glyph glyph-name=".notdef" horiz-adv-x="500" 
d="M0 0v706h500v-706h-500zM250 401l170 255h-340zM280 353l170 -258v516zM80 50h340l-170 258zM50 611v-516l170 258z" />
    <glyph glyph-name="space" unicode=" " horiz-adv-x="271" 
 />
    <glyph glyph-name="exclam" unicode="!" horiz-adv-x="271" 
d="M115 706h79v-288l-24 -271h-31l-24 282v277zM194 0h-79v90h79v-90z" />
    <glyph glyph-name="quotedbl" unicode="&#x22;" horiz-adv-x="347" 
d="M302 743l-28 -294h-31l-29 294h88zM133 743l-28 -294h-32l-29 294h89z" />
    <glyph glyph-name="numbersign" unicode="#" horiz-adv-x="667" 
d="M625 414h-148l-16 -108h139v-77h-150l-33 -229h-79l33 229h-111l-33 -229h-81l35 229h-139v77h149l16 108h-142v77h152l31 214h80l-31 -214h110l32 214h78l-30 -214h138v-77zM397 414h-111l-16 -108h112z" />
    <glyph glyph-name="dollar" unicode="$" horiz-adv-x="625" 
d="M287 -137l0.00390625 118.999c-64.667 9.33301 -117.334 27.666 -158.001 54.999c-56 38 -92.333 93.667 -109 167l102 11c8.66699 -40 27 -73.667 55 -101s64.667 -45 110 -53v253c-21.333 6 -40.333 12 -57 18s-36 15 -58 27s-40.333 24.833 -55 38.5
s-27.167 31.334 -37.5 53.001s-15.5 45.167 -15.5 70.5c0 32 7.33301 60.667 22 86s33.667 45.333 57 60s47.166 26 71.499 34s48.5 13 72.5 15v110h67v-111c22 -3.33301 43.667 -8.66602 65 -15.999s43.166 -18 65.499 -32s42.333 -33 60 -57s30.167 -51.667 37.5 -83
l-93 -9c-10 32 -26.5 59 -49.5 81s-51.5 35.333 -85.5 40v-236c22.667 -6.66699 42.167 -12.667 58.5 -18s37.333 -14.333 63 -27s46.667 -26.167 63 -40.5s30.666 -33 42.999 -56s18.5 -47.833 18.5 -74.5c0 -58.667 -24 -107.5 -72 -146.5s-103.333 -58.5 -166 -58.5h-8
v-119h-67zM287.004 421.999v220.002c-31.333 -1.33301 -59.5 -11.833 -84.5 -31.5s-37.5 -45.834 -37.5 -78.501c0 -17.333 3.66699 -32.333 11 -45s17.833 -23.167 31.5 -31.5s26.167 -14.833 37.5 -19.5s25.333 -9.33398 42 -14.001zM354.004 295.001v-236.999
c36 0 68.667 10 98 30s44 48 44 84c0 29.333 -11 53.166 -33 71.499s-58.333 35.5 -109 51.5z" />
    <glyph glyph-name="percent" unicode="%" horiz-adv-x="896" 
d="M620 656l-317 -685l-55 26l318 685zM26 452c0 36 4.66699 70.5 14 103.5s27 62.5 53 88.5s58 39 96 39c45.333 0 84 -20.333 116 -61s48 -97.667 48 -171c0 -24 -2.33301 -48 -7 -72s-12.667 -48.167 -24 -72.5s-28.333 -44.166 -51 -59.499s-49.667 -23 -81 -23
c-50.667 0 -90.667 21.167 -120 63.5s-44 97.166 -44 164.499zM288 450c0 36.667 -3.49902 67.8301 -10.499 93.4971s-16.333 43.834 -28 54.501s-22.334 18 -32.001 22s-19.5 6 -29.5 6c-32 0 -56 -15.667 -72 -47s-24 -71.666 -24 -120.999
c0 -14.667 0.666992 -28.667 2 -42s4.66602 -31.833 9.99902 -55.5s15.333 -42.667 30 -57s33.334 -21.5 56.001 -21.5c29.333 0 53 13.333 71 40s27 69.334 27 128.001zM522.001 218.996c0 36 4.66699 70.5 14 103.5s27 62.5 53 88.5s58 39 96 39
c45.333 0 84 -20.333 116 -61s48 -97.667 48 -171c0 -24 -2.33301 -48 -7 -72s-12.667 -48.167 -24 -72.5s-28.333 -44.166 -51 -59.499s-49.667 -23 -81 -23c-50.667 0 -90.667 21.167 -120 63.5s-44 97.166 -44 164.499zM784.001 216.996
c0 36.667 -3.49902 67.8301 -10.499 93.4971s-16.333 43.834 -28 54.501s-22.334 18 -32.001 22s-19.5 6 -29.5 6c-32 0 -56 -15.667 -72 -47s-24 -71.666 -24 -120.999c0 -14.667 0.666992 -28.667 2 -42s4.66602 -31.833 9.99902 -55.5s15.333 -42.667 30 -57
s33.334 -21.5 56.001 -21.5c29.333 0 53 13.333 71 40s27 69.334 27 128.001z" />
    <glyph glyph-name="ampersand" unicode="&#x26;" horiz-adv-x="604" 
d="M467 325h76.9961c-9.33301 -63.333 -34.666 -129 -75.999 -197c24.667 -34.667 57 -52 97 -52c6 0 15.333 1 28 3v-83c-14 -2.66699 -26.667 -4 -38 -4c-55.333 0 -104 24 -146 72c-54 -48.667 -113.333 -73 -178 -73c-19.333 0 -39.5 3.5 -60.5 10.5
s-41.833 17.667 -62.5 32s-37.5 34.666 -50.5 60.999s-19.5 56.5 -19.5 90.5c0 29.333 4.83301 56.166 14.5 80.499s23.834 45.5 42.501 63.5s35.667 32.167 51 42.5s34.333 21.833 57 34.5c-1.33301 2.66699 -3.66602 8.66699 -6.99902 18s-5.66602 15.666 -6.99902 18.999
s-3.33301 9 -6 17s-4.5 14.167 -5.5 18.5s-2.16699 10 -3.5 17s-2.33301 13.833 -3 20.5s-1 13.334 -1 20.001c0 46.667 14.833 85.834 44.5 117.501s67.5 47.5 113.5 47.5c40.667 0 75 -13.333 103 -40s42 -60.334 42 -101.001c0 -58 -32 -109 -96 -153
c-7.33301 -5.33301 -26.333 -16.666 -57 -33.999c20.667 -45.333 54 -104.666 100 -177.999c20 38 35.667 81.333 47 130zM282.996 443c38 16.667 66 36.332 84 58.999s27 45.334 27 68.001c0 19.333 -6.16699 35.833 -18.5 49.5s-28.5 20.5 -48.5 20.5
c-17.333 0 -34.5 -7.16699 -51.5 -21.5s-25.5 -36.166 -25.5 -65.499c0 -28.667 11 -65.334 33 -110.001zM361.996 120.998c-2 2.66699 -25.333 41.001 -70 115.001c-29.333 50 -48 83.667 -56 101c-41.333 -18 -70.5 -40.333 -87.5 -67s-25.5 -51.667 -25.5 -75
c0 -32.667 11.333 -61.834 34 -87.501s52.667 -38.5 90 -38.5c38.667 0 77 17.333 115 52z" />
    <glyph glyph-name="quotesingle" unicode="'" horiz-adv-x="177" 
d="M133 743l-28 -294h-32l-29 294h89z" />
    <glyph glyph-name="parenleft" unicode="(" horiz-adv-x="315" 
d="M319 -117l-31.999 -45.999c-78.667 58.667 -139.5 129.667 -182.5 213s-64.5 173.666 -64.5 270.999c0 94 20.667 183.5 62 268.5s102 154.5 182 208.5l33 -40c-62.667 -54.667 -109 -117 -139 -187s-45 -151 -45 -243c0 -91.333 16.667 -177 50 -257
s78.666 -142.667 135.999 -188z" />
    <glyph glyph-name="parenright" unicode=")" horiz-adv-x="319" 
d="M4 755l33 45.998c79.333 -58 140.166 -129 182.499 -213s63.5 -174.333 63.5 -271c0 -96 -21.5 -186.667 -64.5 -272s-103.167 -153.666 -180.5 -204.999l-33 39c123.333 108.667 185 252.667 185 432c0 92 -16.667 177.833 -50 257.5s-78.666 141.834 -135.999 186.501z
" />
    <glyph glyph-name="asterisk" unicode="*" horiz-adv-x="349" 
d="M323 583l-104 -37l63 -83l-48 -37l-66 85l-59 -85l-50 36l59 85l-100 28l17 57l102 -27v103h62v-105l103 34z" />
    <glyph glyph-name="plus" unicode="+" horiz-adv-x="724" 
d="M631 262h-225v-229h-88v229h-224v78h224v228h88v-228h225v-78z" />
    <glyph glyph-name="comma" unicode="," horiz-adv-x="229" 
d="M63 109l99 -0.000976562v-60c0 -75.333 -13.667 -143.666 -41 -204.999h-47c22 63.333 33 115.333 33 156h-44v109z" />
    <glyph glyph-name="hyphen" unicode="-" horiz-adv-x="370" 
d="M325 262h-280v76h280v-76z" />
    <glyph glyph-name="period" unicode="." horiz-adv-x="229" 
d="M163 0h-99v113h99v-113z" />
    <glyph glyph-name="slash" unicode="/" horiz-adv-x="333" 
d="M321 702l-231 -702h-77l233 702h75z" />
    <glyph glyph-name="zero" unicode="0" horiz-adv-x="583" 
d="M49 334c0 102 21.501 185.169 64.501 249.502s101.833 96.5 176.5 96.5c70.667 0 129.167 -30.667 175.5 -92s69.5 -144 69.5 -248c0 -103.333 -21.333 -186.833 -64 -250.5s-102.667 -95.5 -180 -95.5c-28 0 -55.333 5.66699 -82 17s-52.334 29.166 -77.001 53.499
s-44.667 59.666 -60 105.999s-23 100.833 -23 163.5zM138.001 330.002c0 -78 13.333 -140.5 40 -187.5s65 -70.5 115 -70.5c30.667 0 56.667 9 78 27s37 41.833 47 71.5s17 58 21 85s6 54.5 6 82.5c0 16.667 -0.666992 33.5 -2 50.5s-4.83301 39.167 -10.5 66.5
s-13.5 51 -23.5 71s-25.167 37.5 -45.5 52.5s-43.833 22.5 -70.5 22.5c-103.333 0 -155 -90.333 -155 -271z" />
    <glyph glyph-name="one" unicode="1" horiz-adv-x="583" 
d="M357 0h-94v493h-145v62c76 0 126.333 19.667 151 59c11.333 17.333 18.333 37.333 21 60h67v-674z" />
    <glyph glyph-name="two" unicode="2" horiz-adv-x="583" 
d="M520 0l-440.999 0.000976562v85c64 34 133.667 86.333 209 157c40.667 37.333 72.667 74.166 96 110.499s35 76.5 35 120.5c0 40 -11.167 71.5 -33.5 94.5s-53.5 34.5 -93.5 34.5c-44.667 0 -77 -12.333 -97 -37s-30 -56.667 -30 -96c0 -21.333 4 -48 12 -80h-88
c-8 27.333 -12 54 -12 80c0 68.667 21 121.667 63 159c39.333 34.667 91 52 155 52c57.333 0 105.666 -16.667 144.999 -50c48 -40 72 -94.333 72 -163c0 -96.667 -55.333 -190.667 -166 -282c-48 -38.667 -97.667 -74.667 -149 -108h323v-77z" />
    <glyph glyph-name="three" unicode="3" horiz-adv-x="583" 
d="M40 223h90.0059c3.33301 -48.667 15.666 -85.667 36.999 -111s61.666 -38 120.999 -38c9.33301 0 18.166 0.333008 26.499 1s20.5 3.16699 36.5 7.5s29.5 10.333 40.5 18s21 19.667 30 36s13.5 35.833 13.5 58.5c0 75.333 -49.333 113 -148 113c-24 0 -46 -1 -66 -3v81
c18.667 -1.33301 35.667 -2 51 -2c98 0 147 36 147 108c0 36.667 -14 64.834 -42 84.501s-59.333 29.5 -94 29.5c-48.667 0 -84.667 -18.667 -108 -56c-12.667 -20.667 -20.334 -54.667 -23.001 -102l-89 4c2 38.667 6.33301 68.334 13 89.001
c8 24.667 19.333 46.167 34 64.5s29.5 32.166 44.5 41.499s31.833 16.666 50.5 21.999s33.667 8.5 45 9.5s22.666 1.5 33.999 1.5c69.333 0 124.166 -17.667 164.499 -53s60.5 -80.333 60.5 -135c0 -66 -27.333 -113.667 -82 -143
c28.667 -11.333 52.834 -30.666 72.501 -57.999s29.5 -61.666 29.5 -102.999c0 -50.667 -17.333 -93.667 -52 -129c-42.667 -43.333 -103.334 -65 -182.001 -65c-34 0 -65.667 4.16699 -95 12.5s-56.333 21.166 -81 38.499s-44 41.166 -58 71.499s-21 65.833 -21 106.5z" />
    <glyph glyph-name="four" unicode="4" horiz-adv-x="583" 
d="M532 162h-98v-162h-87v162h-305v81l322 431h70v-436h98v-76zM133 238h214l4 302z" />
    <glyph glyph-name="five" unicode="5" horiz-adv-x="583" 
d="M72 307l21.9971 367h383v-79h-315l-9 -177c41.333 36 91 54 149 54c70 0 124.667 -23.5 164 -70.5s59 -102.167 59 -165.5c0 -66 -21 -122.833 -63 -170.5s-100.333 -71.5 -175 -71.5c-35.333 0 -67.166 5.16699 -95.499 15.5s-51.166 24 -68.499 41
s-30.833 33.167 -40.5 48.5s-17.5 31 -23.5 47c-5.33301 16.667 -9.33301 38 -12 64l89 6c5.33301 -40 19.833 -74.167 43.5 -102.5s58.5 -42.5 104.5 -42.5c14 0 28.167 2.16699 42.5 6.5s30 11.833 47 22.5s31 28 42 52s16.5 53 16.5 87c0 45.333 -12.5 82.5 -37.5 111.5
s-61.167 43.5 -108.5 43.5c-61.333 0 -105.666 -29 -132.999 -87h-81z" />
    <glyph glyph-name="six" unicode="6" horiz-adv-x="583" 
d="M509 506l-87.002 -12.002c-4.66699 32.667 -17.167 59.167 -37.5 79.5s-46.833 30.5 -79.5 30.5c-29.333 0 -54.666 -7.16699 -75.999 -21.5s-37.666 -33.666 -48.999 -57.999s-19.5 -49.833 -24.5 -76.5s-7.5 -55 -7.5 -85c14.667 22 36.5 41.167 65.5 57.5
s62.833 24.5 101.5 24.5c33.333 0 65.5 -7.16699 96.5 -21.5s58 -38.666 81 -72.999s34.5 -75.166 34.5 -122.499c0 -26 -4.16699 -51.833 -12.5 -77.5s-20.833 -50.667 -37.5 -75s-40 -44 -70 -59s-64.667 -22.5 -104 -22.5c-36 0 -70.667 8.16699 -104 24.5
s-61 41.5 -83 75.5c-20 30.667 -34 64 -42 100s-12 81 -12 135c0 48.667 4.33301 93.167 13 133.5s22.167 77.166 40.5 110.499s43.5 59.5 75.5 78.5s69.667 28.5 113 28.5c110.667 0 179 -58 205 -174zM161.998 219.998c0 -42 13.499 -76.832 40.499 -104.499
s61.167 -41.5 102.5 -41.5c40 0 72.333 14.167 97 42.5s37 62.5 37 102.5c0 14 -2.16699 28.667 -6.5 44s-11.166 31 -20.499 47s-23.5 29 -42.5 39s-41.5 15 -67.5 15c-47.333 0 -82.5 -15.333 -105.5 -46s-34.5 -63.334 -34.5 -98.001z" />
    <glyph glyph-name="seven" unicode="7" horiz-adv-x="583" 
d="M96 466l0.000976562 207.999h413v-97c0 -6 -0.333008 -11.667 -1 -17s-1.33398 -9.66602 -2.00098 -12.999s-2.5 -8 -5.5 -14s-5.16699 -10.5 -6.5 -13.5s-5 -9.33301 -11 -19s-10.333 -17.167 -13 -22.5l-35 -61c-92.667 -160.667 -146.334 -299.667 -161.001 -417h-106
c15.333 119.333 83.333 273 204 461l30 47c14.667 23.333 23.834 39.5 27.501 48.5s5.5 21.5 5.5 37.5h-267v-128h-72z" />
    <glyph glyph-name="eight" unicode="8" horiz-adv-x="583" 
d="M438 362c12.667 -8 22.666 -14.835 29.999 -20.502s17 -15 29 -28s21 -28.667 27 -47s9 -39.5 9 -63.5c0 -58 -20.333 -107.333 -61 -148s-100.667 -61 -180 -61c-41.333 0 -78 6.16699 -110 18.5s-57 28.833 -75 49.5s-31.667 42.834 -41 66.501s-14 47.834 -14 72.501
c0 34 8 65.5 24 94.5s38.667 51.167 68 66.5c-50 33.333 -75 79.666 -75 138.999c0 57.333 19.167 101.5 57.5 132.5s93.833 46.5 166.5 46.5c38.667 0 72.5 -4.83301 101.5 -14.5s50.833 -21 65.5 -34s26.334 -28.5 35.001 -46.5s14 -33.167 16 -45.5s3 -25.166 3 -38.499
c0 -62.667 -25.333 -109 -76 -139zM423.999 506.998c0 24.667 -10.833 46.833 -32.5 66.5s-56.167 29.5 -103.5 29.5c-37.333 0 -68.333 -8.16699 -93 -24.5s-37 -41.5 -37 -75.5c0 -27.333 9.5 -51.833 28.5 -73.5s54.167 -32.5 105.5 -32.5c88 0 132 36.667 132 110z
M142.999 201.997c0 -30 8.5 -55 25.5 -75s36.167 -33.5 57.5 -40.5s44 -10.5 68 -10.5c16.667 0 32.834 2 48.501 6s31.167 10.333 46.5 19s27.666 21.667 36.999 39s14 37.666 14 60.999c0 43.333 -14.5 74.333 -43.5 93s-64.833 28 -107.5 28
c-52 0 -89.333 -12.167 -112 -36.5s-34 -52.166 -34 -83.499z" />
    <glyph glyph-name="nine" unicode="9" horiz-adv-x="583" 
d="M73 162l87 16.001c15.333 -72 55.666 -108 120.999 -108c36.667 0 67.334 12 92.001 36c22 21.333 38.5 51 49.5 89s16.5 74.333 16.5 109c-44.667 -57.333 -100.334 -86 -167.001 -86c-65.333 0 -118.333 21.167 -159 63.5s-61 96.5 -61 162.5c0 28 4.16699 55 12.5 81
s21 50.667 38 74s40.833 42.166 71.5 56.499s66 21.5 106 21.5c82 0 143.333 -29.167 184 -87.5s61 -141.166 61 -248.499c0 -114.667 -25 -204.667 -75 -270c-39.333 -51.333 -97.666 -77 -174.999 -77c-56.667 0 -102 16.667 -136 50s-56 72.666 -66 117.999zM430 435.001
c0 45.333 -13.333 84.5 -40 117.5s-63.667 49.5 -111 49.5c-26.667 0 -49.667 -5.5 -69 -16.5s-33.666 -25.5 -42.999 -43.5s-16 -35.5 -20 -52.5s-6 -33.833 -6 -50.5c0 -46 13.667 -81 41 -105s60.666 -36 99.999 -36c48.667 0 85.5 14 110.5 42s37.5 59.667 37.5 95z" />
    <glyph glyph-name="colon" unicode=":" horiz-adv-x="271" 
d="M205 377h-99v112h99v-112zM205 0h-99v113h99v-113z" />
    <glyph glyph-name="semicolon" unicode=";" horiz-adv-x="271" 
d="M206 380h-99v110h99v-110zM107 111h99v-61c0 -80.667 -13 -149 -39 -205h-45c16.667 52 25 103.667 25 155h-40v111z" />
    <glyph glyph-name="less" unicode="&#x3c;" horiz-adv-x="724" 
d="M579 23l-465 234v89l465 235v-88l-384 -190l384 -189v-91z" />
    <glyph glyph-name="equal" unicode="=" horiz-adv-x="724" 
d="M625 350h-526v78h526v-78zM625 163h-526v77h526v-77z" />
    <glyph glyph-name="greater" unicode="&#x3e;" horiz-adv-x="724" 
d="M609 256l-465 -235v89l384 189l-384 189v91l465 -233v-90z" />
    <glyph glyph-name="question" unicode="?" horiz-adv-x="562" 
d="M257 150l-0.000976562 235.996h31c46 0 83.333 10 112 30s43 50.333 43 91c0 40 -14.667 71.667 -44 95s-64.666 35 -105.999 35c-48.667 0 -83.334 -15.167 -104.001 -45.5s-31 -65.166 -31 -104.499v-16h-87v18c0 61.333 20.333 113.833 61 157.5
s95.334 65.5 164.001 65.5c62.667 0 116.667 -20.167 162 -60.5s68 -92.166 68 -155.499c0 -57.333 -18 -103.166 -54 -137.499s-81.333 -53.166 -136 -56.499v-152h-79zM339.999 -0.00390625h-89v97h89v-97z" />
    <glyph glyph-name="at" unicode="@" horiz-adv-x="896" 
d="M580 495l68.0039 0.000976562l-33 -150c-18.667 -84 -28 -141.333 -28 -172c0 -28.667 10.333 -43 31 -43s42.334 13.667 65.001 41c27.333 32 48.5 70.5 63.5 115.5s22.5 89.833 22.5 134.5c0 74 -22 132 -66 174s-103.333 63 -178 63c-73.333 0 -141 -20 -203 -60
s-110.333 -92.333 -145 -157s-52 -133.334 -52 -206.001c0 -94 30.667 -168.167 92 -222.5s139.666 -81.5 234.999 -81.5c122.667 0 234.334 48.667 335.001 146l33 -41c-106.667 -106.667 -229 -160 -367 -160c-60 0 -118 11.667 -174 35
c-68.667 29.333 -120.834 71.666 -156.501 126.999s-53.5 120.666 -53.5 195.999c0 84 20 162.667 60 236s95.5 132 166.5 176s148.833 66 233.5 66c88.667 0 160.5 -25.833 215.5 -77.5s82.5 -121.834 82.5 -210.501c0 -49.333 -7.66699 -98 -23 -146
c-16.667 -51.333 -43.834 -98.833 -81.501 -142.5s-79.834 -65.5 -126.501 -65.5c-26 0 -46.333 7.66699 -61 23s-22 36.333 -22 63c-43.333 -56.667 -91.333 -85 -144 -85c-42.667 0 -75 15.833 -97 47.5s-33 69.834 -33 114.501c0 42.667 8.16699 85.334 24.5 128.001
s41.166 79.334 74.499 110.001s70.666 46 111.999 46c26.667 0 50 -7.5 70 -22.5s35 -35.5 45 -61.5zM540.004 357.001c0 26.667 -7.5 49.5 -22.5 68.5s-35.5 28.5 -61.5 28.5c-40.667 0 -73.834 -23.667 -99.501 -71s-38.5 -95.666 -38.5 -144.999
c0 -28.667 6.66699 -53 20 -73s33.333 -30 60 -30c26 0 49 9 69 27s34.833 40.167 44.5 66.5s16.834 50.666 21.501 72.999s7 40.833 7 55.5z" />
    <glyph glyph-name="A" unicode="A" horiz-adv-x="646" 
d="M634 0h-99l-77 216h-269l-79 -216h-100l269 706h98zM430 295l-103 295l-108 -295h211z" />
    <glyph glyph-name="B" unicode="B" horiz-adv-x="688" 
d="M77 0l0.000976562 705.999h339c54.667 0 102.167 -16.167 142.5 -48.5s60.5 -76.5 60.5 -132.5c0 -36 -9.83301 -68.167 -29.5 -96.5s-45.834 -47.166 -78.501 -56.499c86 -26 129 -85 129 -177c0 -30 -5 -56.833 -15 -80.5s-22.5 -42.5 -37.5 -56.5
s-32.667 -25.5 -53 -34.5s-39.833 -15.167 -58.5 -18.5s-37.667 -5 -57 -5h-342zM166.001 408.999h209c96.667 0 145 37 145 111c0 31.333 -9.66699 56.333 -29 75s-50 28 -92 28h-233v-214zM166.001 82.999h228.999c20.667 0 38.334 1.16699 53.001 3.5s30 7.33301 46 15
s28.167 20 36.5 37s12.5 38.167 12.5 63.5c0 41.333 -13.167 72.833 -39.5 94.5s-61.5 32.5 -105.5 32.5h-232v-246z" />
    <glyph glyph-name="C" unicode="C" horiz-adv-x="764" 
d="M640 268l101.996 -12.001c-6.66699 -31.333 -18 -62 -34 -92s-37.5 -59.167 -64.5 -87.5s-62.167 -51.166 -105.5 -68.499s-91.333 -26 -144 -26c-105.333 0 -189.166 34 -251.499 102s-93.5 157.667 -93.5 269s31.833 201 95.5 269s150.834 102 261.501 102
c82.667 0 151 -18.667 205 -56s93 -90.666 117 -159.999l-95 -19c-14 44.667 -40.167 82.5 -78.5 113.5s-88.166 46.5 -149.499 46.5c-79.333 0 -141.166 -26.5 -185.499 -79.5s-66.5 -123.5 -66.5 -211.5c0 -96.667 23.5 -170.334 70.5 -221.001s107.833 -76 182.5 -76
c58.667 0 109.667 17.5 153 52.5s70.333 86.5 81 154.5z" />
    <glyph glyph-name="D" unicode="D" horiz-adv-x="708" 
d="M78 706l280 -0.000976562c88.667 0 160.834 -30.667 216.501 -92s83.5 -148.666 83.5 -261.999c0 -47.333 -5.33301 -90.666 -16 -129.999s-27.834 -76.333 -51.501 -111s-57.5 -61.834 -101.5 -81.501s-96.667 -29.5 -158 -29.5h-253v706zM175 622.999v-540.999h167
c72 0 126.667 23.833 164 71.5s56 114.167 56 199.5c0 81.333 -18.5 146.666 -55.5 195.999s-93.5 74 -169.5 74h-162z" />
    <glyph glyph-name="E" unicode="E" horiz-adv-x="604" 
d="M577 0h-498v706h486v-83h-396v-218h344v-82h-344v-241h408v-82z" />
    <glyph glyph-name="F" unicode="F" horiz-adv-x="542" 
d="M531 622h-359v-208h334v-82h-334v-332h-94v706h453v-84z" />
    <glyph glyph-name="G" unicode="G" horiz-adv-x="812" 
d="M741 0l-81.9971 0.00195312v99c-17.333 -29.333 -48 -56.166 -92 -80.499s-99.333 -36.5 -166 -36.5c-104.667 0 -189.334 33.667 -254.001 101s-97 154.333 -97 261c0 116.667 34.333 209.167 103 277.5s155.667 102.5 261 102.5c30.667 0 60.5 -3.33301 89.5 -10
s58.5 -17.334 88.5 -32.001s58 -35.834 84 -63.501s47.667 -60.834 65 -99.501l-98 -25c-14.667 48 -42 85.333 -82 112s-88 40 -144 40c-44 0 -83.167 -8.33301 -117.5 -25s-61.833 -38.834 -82.5 -66.501s-36.334 -58.5 -47.001 -92.5s-16 -69.667 -16 -107
c0 -95.333 25.167 -167.666 75.5 -216.999s112.166 -74 185.499 -74c68 0 125.667 19.833 173 59.5s71 93.167 71 160.5v10h-246v79h328v-373z" />
    <glyph glyph-name="H" unicode="H" horiz-adv-x="729" 
d="M651 0h-95v323h-384v-323h-93v706h93v-300h384v300h95v-706z" />
    <glyph glyph-name="I" unicode="I" horiz-adv-x="229" 
d="M162 0h-95v706h95v-706z" />
    <glyph glyph-name="J" unicode="J" 
d="M297 706l-0.00195312 -519.001c0 -24 -0.5 -42 -1.5 -54s-4.33301 -26.333 -10 -43s-14.5 -32 -26.5 -46c-35.333 -41.333 -86.666 -62 -153.999 -62c-29.333 0 -61.333 3.33301 -96 10v103c26.667 -13.333 57.667 -20 93 -20c38.667 0 66.334 12.333 83.001 37
c7.33301 10.667 11.833 23.834 13.5 39.501s2.5 41.167 2.5 76.5v478h96z" />
    <glyph glyph-name="K" unicode="K" horiz-adv-x="625" 
d="M624 0h-115l-248 348l-100 -102v-246h-94v706h94v-345l335 345h116l-286 -292z" />
    <glyph glyph-name="L" unicode="L" horiz-adv-x="521" 
d="M504 0h-436v706h94v-622h342v-84z" />
    <glyph glyph-name="M" unicode="M" horiz-adv-x="812" 
d="M746 0h-94l13 592l-223 -592h-73l-219 583c6.66699 -374.667 10 -569 10 -583h-92v706h122l216 -579l218 579h122v-706z" />
    <glyph glyph-name="N" unicode="N" horiz-adv-x="708" 
d="M630 0l-85 -0.00195312l-387 574c6 -373.333 9 -564.666 9 -573.999h-89v706h89l382 -566c-2.66699 362.667 -4 551.334 -4 566.001h85v-706z" />
    <glyph glyph-name="O" unicode="O" horiz-adv-x="812" 
d="M762 359c0 -36 -3.83496 -71.167 -11.502 -105.5s-20.5 -68.166 -38.5 -101.499s-40.5 -62.333 -67.5 -87s-61.167 -44.667 -102.5 -60s-87.333 -23 -138 -23c-46.667 0 -90.834 7.66699 -132.501 23s-79.167 37.833 -112.5 67.5s-59.666 68.667 -78.999 117
s-29 103.166 -29 164.499c0 62 10 117.333 30 166s46.833 87.5 80.5 116.5s71.334 50.833 113.001 65.5s85.834 22 132.501 22c106.667 0 192.5 -33.833 257.5 -101.5s97.5 -155.5 97.5 -263.5zM152.998 353c0 -91.333 22.833 -163.664 68.5 -216.997s108.167 -80 187.5 -80
c74 0 134.333 25.5 181 76.5s70 126.5 70 226.5c0 37.333 -4.5 72.333 -13.5 105s-22.833 63.167 -41.5 91.5s-45 50.833 -79 67.5s-73.667 25 -119 25c-44.667 0 -84 -8.33301 -118 -25s-60.5 -39.334 -79.5 -68.001s-33.167 -59.834 -42.5 -93.501
s-14 -69.834 -14 -108.501z" />
    <glyph glyph-name="P" unicode="P" horiz-adv-x="625" 
d="M76 706h334.999c66 0 116.333 -18.5 151 -55.5s52 -84.833 52 -143.5c0 -35.333 -6.16699 -68 -18.5 -98s-34.666 -55.833 -66.999 -77.5s-72.5 -32.5 -120.5 -32.5h-241v-299h-91v706zM166.999 383l227.001 0.000976562c38.667 0 69.5 10.667 92.5 32
s34.5 52.666 34.5 93.999c0 39.333 -11.333 68.5 -34 87.5s-53.334 28.5 -92.001 28.5h-228v-242z" />
    <glyph glyph-name="Q" unicode="Q" horiz-adv-x="812" 
d="M806 34l-59.9971 -70l-112 95c-69.333 -51.333 -146.333 -77 -231 -77c-102.667 0 -187.667 32.667 -255 98s-101 156.333 -101 273c0 47.333 7.16699 92.5 21.5 135.5s35.666 82.333 63.999 118s66.166 64.167 113.499 85.5s101.333 32 162 32
c105.333 0 190.666 -33.167 255.999 -99.5s98 -157.833 98 -274.5c0 -80 -21.667 -154 -65 -222zM150.003 356c0 -36.667 4.66895 -71.832 14.002 -105.499s23.5 -65.334 42.5 -95.001s45.833 -53.334 80.5 -71.001s75 -26.5 121 -26.5c44 0 82.833 8.5 116.5 25.5
s60.167 40 79.5 69s33.666 60.167 42.999 93.5s14 68.333 14 105c0 84.667 -21.833 155.834 -65.5 213.501s-107.167 86.5 -190.5 86.5c-43.333 0 -81.833 -8.5 -115.5 -25.5s-60.334 -39.833 -80.001 -68.5s-34.5 -60 -44.5 -94s-15 -69.667 -15 -107z" />
    <glyph glyph-name="R" unicode="R" horiz-adv-x="667" 
d="M657 0h-112l-193 300h-182v-300h-92v706h318c70.667 0 126.5 -17.167 167.5 -51.5s61.5 -85.833 61.5 -154.5c0 -48.667 -12.833 -90.667 -38.5 -126s-68.167 -58 -127.5 -68zM170 379h208.001c102.667 0 154 40.333 154 121c0 40 -12.333 71.333 -37 94
s-59.334 34 -104.001 34h-221v-249z" />
    <glyph glyph-name="S" unicode="S" horiz-adv-x="667" 
d="M37 226l100.997 12.9951c0 -6.66699 0.333008 -13 1 -19s2.5 -15.667 5.5 -29s7 -25.333 12 -36s12.667 -22.5 23 -35.5s22.333 -23.833 36 -32.5s31.334 -16 53.001 -22s45.834 -9 72.501 -9c17.333 0 35 2 53 6s36.833 10.667 56.5 20s35.667 23.833 48 43.5
s18.5 43.5 18.5 71.5c0 36 -11.333 62.333 -34 79s-56 29.334 -100 38.001l-64 13c-84 16.667 -146.333 40.167 -187 70.5s-61 73.833 -61 130.5c0 54.667 22.333 100.667 67 138c46.667 38.667 107.667 58 183 58c84 0 149 -17.667 195 -53
c28.667 -21.333 49.167 -44.5 61.5 -69.5s21.833 -56.5 28.5 -94.5l-95 -6c0 10 -1.16699 20.5 -3.5 31.5s-7.33301 23.833 -15 38.5s-17.667 27.667 -30 39s-30.166 21 -53.499 29s-50 12 -80 12c-25.333 0 -49.333 -3 -72 -9s-43.167 -17.667 -61.5 -35
s-27.5 -39.666 -27.5 -66.999c0 -31.333 11.833 -54.833 35.5 -70.5s58.834 -29.167 105.501 -40.5l129 -31c13.333 -3.33301 24.166 -6.16602 32.499 -8.49902s23 -8.66602 44 -18.999s38 -21.833 51 -34.5s25 -30.667 36 -54s16.5 -49.666 16.5 -78.999
c0 -58 -19.667 -106.333 -59 -145c-52 -50.667 -126.333 -76 -223 -76c-78 0 -142.333 16.333 -193 49c-62 40 -97.333 105 -106 195z" />
    <glyph glyph-name="T" unicode="T" horiz-adv-x="542" 
d="M528 624h-211v-624h-94v624h-212v82h517v-82z" />
    <glyph glyph-name="U" unicode="U" horiz-adv-x="688" 
d="M76 706l94.001 0.000976562v-467c0 -52.667 13.5 -95.334 40.5 -128.001s69.833 -49 128.5 -49c62 0 107 17.667 135 53s42 81 42 137v454h95v-473c0 -70 -23.333 -129.333 -70 -178s-114.334 -73 -203.001 -73c-84 0 -148.667 22.667 -194 68s-68 103 -68 173v483z" />
    <glyph glyph-name="V" unicode="V" horiz-adv-x="604" 
d="M592 706l-249 -706h-93l-239 706h100l187 -590l194 590h100z" />
    <glyph glyph-name="W" unicode="W" horiz-adv-x="1021" 
d="M1003 706l-216 -706h-92l-186 585l-180 -585h-94l-217 706h99l167 -585l179 585h92l186 -585l165 585h97z" />
    <glyph glyph-name="X" unicode="X" horiz-adv-x="625" 
d="M605 0h-111l-183 287l-181 -287h-109l235 370l-222 336h112l165 -254l158 254h111l-216 -336z" />
    <glyph glyph-name="Y" unicode="Y" horiz-adv-x="625" 
d="M611 706l-254 -383v-323h-95v323l-248 383h111l186 -299l188 299h112z" />
    <glyph glyph-name="Z" unicode="Z" horiz-adv-x="604" 
d="M571 0h-553v92l436 528h-401v86h508v-88l-434 -533h444v-85z" />
    <glyph glyph-name="bracketleft" unicode="[" horiz-adv-x="277" 
d="M252 -144h-184v923h184v-59h-104v-805h104v-59z" />
    <glyph glyph-name="backslash" unicode="\" horiz-adv-x="333" 
d="M321 0h-75l-233 702h77z" />
    <glyph glyph-name="bracketright" unicode="]" horiz-adv-x="276" 
d="M207 -143h-184v59h104v805h-104v58h184v-922z" />
    <glyph glyph-name="asciicircum" unicode="^" horiz-adv-x="724" 
d="M611 287h-91l-156 339l-157 -339h-94l204 419h91z" />
    <glyph glyph-name="underscore" unicode="_" horiz-adv-x="500" 
d="M510 -214h-520v75h520v-75z" />
    <glyph glyph-name="grave" unicode="`" horiz-adv-x="271" 
d="M201 521h-48l-83 144h89z" />
    <glyph glyph-name="a" unicode="a" horiz-adv-x="500" 
d="M346 282l0.00292969 16c0 12.667 -0.333008 23 -1 31s-2.83398 18.667 -6.50098 32s-8.83398 24.166 -15.501 32.499s-17 15.666 -31 21.999s-31 9.5 -51 9.5c-32.667 0 -57.834 -8 -75.501 -24s-26.5 -38.667 -26.5 -68v-7l-83 5c0 7.33301 0.833008 15.833 2.5 25.5
s6.16699 22.5 13.5 38.5s17 30.333 29 43s29.833 23.834 53.5 33.501s51.167 14.5 82.5 14.5c47.333 0 86.666 -9.33301 117.999 -28c30.667 -17.333 50.167 -38.166 58.5 -62.499s12.5 -60.5 12.5 -108.5v-166c0 -12 0.5 -21.167 1.5 -27.5s4.33301 -12.5 10 -18.5
s13.834 -9 24.501 -9c4 0 12 1.33301 24 4v-67c-18 -6 -35 -9 -51 -9c-22 0 -38.667 4 -50 12c-8.66699 6.66699 -16 16 -22 28s-9.33301 22 -10 30c-47.333 -51.333 -101 -77 -161 -77c-47.333 0 -85.833 12.5 -115.5 37.5s-44.5 57.5 -44.5 97.5c0 42 17 76 51 102
c39.333 29.333 103 47 191 53zM347.003 230c-96.667 -15.333 -153.001 -26.667 -169.001 -34c-38.667 -15.333 -58 -39.333 -58 -72c0 -19.333 7.5 -35.833 22.5 -49.5s37.167 -20.5 66.5 -20.5c13.333 0 26.833 1.66699 40.5 5s28.334 9.5 44.001 18.5s28.5 23.5 38.5 43.5
s15 44 15 72v37z" />
    <glyph glyph-name="b" unicode="b" horiz-adv-x="562" 
d="M65 706h80.001v-300c36 53.333 90 80 162 80c62.667 0 114.5 -22.5 155.5 -67.5s61.5 -105.833 61.5 -182.5c0 -73.333 -18.833 -133.5 -56.5 -180.5s-91.5 -70.5 -161.5 -70.5c-68.667 0 -122.334 25.333 -161.001 76v-61h-80v706zM143.001 234
c0 -48 11.999 -90.167 35.999 -126.5s62 -54.5 114 -54.5c38.667 0 72.667 14.667 102 44s44 78 44 146c0 53.333 -14 95 -42 125s-62.667 45 -104 45c-39.333 0 -74.166 -14.167 -104.499 -42.5s-45.5 -73.833 -45.5 -136.5z" />
    <glyph glyph-name="c" unicode="c" horiz-adv-x="521" 
d="M408 178l86.001 -8.00098c-23.333 -123.333 -97.333 -185 -222 -185c-72.667 0 -129.667 22.833 -171 68.5s-62 105.167 -62 178.5c0 74 19.833 134.833 59.5 182.5s96.167 71.5 169.5 71.5c64.667 0 115.167 -16.167 151.5 -48.5s58.166 -68.833 65.499 -109.5l-88 -8
c-6 34.667 -20.167 61.334 -42.5 80.001s-50.833 28 -85.5 28c-40.667 0 -74.5 -15.167 -101.5 -45.5s-40.5 -78.833 -40.5 -145.5c0 -57.333 12.667 -103.333 38 -138s61.666 -52 108.999 -52c78.667 0 123.334 43.667 134.001 131z" />
    <glyph glyph-name="d" unicode="d" horiz-adv-x="562" 
d="M497 0l-79.9971 -0.00195312v60c-42.667 -50 -96.334 -75 -161.001 -75c-67.333 0 -120.333 23.333 -159 70s-58 107.334 -58 182.001c0 43.333 6.66699 81.833 20 115.5s30.833 59.834 52.5 78.501s44.667 32.5 69 41.5s49.166 13.5 74.499 13.5
c38 0 71.667 -8.33301 101 -25s49.666 -34 60.999 -52v297h80v-706zM125.003 233.998c0 -48.667 11.499 -90.499 34.499 -125.499s60.5 -52.5 112.5 -52.5c40.667 0 75.334 14.5 104.001 43.5s43 76.5 43 142.5c0 49.333 -13.167 90.166 -39.5 122.499
s-61.5 48.5 -105.5 48.5c-50 0 -87.333 -17.333 -112 -52s-37 -77 -37 -127z" />
    <glyph glyph-name="e" unicode="e" horiz-adv-x="521" 
d="M125 221l-0.000976562 -5.99902c0 -43.333 12.667 -82.5 38 -117.5s63.666 -52.5 114.999 -52.5c36.667 0 64.834 11.167 84.501 33.5s32.834 47.833 39.501 76.5l81 -11c-35.333 -106 -106.333 -159 -213 -159c-64.667 0 -119.334 20.833 -164.001 62.5
s-67 105.834 -67 192.501c0 42.667 7.16699 80.5 21.5 113.5s33 58.667 56 77s47.333 32.166 73 41.499s51.5 14 77.5 14c58.667 0 109.334 -20.833 152.001 -62.5s64 -104.834 64 -189.501v-13h-358zM126.999 279.001h268.999c0 40 -12.667 74.167 -38 102.5
s-57.666 42.5 -96.999 42.5c-40 0 -71.333 -13.833 -94 -41.5s-36 -62.167 -40 -103.5z" />
    <glyph glyph-name="f" unicode="f" horiz-adv-x="271" 
d="M167 471h89.001v-66h-89v-405h-78v405h-78v66h78v41c0 62.667 4 104 12 124c16.667 43.333 54 65 112 65c17.333 0 36.666 -2 57.999 -6v-63c-10 3.33301 -24.667 5 -44 5c-40 0 -60 -25.333 -60 -76v-90z" />
    <glyph glyph-name="g" unicode="g" horiz-adv-x="562" 
d="M497 471l0.00292969 -479.999c0 -42 -6 -77.833 -18 -107.5s-28.833 -52.334 -50.5 -68.001s-44.834 -27 -69.501 -34s-52 -10.5 -82 -10.5c-58 0 -106.833 14.833 -146.5 44.5s-62.167 73.167 -67.5 130.5h90c0 -36 11.833 -63.333 35.5 -82s55.167 -28 94.5 -28
c48 0 81.833 11.833 101.5 35.5s29.5 59.167 29.5 106.5v91c-40.667 -56 -92.334 -84 -155.001 -84c-62 0 -113.833 22.167 -155.5 66.5s-62.5 104.833 -62.5 181.5c0 30 3.66699 58.833 11 86.5s18.833 54.5 34.5 80.5s38.5 46.833 68.5 62.5s65 23.5 105 23.5
c57.333 0 108.666 -26.333 153.999 -79v64h83zM417.003 242.001c0 53.333 -13.667 95.333 -41 126s-63 46 -107 46c-42.667 0 -77.667 -15.667 -105 -47s-41 -75.333 -41 -132c0 -52.667 12.5 -95.5 37.5 -128.5s62.167 -49.5 111.5 -49.5c48.667 0 85 17.167 109 51.5
s36 78.833 36 133.5z" />
    <glyph glyph-name="h" unicode="h" horiz-adv-x="521" 
d="M458 0h-81v276c0 34.667 -3 60.667 -9 78c-14.667 41.333 -46.334 62 -95.001 62c-46.667 0 -81.667 -19.667 -105 -59c-14.667 -25.333 -22 -66.333 -22 -123v-234h-80v706h80v-283c38.667 42 86.334 63 143.001 63c112.667 0 169 -60.333 169 -181v-305z" />
    <glyph glyph-name="i" unicode="i" horiz-adv-x="208" 
d="M146 614h-77v92h77v-92zM146 0h-77v471h77v-471z" />
    <glyph glyph-name="j" unicode="j" horiz-adv-x="208" 
d="M143 613h-78v93h78v-93zM143 471v-574.998c0 -45.333 -8.33301 -77 -25 -95c-18.667 -20 -45.667 -30 -81 -30c-22 0 -42 1.33301 -60 4v71c18.667 -2 30.667 -3 36 -3c14.667 0 26.667 3.33301 36 10c7.33301 5.33301 11.833 12.166 13.5 20.499s2.5 23.166 2.5 44.499
v553h78z" />
    <glyph glyph-name="k" unicode="k" horiz-adv-x="458" 
d="M472 0h-100l-169 226l-57 -60v-166h-81v706h81v-435l188 200h98l-175 -186z" />
    <glyph glyph-name="l" unicode="l" horiz-adv-x="208" 
d="M143 0h-76v706h76v-706z" />
    <glyph glyph-name="m" unicode="m" horiz-adv-x="771" 
d="M707 0l-78.999 -0.000976562v314c0 36.667 -8.83301 62 -26.5 76s-37.5 21 -59.5 21c-23.333 0 -46.333 -7.5 -69 -22.5s-37.334 -33.5 -44.001 -55.5c-4 -12 -6 -34.667 -6 -68v-265h-78v307c0 22 -3.16699 40.333 -9.5 55s-14.5 25.167 -24.5 31.5
s-19.167 10.666 -27.5 12.999s-16.833 3.5 -25.5 3.5c-22 0 -44.333 -6.66699 -67 -20s-37.667 -30 -45 -50c-4.66699 -12 -7 -32 -7 -60v-280h-75v471h75v-64c44.667 52.667 92 79 142 79c39.333 0 72 -14.667 98 -44c6 -6.66699 15.667 -21 29 -43l18 18
c12 12 21.167 20.333 27.5 25s16 11.334 29 20.001s26.333 14.834 40 18.501s28.167 5.5 43.5 5.5c44.667 0 81 -17.333 109 -52c21.333 -25.333 32 -66.333 32 -123v-311z" />
    <glyph glyph-name="n" unicode="n" horiz-adv-x="521" 
d="M455 0h-79.0029v309c0 34 -10.333 59.5 -31 76.5s-46 25.5 -76 25.5c-34.667 0 -64.167 -11.833 -88.5 -35.5s-36.5 -55.834 -36.5 -96.501v-279h-80v471h80v-69c12.667 22 31.334 41.5 56.001 58.5s55.334 25.5 92.001 25.5c10.667 0 22.334 -1.16699 35.001 -3.5
s29.167 -8.66602 49.5 -18.999s36.833 -24.5 49.5 -42.5c19.333 -27.333 29 -68.333 29 -123v-298z" />
    <glyph glyph-name="o" unicode="o" horiz-adv-x="542" 
d="M40 235c0 18 1.66699 36.4971 5 55.4971s10.166 40.667 20.499 65s23.833 45.833 40.5 64.5s39.834 34.334 69.501 47.001s63.834 19 102.501 19c60.667 0 113.167 -21.167 157.5 -63.5s66.5 -103.166 66.5 -182.499c0 -81.333 -21.833 -144.166 -65.5 -188.499
s-98.834 -66.5 -165.501 -66.5c-68 0 -123.5 22 -166.5 66s-64.5 105.333 -64.5 184zM127 230.997c0 -13.333 0.833008 -26.834 2.5 -40.501s5.5 -29.5 11.5 -47.5s14 -33.5 24 -46.5s24 -24.167 42 -33.5s39 -14 63 -14c47.333 0 83.5 17.333 108.5 52s37.5 83 37.5 145
c0 48 -11 89.333 -33 124s-57.333 52 -106 52c-28 0 -52.167 -6 -72.5 -18s-35.333 -25.333 -45 -40s-17.167 -32.5 -22.5 -53.5s-8.33301 -36.667 -9 -47s-1 -21.166 -1 -32.499z" />
    <glyph glyph-name="p" unicode="p" horiz-adv-x="562" 
d="M65 471l78.001 -0.00195312v-67c16.667 20.667 39.667 39.5 69 56.5s62.333 25.5 99 25.5c55.333 0 104.5 -21.667 147.5 -65s64.5 -105.666 64.5 -186.999c0 -29.333 -3.83301 -57.666 -11.5 -84.999s-19.5 -53.833 -35.5 -79.5s-39 -46.167 -69 -61.5s-65 -23 -105 -23
c-32 0 -62.333 6 -91 18s-51.334 29.333 -68.001 52v-279h-78v695zM143.001 226.998c0 -53.333 13.166 -95.334 39.499 -126.001s62.5 -46 108.5 -46c48.667 0 85.834 16.333 111.501 49s38.5 77 38.5 133c0 58.667 -14.5 102.334 -43.5 131.001s-62.833 43 -101.5 43
c-46 0 -83 -16.333 -111 -49s-42 -77.667 -42 -135z" />
    <glyph glyph-name="q" unicode="q" horiz-adv-x="562" 
d="M497 -225h-81v281c-38.667 -47.333 -92.667 -71 -162 -71c-62.667 0 -114 20.667 -154 62s-60 101.333 -60 180c0 46 6.5 86.5 19.5 121.5s30.167 62 51.5 81s44.166 33.167 68.499 42.5s49.5 14 75.5 14c70.667 0 124.334 -28.333 161.001 -85v70h81v-696zM422 219
c0 20 -2 39.832 -6 59.499s-11 40.167 -21 61.5s-25.333 38.5 -46 51.5s-45.667 19.5 -75 19.5c-98 0 -147 -60.667 -147 -182c0 -61.333 14 -106.5 42 -135.5s63 -43.5 105 -43.5c8.66699 0 17.5 0.5 26.5 1.5s21.333 4.66699 37 11s29.167 15 40.5 26
s21.5 27.833 30.5 50.5s13.5 49.334 13.5 80.001z" />
    <glyph glyph-name="r" unicode="r" horiz-adv-x="313" 
d="M65 471h79.999v-86c11.333 22 26 40 44 54c32 25.333 71 38 117 38v-86c-10 2 -20.333 3 -31 3c-29.333 0 -55.166 -7.83301 -77.499 -23.5s-37.5 -37.5 -45.5 -65.5c-4.66699 -18.667 -7 -47.667 -7 -87v-218h-80v471z" />
    <glyph glyph-name="s" unicode="s" horiz-adv-x="479" 
d="M31 152l91.002 13.002c0 -36.667 8.66699 -64.334 26 -83.001c22 -24 57.333 -36 106 -36c27.333 0 52.333 5.83301 75 17.5s34 32.167 34 61.5c0 13.333 -2.66699 24.666 -8 33.999s-13.833 16.666 -25.5 21.999s-21.667 9.16602 -30 11.499s-19.833 4.83301 -34.5 7.5
l-46 9c-62 12 -105.5 29.167 -130.5 51.5s-37.5 50.833 -37.5 85.5c0 47.333 18.167 82.5 54.5 105.5s79.166 34.5 128.499 34.5c44 0 80.667 -8.33301 110 -25s51.333 -36 66 -58c12.667 -19.333 21 -43.333 25 -72l-86 -10c-0.666992 21.333 -3 36 -7 44
c-7.33301 15.333 -21.333 29.166 -42 41.499s-46.334 18.5 -77.001 18.5c-30 0 -53 -7.16699 -69 -21.5s-24 -30.166 -24 -47.499c0 -19.333 9 -34.166 27 -44.499s47 -20.166 87 -29.499l46 -11c50.667 -12 89.5 -28 116.5 -48s40.5 -49.667 40.5 -89
c0 -44.667 -18.667 -80.667 -56 -108s-84.333 -41 -141 -41c-129.333 0 -202.333 55.667 -219 167z" />
    <glyph glyph-name="t" unicode="t" horiz-adv-x="292" 
d="M174 405l-0.000976562 -303c0 -16.667 2.66699 -28.667 8 -36s14.333 -11 27 -11c13.333 0 30 3.66699 50 11v-66c-37.333 -5.33301 -62.666 -8 -75.999 -8c-36.667 0 -61 6.66699 -73 20s-18 35 -18 65v328h-76v66h76v149h82v-149h85v-66h-85z" />
    <glyph glyph-name="u" unicode="u" horiz-adv-x="521" 
d="M454 0l-79 -0.000976562v72c-17.333 -26 -40.5 -46.5 -69.5 -61.5s-59.167 -22.5 -90.5 -22.5c-58.667 0 -100.667 20.667 -126 62c-16 26.667 -24 66 -24 118v303h79v-268c0 -48 3.66699 -79.667 11 -95c15.333 -30 44 -45 86 -45c50 0 87.333 18 112 54
c15.333 22.667 23 60.334 23 113.001v241h78v-471z" />
    <glyph glyph-name="v" unicode="v" horiz-adv-x="437" 
d="M426 471l-170 -471h-72l-172 471h83l125 -361l124 361h82z" />
    <glyph glyph-name="w" unicode="w" horiz-adv-x="729" 
d="M719 471l-173 -471h-70l-113 351l-115 -351h-73l-164 471h86l118 -350l116 350h70l111 -350l123 350h84z" />
    <glyph glyph-name="x" unicode="x" horiz-adv-x="396" 
d="M387 0h-90l-100 168l-98 -168h-90l146 239l-139 232h92l94 -162l95 162h90l-142 -232z" />
    <glyph glyph-name="y" unicode="y" horiz-adv-x="437" 
d="M342 471l83.001 0.000976562l-198 -557c-20 -56.667 -39.667 -95.334 -59 -116.001s-48.666 -31 -87.999 -31c-23.333 0 -47 3.33301 -71 10v72c16 -5.33301 33.667 -8 53 -8c23.333 0 41.166 6.5 53.499 19.5s25.166 39.167 38.499 78.5l20 58l-160 474h85l118 -374z
" />
    <glyph glyph-name="z" unicode="z" horiz-adv-x="417" 
d="M389 0h-376v66l271 336h-245v69h344v-64l-274 -341h280v-66z" />
    <glyph glyph-name="braceleft" unicode="{" horiz-adv-x="281" 
d="M268 -148l-39.998 -0.00292969c-40 0 -71 9.66699 -93 29s-33 55.333 -33 108v192c0 42.667 -5.33301 70.334 -16 83.001s-33.667 20.667 -69 24v60c34.667 2.66699 57.5 10.5 68.5 23.5s16.5 40.5 16.5 82.5v192c0 47.333 10.167 82 30.5 104s55.833 33 106.5 33h29v-58
h-16c-30.667 0 -49.834 -6.83301 -57.501 -20.5s-11.5 -38.5 -11.5 -74.5v-178c0 -41.333 -5.5 -71 -16.5 -89s-32.833 -33.333 -65.5 -46c30.667 -9.33301 52 -23.666 64 -42.999s18 -49.666 18 -90.999v-196c0 -29.333 5.16699 -49.5 15.5 -60.5
s30.166 -16.5 59.499 -16.5h10v-58z" />
    <glyph glyph-name="bar" unicode="|" horiz-adv-x="236" 
d="M157 -143h-80v922h80v-922z" />
    <glyph glyph-name="braceright" unicode="}" horiz-adv-x="281" 
d="M12 782l44.001 0.00292969c38 0 68 -10.167 90 -30.5s33 -56.5 33 -108.5v-201c0 -34.667 5.5 -58.5 16.5 -71.5s33.5 -20.833 67.5 -23.5v-60c-34 -4 -56.5 -11.833 -67.5 -23.5s-16.5 -35.834 -16.5 -72.501v-197c0 -48 -9.33301 -83.667 -28 -107s-53 -35 -103 -35
h-36v58h19c28.667 0 47 7.16699 55 21.5s12 39.166 12 74.499v176c0 41.333 5.5 71.166 16.5 89.499s32.5 33.833 64.5 46.5c-28.667 7.33301 -49.334 21 -62.001 41s-19 49 -19 87v199c0 30 -5 50.667 -15 62s-29.667 17 -59 17h-12v58z" />
    <glyph glyph-name="asciitilde" unicode="~" horiz-adv-x="724" 
d="M119 226l-44.999 61c25.333 36 50.166 61.833 74.499 77.5s52.166 23.5 83.499 23.5c27.333 0 71.666 -13.667 132.999 -41l45 -20c38.667 -16.667 65 -25 79 -25c36.667 0 75.667 24.333 117 73l45 -60c-57.333 -66.667 -110 -100 -158 -100
c-31.333 0 -73.666 12.667 -126.999 38l-35 17c-43.333 20.667 -78 31 -104 31c-19.333 0 -35.166 -4.33301 -47.499 -13s-30.5 -27 -54.5 -55z" />
    <glyph glyph-name="uni00A0" unicode="&#xa0;" horiz-adv-x="271" 
 />
    <glyph glyph-name="exclamdown" unicode="&#xa1;" horiz-adv-x="271" 
d="M156 616h-79v90h79v-90zM156 0h-79v288l24 271h31l24 -282v-277z" />
    <glyph glyph-name="cent" unicode="&#xa2;" horiz-adv-x="500" 
d="M396 180l88 -8.00293c-7.33301 -35.333 -18.833 -65.666 -34.5 -90.999s-33.167 -44.166 -52.5 -56.499s-37.5 -21.333 -54.5 -27s-34.167 -8.83398 -51.5 -9.50098v-103h-60v103c-63.333 6 -113 32.833 -149 80.5s-54 103.834 -54 168.501c0 62 17.5 115.833 52.5 161.5
s85.5 73.167 151.5 82.5v96h59v-95c16.667 -2.66699 31.5 -6 44.5 -10s29 -11.167 48 -21.5s36.333 -26.166 52 -47.499s28.5 -47.666 38.5 -78.999l-90 -8c-5.33301 52 -36.333 85.667 -93 101v-364c66 11.333 101 53.666 105 126.999zM231 53.9971l-0.000976562 365
c-78.667 -22 -118 -82.667 -118 -182c0 -27.333 2.83301 -52.5 8.5 -75.5s17.834 -45.167 36.501 -66.5s43 -35 73 -41z" />
    <glyph glyph-name="sterling" unicode="&#xa3;" horiz-adv-x="667" 
d="M560 178l92.999 -6.00488c-2 -21.333 -6.16699 -41.833 -12.5 -61.5s-15.666 -39.167 -27.999 -58.5s-29.5 -34.833 -51.5 -46.5s-47.333 -17.5 -76 -17.5c-12.667 0 -25.5 1 -38.5 3s-24 4 -33 6s-20.333 5.5 -34 10.5s-23 8.66699 -28 11l-28.5 13.5
c-14 6.66699 -22 10.334 -24 11.001c-44.667 -38.667 -91.667 -58 -141 -58c-28.667 0 -54.5 8 -77.5 24s-34.5 38.667 -34.5 68c0 26 10 47 30 63s46.333 24 79 24c31.333 0 64.666 -6 99.999 -18c1.33301 5.33301 2 11 2 17c0 16 -4.33301 35.5 -13 58.5
s-19 42.833 -31 59.5h-177v65h131c-40.667 66 -61 122 -61 168c0 64 26.5 115 79.5 153s113.833 57 182.5 57c43.333 0 81.666 -7.33301 114.999 -22s59.166 -33.834 77.499 -57.501s32 -47.834 41 -72.501s13.5 -49 13.5 -73l-105 -10c0.666992 6.66699 1 13 1 19
c0 14 -2.16699 28.333 -6.5 43s-11.666 30.167 -21.999 46.5s-26 29.5 -47 39.5s-45.833 15 -74.5 15c-42 0 -77 -11.667 -105 -35s-42 -54.666 -42 -93.999c0 -17.333 2.66699 -34.666 8 -51.999s10.5 -30.666 15.5 -39.999s14.167 -24 27.5 -44s22 -33.667 26 -41h209v-65
h-173c1.33301 -3.33301 3.5 -9.66602 6.5 -18.999s5 -15.666 6 -18.999s2.33301 -8.33301 4 -15s2.83398 -13.167 3.50098 -19.5s1 -13.166 1 -20.499c0 -22 -3.66699 -47.333 -11 -76c0.666992 0 4.5 -2 11.5 -6s12.667 -7 17 -9l19.5 -9c8.66699 -4 16.5 -7 23.5 -9
s15.333 -3.83301 25 -5.5s18.834 -2.5 27.501 -2.5c30.667 0 54.667 10.167 72 30.5s26.333 45.833 27 76.5zM226.999 76.9951c-28 11.333 -51.332 17 -69.999 17c-21.333 0 -32 -8 -32 -24c0 -6 2.83301 -11.5 8.5 -16.5s13.5 -7.5 23.5 -7.5
c23.333 0 46.666 10.333 69.999 31z" />
    <glyph glyph-name="currency" unicode="&#xa4;" horiz-adv-x="663" 
d="M618 569l-75 -74.999c34 -50.667 51 -102.334 51 -155.001c0 -54.667 -17.333 -106.667 -52 -156l75 -76l-56 -55l-75 76c-30 -20 -55.833 -33.667 -77.5 -41s-47.5 -11 -77.5 -11c-30.667 0 -57.167 3.83301 -79.5 11.5s-47.5 21.167 -75.5 40.5l-76 -74l-55 55l76 74
c-34.667 48.667 -52 101 -52 157c0 54 17.333 105.667 52 155l-74 74l55 55l74 -74c48 34.667 100 52 156 52c60 0 111.667 -17.333 155 -52l75 75zM508 338.001c0 51.333 -16.666 94.167 -49.999 128.5s-75.333 51.5 -126 51.5c-50 0 -92 -17 -126 -51
s-51 -76.333 -51 -127c0 -51.333 17.167 -94 51.5 -128s77.166 -51 128.499 -51c48.667 0 89.667 17 123 51s50 76 50 126z" />
    <glyph glyph-name="yen" unicode="&#xa5;" horiz-adv-x="625" 
d="M611 677l-171 -247h112v-72h-159l-38 -52h197v-72h-195v-234h-94v234h-194v72h194l-32 51h-162v71h113l-168 249h112l185 -287l189 287h111z" />
    <glyph glyph-name="brokenbar" unicode="&#xa6;" horiz-adv-x="252" 
d="M167 383h-82v402h82v-402zM167 -137h-82v401h82v-401z" />
    <glyph glyph-name="section" unicode="&#xa7;" horiz-adv-x="625" 
d="M540 698l-39.999 -70.999c-27.333 16 -49.333 28 -66 36s-37.834 15.833 -63.501 23.5s-50.834 11.5 -75.501 11.5c-16 0 -32 -2 -48 -6s-31 -11.5 -45 -22.5s-21 -24.833 -21 -41.5c0 -14.667 5.16699 -27.5 15.5 -38.5s19.833 -18.333 28.5 -22s22 -8.83398 40 -15.501
c77.333 -28 134.666 -51 171.999 -69c47.333 -22.667 84.5 -48.167 111.5 -76.5s40.5 -64.833 40.5 -109.5c0 -32 -8.5 -62.167 -25.5 -90.5s-39.833 -50.5 -68.5 -66.5c33.333 -30 50 -63.333 50 -100c0 -38.667 -18 -75.334 -54 -110.001s-86.333 -52 -151 -52
c-67.333 0 -154.333 27 -261 81l40 74c32 -22.667 68 -41 108 -55s78.667 -21 116 -21c26.667 0 50.5 5.83301 71.5 17.5s31.5 30.5 31.5 56.5c0 8 -1.5 15.333 -4.5 22s-6.16699 12.167 -9.5 16.5s-9.16602 9 -17.499 14s-14.333 8.33301 -18 10s-11 4.83398 -22 9.50098
s-17.833 7.66699 -20.5 9c-2 0.666992 -19.167 8 -51.5 22s-55.333 24.333 -69 31l-59 30c-25.667 13.333 -46.667 26.166 -63 38.499s-29.5 24.833 -39.5 37.5c-23.333 28.667 -35 62 -35 100c0 30.667 8.83301 59.834 26.5 87.501s40.5 49.5 68.5 65.5
c-28 28 -42 57.667 -42 89c0 48.667 20.333 87.167 61 115.5s87.667 42.5 141 42.5c66.667 0 149.334 -24.333 248.001 -73zM275.001 456.001l-64 26.002c-21.333 -7.33301 -40.5 -20.833 -57.5 -40.5s-25.5 -39.834 -25.5 -60.501c0 -26.667 12.667 -51 38 -73
c10.667 -9.33301 28.167 -20.5 52.5 -33.5s46.333 -24 66 -33l76 -34c31 -13.667 49.167 -21.834 54.5 -24.501c23.333 8.66699 43.666 22.5 60.999 41.5s26 40.167 26 63.5c0 12.667 -2.5 24.667 -7.5 36s-13 21.833 -24 31.5s-21.5 18.334 -31.5 26.001
s-23.667 15.5 -41 23.5s-31.166 14.167 -41.499 18.5s-25 10.166 -44 17.499s-31.5 12.333 -37.5 15z" />
    <glyph glyph-name="dieresis" unicode="&#xa8;" horiz-adv-x="271" 
d="M278 541h-89v103h89v-103zM80 541h-87v103h87v-103z" />
    <glyph glyph-name="copyright" unicode="&#xa9;" horiz-adv-x="840" 
d="M776 360c0 -103.333 -33.999 -189.667 -101.999 -259s-153 -104 -255 -104c-98.667 0 -182.5 34.667 -251.5 104s-103.5 153.333 -103.5 252c0 99.333 34.667 183.5 104 252.5s153.666 103.5 252.999 103.5c97.333 0 180.833 -34.333 250.5 -103
s104.5 -150.667 104.5 -246zM740.001 345.999c0 93.333 -30.667 171.5 -92 234.5s-137.333 94.5 -228 94.5c-88.667 0 -164.167 -31.5 -226.5 -94.5s-93.5 -139.167 -93.5 -228.5s31 -165.166 93 -227.499s137.667 -93.5 227 -93.5c86.667 0 161.667 31.167 225 93.5
s95 136.166 95 221.499zM552.001 289.999l68.002 -14c-30 -104.667 -95.667 -157 -197 -157c-62.667 0 -113.167 20.833 -151.5 62.5s-57.5 96.167 -57.5 163.5c0 70.667 20.333 128.5 61 173.5s93.334 67.5 158.001 67.5c47.333 0 85.666 -11 114.999 -33s52 -57 68 -105
l-67 -19c-14 34.667 -29.5 58.667 -46.5 72s-40.5 20 -70.5 20c-44 0 -79 -15.5 -105 -46.5s-39 -72.833 -39 -125.5c0 -50 12.333 -89.667 37 -119s57.667 -44 99 -44c33.333 0 60.166 8.33301 80.499 25s36.166 43 47.499 79z" />
    <glyph glyph-name="ordfeminine" unicode="&#xaa;" horiz-adv-x="313" 
d="M298 475l0.000976562 -46.002c-10 -4 -19.667 -6 -29 -6c-26 0 -44.333 12.333 -55 37c-24.667 -27.333 -55.334 -41 -92.001 -41c-25.333 0 -47 6.66699 -65 20s-27 33 -27 59c0 18.667 4.16699 34.334 12.5 47.001s21.333 22.334 39 29.001s36.167 11.5 55.5 14.5
s44 5.5 74 7.5v11c0 22.667 -3.66699 40 -11 52s-22.333 18 -45 18c-38 0 -57 -17.667 -57 -53v-6l-55 4c8 64 45 96 111 96c31.333 0 57 -8 77 -24s30 -41 30 -75v-109c0 -26.667 7.33301 -40 22 -40c5.33301 0 10.333 1.66699 15 5zM211.001 542.998l0.000976562 17
l-21 -3c-38.667 -5.33301 -65.334 -12.166 -80.001 -20.499s-22 -20.5 -22 -36.5c0 -13.333 4.83301 -23 14.5 -29s21.167 -9 34.5 -9c18.667 0 35.667 6.16699 51 18.5s23 33.166 23 62.499z" />
    <glyph glyph-name="guillemotleft" unicode="&#xab;" horiz-adv-x="396" 
d="M334 141l-134 113v83l134 116v-89l-80 -71l80 -66v-86zM177 137l-135 113v85l135 117v-91l-78 -68l78 -67v-89z" />
    <glyph glyph-name="logicalnot" unicode="&#xac;" horiz-adv-x="724" 
d="M636 6h-89v255h-477v80h566v-335z" />
    <glyph glyph-name="uni00AD" unicode="&#xad;" horiz-adv-x="370" 
d="M325 262h-280v76h280v-76z" />
    <glyph glyph-name="registered" unicode="&#xae;" horiz-adv-x="840" 
d="M776 360c0 -103.333 -33.999 -189.667 -101.999 -259s-153 -104 -255 -104c-98.667 0 -182.5 34.667 -251.5 104s-103.5 153.333 -103.5 252c0 99.333 34.667 183.5 104 252.5s153.666 103.5 252.999 103.5c97.333 0 180.833 -34.333 250.5 -103
s104.5 -150.667 104.5 -246zM740.001 345.999c0 93.333 -30.667 171.5 -92 234.5s-137.333 94.5 -228 94.5c-88.667 0 -164 -31.5 -226 -94.5s-93 -139.167 -93 -228.5s31 -165.166 93 -227.499s137.333 -93.5 226 -93.5c86.667 0 161.667 31.167 225 93.5
s95 136.166 95 221.499zM281.001 577.999l130.001 0.000976562c55.333 0 95.666 -10.333 120.999 -31s38 -53.334 38 -98.001c0 -66.667 -32 -108.667 -96 -126l102 -195h-77l-95 189h-54v-189h-69v450zM351.002 517l-0.000976562 -139.001h57c32 0 55.333 5.5 70 16.5
s22 28.833 22 53.5s-7.66699 42.334 -23 53.001s-40.666 16 -75.999 16h-50z" />
    <glyph glyph-name="macron" unicode="&#xaf;" horiz-adv-x="271" 
d="M278 541h-285v68h285v-68z" />
    <glyph glyph-name="degree" unicode="&#xb0;" horiz-adv-x="354" 
d="M338 594c0 -44.667 -15.667 -82.834 -47 -114.501s-69.333 -47.5 -114 -47.5s-82.667 15.833 -114 47.5s-47 69.834 -47 114.501s15.667 82.667 47 114s69.333 47 114 47c45.333 0 83.5 -15.5 114.5 -46.5s46.5 -69.167 46.5 -114.5zM256 596
c0 22 -7.66699 40.667 -23 56s-34 23 -56 23s-40.667 -7.66699 -56 -23s-23 -34 -23 -56c0 -21.333 7.83301 -39.833 23.5 -55.5s34.167 -23.5 55.5 -23.5c22 0 40.667 7.66699 56 23s23 34 23 56z" />
    <glyph glyph-name="plusminus" unicode="&#xb1;" horiz-adv-x="724" 
d="M631 355h-225v-219h-88v219h-224v78h224v217h88v-217h225v-78zM630 0h-536v79h536v-79z" />
    <glyph glyph-name="twosuperior" unicode="&#xb2;" 
d="M341 233h-297v61l10 6c34 20.667 69.167 46.167 105.5 76.5s63.5 59.5 81.5 87.5c19.333 29.333 29 56.666 29 81.999c0 24.667 -8 44.167 -24 58.5s-36.333 21.5 -61 21.5c-26 0 -45.5 -8.16699 -58.5 -24.5s-19.5 -37.166 -19.5 -62.499c0 -10.667 2.66699 -28 8 -52
h-65c-4 17.333 -6 35 -6 53c0 44 13.5 78.833 40.5 104.5s62.5 38.5 106.5 38.5c41.333 0 75.833 -12.5 103.5 -37.5s41.5 -58.5 41.5 -100.5c0 -82 -68 -167.333 -204 -256h209v-56z" />
    <glyph glyph-name="threesuperior" unicode="&#xb3;" 
d="M21 376h66.999c0 -62.667 33.667 -94 101 -94c32.667 0 56.167 7.16699 70.5 21.5s21.5 32.5 21.5 54.5c0 47.333 -28.333 71 -85 71h-43v59h34c6.66699 0 13.334 0.5 20.001 1.5s15.334 3.33301 26.001 7s19.5 10.5 26.5 20.5s10.5 22.333 10.5 37
c0 23.333 -8.5 41.166 -25.5 53.499s-36.5 18.5 -58.5 18.5c-57.333 0 -86 -33 -86 -99v-5h-65v12c0 14 2 28.5 6 43.5s10.833 31 20.5 48s25.167 30.833 46.5 41.5s47 16 77 16c40.667 0 76.167 -11.167 106.5 -33.5s45.5 -54.5 45.5 -96.5c0 -46 -24 -76.333 -72 -91
c57.333 -11.333 86 -46.333 86 -105c0 -34.667 -12.833 -65.5 -38.5 -92.5s-65.5 -40.5 -119.5 -40.5c-32.667 0 -60.834 4.66699 -84.501 14s-41.5 21.833 -53.5 37.5s-20.667 31.834 -26 48.501s-8 34 -8 52z" />
    <glyph glyph-name="acute" unicode="&#xb4;" horiz-adv-x="271" 
d="M199 666l-86 -144h-41l41 144h86z" />
    <glyph glyph-name="mu" unicode="&#xb5;" horiz-adv-x="564" 
d="M86 470l79.998 0.000976562v-236c0 -68 7.33301 -112.667 22 -134c19.333 -29.333 48 -44 86 -44c45.333 0 78 22.667 98 68c11.333 25.333 17 68.666 17 129.999v216h80v-347c0 -26.667 2.33301 -44.667 7 -54s13.334 -14 26.001 -14c8 0 17.333 2.33301 28 7v-64
c-18.667 -4.66699 -33 -7 -43 -7c-27.333 0 -47.833 6.16699 -61.5 18.5s-22.5 32.833 -26.5 61.5c-15.333 -29.333 -32.5 -50.333 -51.5 -63s-43.833 -19 -74.5 -19c-45.333 0 -81.666 19.667 -108.999 59c2.66699 -156.667 4 -244.667 4 -264h-82v686z" />
    <glyph glyph-name="paragraph" unicode="&#xb6;" horiz-adv-x="642" 
d="M525 652l-33 0.000976562v-819h-57v819h-146v-819h-57v490c-48 5.33301 -86 24.666 -114 57.999s-42 76 -42 128c0 60 18.5 107.833 55.5 143.5s89.5 53.5 157.5 53.5h236v-54z" />
    <glyph glyph-name="periodcentered" unicode="&#xb7;" horiz-adv-x="200" 
d="M151 228h-102v124h102v-124z" />
    <glyph glyph-name="cedilla" unicode="&#xb8;" horiz-adv-x="271" 
d="M141 16l29 -6.99902l-29 -52l24 -13c12.667 -6.66699 22.167 -15.834 28.5 -27.501s9.5 -22.834 9.5 -33.501c0 -26.667 -12.167 -47.667 -36.5 -63s-52.833 -23 -85.5 -23h-5v23c2 -0.666992 5.33301 -1 10 -1c11.333 0 21.166 3.33301 29.499 10s12.5 15.667 12.5 27
c0 6 -1.16699 11.333 -3.5 16s-6.16602 8.66699 -11.499 12s-10 6 -14 8s-9.66699 4.33301 -17 7s-12 4.33398 -14 5.00098z" />
    <glyph glyph-name="onesuperior" unicode="&#xb9;" 
d="M233 233h-67v323h-86v45c30 2 53.333 8.16699 70 18.5s27.667 30.5 33 60.5h50v-447z" />
    <glyph glyph-name="ordmasculine" unicode="&#xba;" horiz-adv-x="333" 
d="M307 565c0 -43.333 -12.668 -78.834 -38.001 -106.501s-59.666 -41.5 -102.999 -41.5c-42 0 -75.833 13.833 -101.5 41.5s-38.5 61.834 -38.5 102.501c0 52 14.333 90.833 43 116.5s61.667 38.5 99 38.5c43.333 0 77.333 -14.833 102 -44.5s37 -65.167 37 -106.5z
M249.999 566.999c0 27.333 -6.83301 51.5 -20.5 72.5s-34.834 31.5 -63.501 31.5c-24 0 -43.833 -8.66699 -59.5 -26s-23.5 -44 -23.5 -80c0 -26.667 6.33301 -50.667 19 -72s34.334 -32 65.001 -32c24.667 0 44.667 8.5 60 25.5s23 43.833 23 80.5z" />
    <glyph glyph-name="guillemotright" unicode="&#xbb;" horiz-adv-x="396" 
d="M353 253l-135 -117v90l79 69l-79 66v89l135 -113v-84zM196 250l-134 -116v90l80 70l-80 67v85l134 -113v-83z" />
    <glyph glyph-name="onequarter" unicode="&#xbc;" horiz-adv-x="875" 
d="M853 109h-65v-109h-63v109h-203v58l214 283h53v-285h64v-56zM620 656l-317 -685l-55 26l318 685zM728 356l-139 -191h137zM233 233h-67v323h-86v45c30 2 53.333 8.16699 70 18.5s27.667 30.5 33 60.5h50v-447z" />
    <glyph glyph-name="onehalf" unicode="&#xbd;" horiz-adv-x="875" 
d="M841 0l-297.001 0.00195312v61l11 6c40.667 22 77.334 48.167 110.001 78.5s56.667 56.5 72 78.5c22 32 33 62 33 90c0 18 -6.33301 35.833 -19 53.5s-34 26.5 -64 26.5c-26 0 -45.833 -8.16699 -59.5 -24.5s-20.5 -37.5 -20.5 -63.5c0 -10.667 2.66699 -27.667 8 -51
h-65c-4 17.333 -6 34.666 -6 51.999c0 44 13.333 78.833 40 104.5s62.334 38.5 107.001 38.5c41.333 0 75.666 -12.333 102.999 -37s41 -58.334 41 -101.001c0 -82.667 -67.667 -167.667 -203 -255h209v-57zM595.999 656.002l-317 -685l-55 26l318 685zM232.999 233.002h-67
v323h-86v45c30 2 53.333 8.16699 70 18.5s27.667 30.5 33 60.5h50v-447z" />
    <glyph glyph-name="threequarters" unicode="&#xbe;" horiz-adv-x="875" 
d="M853 109h-65v-109h-63v109h-203v58l214 283h53v-285h64v-56zM663 656l-317 -685l-55 26l318 685zM728 356l-139 -191h137zM21 376h66.999c0 -62.667 33.667 -94 101 -94c32.667 0 56.167 7.16699 70.5 21.5s21.5 32.5 21.5 54.5c0 47.333 -28.333 71 -85 71h-43v59h34
c6.66699 0 13.334 0.5 20.001 1.5s15.334 3.33301 26.001 7s19.5 10.5 26.5 20.5s10.5 22.333 10.5 37c0 23.333 -8.5 41.166 -25.5 53.499s-36.5 18.5 -58.5 18.5c-57.333 0 -86 -33 -86 -99v-5h-65v12c0 14 2 28.5 6 43.5s10.833 31 20.5 48s25.167 30.833 46.5 41.5
s47 16 77 16c40.667 0 76.167 -11.167 106.5 -33.5s45.5 -54.5 45.5 -96.5c0 -46 -24 -76.333 -72 -91c57.333 -11.333 86 -46.333 86 -105c0 -34.667 -12.833 -65.5 -38.5 -92.5s-65.5 -40.5 -119.5 -40.5c-32.667 0 -60.834 4.66699 -84.501 14s-41.5 21.833 -53.5 37.5
s-20.667 31.834 -26 48.501s-8 34 -8 52z" />
    <glyph glyph-name="questiondown" unicode="&#xbf;" horiz-adv-x="562" 
d="M306 556l0.000976562 -235.996h-31c-46 0 -83.333 -10 -112 -30s-43 -50.333 -43 -91c0 -40 14.667 -71.667 44 -95s64.666 -35 105.999 -35c48.667 0 83.334 15.167 104.001 45.5s31 65.166 31 104.499v16h87v-18c0 -61.333 -20.333 -113.833 -61 -157.5
s-95.334 -65.5 -164.001 -65.5c-62.667 0 -116.667 20.167 -162 60.5s-68 92.166 -68 155.499c0 57.333 18 103.166 54 137.499s81.333 53.166 136 56.499v152h79zM222.001 706.004h89v-97h-89v97z" />
    <glyph glyph-name="Agrave" unicode="&#xc0;" horiz-adv-x="646" 
d="M634 0h-99l-77 216h-269l-79 -216h-100l269 706h98zM430 295l-103 295l-108 -295h211zM364 771h-59l-87 124h99z" />
    <glyph glyph-name="Aacute" unicode="&#xc1;" horiz-adv-x="646" 
d="M634 0h-99l-77 216h-269l-79 -216h-100l269 706h98zM430 295l-103 295l-108 -295h211zM427 895l-87 -124h-60l48 124h99z" />
    <glyph glyph-name="Acircumflex" unicode="&#xc2;" horiz-adv-x="646" 
d="M634 0h-99l-77 216h-269l-79 -216h-100l269 706h98zM430 295l-103 295l-108 -295h211zM461 771h-77l-62 74l-59 -74h-75l101 124h65z" />
    <glyph glyph-name="Atilde" unicode="&#xc3;" horiz-adv-x="646" 
d="M634 0h-99l-77 216h-269l-79 -216h-100l269 706h98zM430 295l-103 295l-108 -295h211zM417 882l46.999 -0.000976562c-9.33301 -67.333 -35.333 -101 -78 -101c-16 0 -38.333 5.83301 -67 17.5s-48 17.5 -58 17.5c-14.667 0 -24.667 -10 -30 -30h-48
c2.66699 22.667 7.5 41.334 14.5 56.001s15.333 24.834 25 30.501s17.5 9.16699 23.5 10.5s13 2 21 2c15.333 0 35.833 -5.5 61.5 -16.5s45.5 -16.5 59.5 -16.5c8.66699 0 14.834 2.16699 18.501 6.5s7.16699 12.166 10.5 23.499z" />
    <glyph glyph-name="Adieresis" unicode="&#xc4;" horiz-adv-x="646" 
d="M634 0h-99l-77 216h-269l-79 -216h-100l269 706h98zM430 295l-103 295l-108 -295h211zM468 781h-88v102h88v-102zM271 781h-87v102h87v-102z" />
    <glyph glyph-name="Aring" unicode="&#xc5;" horiz-adv-x="646" 
d="M634 0h-99l-77 216h-269l-79 -216h-100l269 706h98zM430 295l-103 295l-108 -295h211zM423 848c0 -26 -9.50098 -48.334 -28.501 -67.001s-41.5 -28 -67.5 -28c-26.667 0 -49.167 9.33301 -67.5 28s-27.5 41.334 -27.5 68.001c0 26 9.33301 48.167 28 66.5
s41.334 27.5 68.001 27.5c26 0 48.333 -9.16699 67 -27.5s28 -40.833 28 -67.5zM377.999 848.999c0 14 -5 25.833 -15 35.5s-22 14.5 -36 14.5s-25.833 -5 -35.5 -15s-14.5 -22 -14.5 -36s5 -25.833 15 -35.5s22 -14.5 36 -14.5c13.333 0 25 5 35 15s15 22 15 36z" />
    <glyph glyph-name="AE" unicode="&#xc6;" horiz-adv-x="1042" 
d="M1014 0h-500v232h-252l-154 -232h-110l483 706h521v-83h-395v-231h319v-79h-319v-231h407v-82zM514 313v302l-197 -302h197z" />
    <glyph glyph-name="Ccedilla" unicode="&#xc7;" horiz-adv-x="764" 
d="M640 268l101.993 -12.001c-14 -71.333 -51 -134.166 -111 -188.499s-130 -81.833 -210 -82.5l-16 -28c0.666992 -0.666992 4.33398 -2.66699 11.001 -6s12.334 -6.66602 17.001 -9.99902s9.83398 -7.66602 15.501 -12.999s10.167 -11.833 13.5 -19.5s5 -16.167 5 -25.5
c0 -25.333 -11.333 -46 -34 -62s-53.667 -24 -93 -24v23c1.33301 -0.666992 3.66602 -1 6.99902 -1c14.667 0 25.834 3.66699 33.501 11s11.5 15.666 11.5 24.999c0 12.667 -4.66699 22.167 -14 28.5s-24.666 13.166 -45.999 20.499l52 79
c-95.333 0.666992 -175 33.834 -239 99.501s-96 156.5 -96 272.5c0 110.667 32 199.834 96 267.501s151.333 101.5 262 101.5c90 0 161.333 -20.833 214 -62.5s88.334 -92.834 107.001 -153.501l-95 -20c-16 48 -43.167 86.833 -81.5 116.5s-86.833 44.5 -145.5 44.5
c-30.667 0 -60.167 -5 -88.5 -15s-55.166 -25.667 -80.499 -47s-45.666 -52 -60.999 -92s-23 -86.667 -23 -140c0 -36.667 4.66699 -71.834 14 -105.501s23.5 -65 42.5 -94s45.333 -52.167 79 -69.5s72.5 -26 116.5 -26c62 0 114 18.333 156 55s68.333 87.667 79 153z" />
    <glyph glyph-name="Egrave" unicode="&#xc8;" horiz-adv-x="604" 
d="M577 0h-498v706h486v-83h-396v-218h344v-82h-344v-241h408v-82zM354 771h-59l-87 124h99z" />
    <glyph glyph-name="Eacute" unicode="&#xc9;" horiz-adv-x="604" 
d="M577 0h-498v706h486v-83h-396v-218h344v-82h-344v-241h408v-82zM417 895l-87 -124h-60l48 124h99z" />
    <glyph glyph-name="Ecircumflex" unicode="&#xca;" horiz-adv-x="604" 
d="M577 0h-498v706h486v-83h-396v-218h344v-82h-344v-241h408v-82zM456 771h-77l-62 74l-59 -74h-75l101 124h65z" />
    <glyph glyph-name="Edieresis" unicode="&#xcb;" horiz-adv-x="604" 
d="M577 0h-498v706h486v-83h-396v-218h344v-82h-344v-241h408v-82zM460 781h-88v102h88v-102zM263 781h-87v102h87v-102z" />
    <glyph glyph-name="Igrave" unicode="&#xcc;" horiz-adv-x="229" 
d="M162 0h-95v706h95v-706zM156 771h-59l-87 124h99z" />
    <glyph glyph-name="Iacute" unicode="&#xcd;" horiz-adv-x="229" 
d="M162 0h-95v706h95v-706zM220 895l-87 -124h-60l48 124h99z" />
    <glyph glyph-name="Icircumflex" unicode="&#xce;" horiz-adv-x="229" 
d="M162 0h-95v706h95v-706zM253 771h-77l-62 74l-59 -74h-75l101 124h65z" />
    <glyph glyph-name="Idieresis" unicode="&#xcf;" horiz-adv-x="229" 
d="M162 0h-95v706h95v-706zM257 781h-88v102h88v-102zM60 781h-87v102h87v-102z" />
    <glyph glyph-name="Eth" unicode="&#xd0;" horiz-adv-x="708" 
d="M78 706l247.997 -0.00292969c58.667 0 103 -5 133 -15c61.333 -21.333 109.833 -60.666 145.5 -117.999s53.5 -133 53.5 -227c0 -11.333 -0.166992 -22.166 -0.5 -32.499s-2.16602 -26.166 -5.49902 -47.499s-7.66602 -40.833 -12.999 -58.5s-13.666 -37.5 -24.999 -59.5
s-24.833 -41.5 -40.5 -58.5s-36 -32.833 -61 -47.5s-52.833 -25.667 -83.5 -33c-28 -6 -63.667 -9 -107 -9h-244v341h-65v60h65v305zM174.997 622.997v-221.999h168v-60h-168v-259h125c60 0 104 5.66699 132 17c40.667 16.667 72.5 46.167 95.5 88.5
s34.5 96.166 34.5 161.499c0 148.667 -51 236.667 -153 264c-26 6.66699 -62 10 -108 10h-126z" />
    <glyph glyph-name="Ntilde" unicode="&#xd1;" horiz-adv-x="708" 
d="M630 0l-85 -0.00195312l-387 574c6 -373.333 9 -564.666 9 -573.999h-89v706h89l382 -566c-2.66699 362.667 -4 551.334 -4 566.001h85v-706zM448 881.998l46.999 -0.000976562c-9.33301 -67.333 -35.333 -101 -78 -101c-16 0 -38.333 5.83301 -67 17.5
s-48 17.5 -58 17.5c-14.667 0 -24.667 -10 -30 -30h-48c2.66699 22.667 7.5 41.334 14.5 56.001s15.333 24.834 25 30.501s17.5 9.16699 23.5 10.5s13 2 21 2c15.333 0 35.833 -5.5 61.5 -16.5s45.5 -16.5 59.5 -16.5c8.66699 0 14.834 2.16699 18.501 6.5
s7.16699 12.166 10.5 23.499z" />
    <glyph glyph-name="Ograve" unicode="&#xd2;" horiz-adv-x="812" 
d="M762 359c0 -36 -3.83496 -71.167 -11.502 -105.5s-20.5 -68.166 -38.5 -101.499s-40.5 -62.333 -67.5 -87s-61.167 -44.667 -102.5 -60s-87.333 -23 -138 -23c-46.667 0 -90.834 7.66699 -132.501 23s-79.167 37.833 -112.5 67.5s-59.666 68.667 -78.999 117
s-29 103.166 -29 164.499c0 62 10 117.333 30 166s46.833 87.5 80.5 116.5s71.334 50.833 113.001 65.5s85.834 22 132.501 22c106.667 0 192.5 -33.833 257.5 -101.5s97.5 -155.5 97.5 -263.5zM152.998 353c0 -91.333 22.833 -163.664 68.5 -216.997s108.167 -80 187.5 -80
c74 0 134.333 25.5 181 76.5s70 126.5 70 226.5c0 37.333 -4.5 72.333 -13.5 105s-22.833 63.167 -41.5 91.5s-45 50.833 -79 67.5s-73.667 25 -119 25c-44.667 0 -84 -8.33301 -118 -25s-60.5 -39.334 -79.5 -68.001s-33.167 -59.834 -42.5 -93.501
s-14 -69.834 -14 -108.501zM447.998 771.002h-59l-87 124h99z" />
    <glyph glyph-name="Oacute" unicode="&#xd3;" horiz-adv-x="812" 
d="M762 359c0 -36 -3.83496 -71.167 -11.502 -105.5s-20.5 -68.166 -38.5 -101.499s-40.5 -62.333 -67.5 -87s-61.167 -44.667 -102.5 -60s-87.333 -23 -138 -23c-46.667 0 -90.834 7.66699 -132.501 23s-79.167 37.833 -112.5 67.5s-59.666 68.667 -78.999 117
s-29 103.166 -29 164.499c0 62 10 117.333 30 166s46.833 87.5 80.5 116.5s71.334 50.833 113.001 65.5s85.834 22 132.501 22c106.667 0 192.5 -33.833 257.5 -101.5s97.5 -155.5 97.5 -263.5zM152.998 353c0 -91.333 22.833 -163.664 68.5 -216.997s108.167 -80 187.5 -80
c74 0 134.333 25.5 181 76.5s70 126.5 70 226.5c0 37.333 -4.5 72.333 -13.5 105s-22.833 63.167 -41.5 91.5s-45 50.833 -79 67.5s-73.667 25 -119 25c-44.667 0 -84 -8.33301 -118 -25s-60.5 -39.334 -79.5 -68.001s-33.167 -59.834 -42.5 -93.501
s-14 -69.834 -14 -108.501zM510.998 895.002l-87 -124h-60l48 124h99z" />
    <glyph glyph-name="Ocircumflex" unicode="&#xd4;" horiz-adv-x="812" 
d="M762 359c0 -36 -3.83496 -71.167 -11.502 -105.5s-20.5 -68.166 -38.5 -101.499s-40.5 -62.333 -67.5 -87s-61.167 -44.667 -102.5 -60s-87.333 -23 -138 -23c-46.667 0 -90.834 7.66699 -132.501 23s-79.167 37.833 -112.5 67.5s-59.666 68.667 -78.999 117
s-29 103.166 -29 164.499c0 62 10 117.333 30 166s46.833 87.5 80.5 116.5s71.334 50.833 113.001 65.5s85.834 22 132.501 22c106.667 0 192.5 -33.833 257.5 -101.5s97.5 -155.5 97.5 -263.5zM152.998 353c0 -91.333 22.833 -163.664 68.5 -216.997s108.167 -80 187.5 -80
c74 0 134.333 25.5 181 76.5s70 126.5 70 226.5c0 37.333 -4.5 72.333 -13.5 105s-22.833 63.167 -41.5 91.5s-45 50.833 -79 67.5s-73.667 25 -119 25c-44.667 0 -84 -8.33301 -118 -25s-60.5 -39.334 -79.5 -68.001s-33.167 -59.834 -42.5 -93.501
s-14 -69.834 -14 -108.501zM543.998 771.002h-77l-62 74l-59 -74h-75l101 124h65z" />
    <glyph glyph-name="Otilde" unicode="&#xd5;" horiz-adv-x="812" 
d="M762 359c0 -36 -3.83496 -71.167 -11.502 -105.5s-20.5 -68.166 -38.5 -101.499s-40.5 -62.333 -67.5 -87s-61.167 -44.667 -102.5 -60s-87.333 -23 -138 -23c-46.667 0 -90.834 7.66699 -132.501 23s-79.167 37.833 -112.5 67.5s-59.666 68.667 -78.999 117
s-29 103.166 -29 164.499c0 62 10 117.333 30 166s46.833 87.5 80.5 116.5s71.334 50.833 113.001 65.5s85.834 22 132.501 22c106.667 0 192.5 -33.833 257.5 -101.5s97.5 -155.5 97.5 -263.5zM152.998 353c0 -91.333 22.833 -163.664 68.5 -216.997s108.167 -80 187.5 -80
c74 0 134.333 25.5 181 76.5s70 126.5 70 226.5c0 37.333 -4.5 72.333 -13.5 105s-22.833 63.167 -41.5 91.5s-45 50.833 -79 67.5s-73.667 25 -119 25c-44.667 0 -84 -8.33301 -118 -25s-60.5 -39.334 -79.5 -68.001s-33.167 -59.834 -42.5 -93.501
s-14 -69.834 -14 -108.501zM499.998 882.002l46.999 -0.000976562c-9.33301 -67.333 -35.333 -101 -78 -101c-16 0 -38.333 5.83301 -67 17.5s-48 17.5 -58 17.5c-14.667 0 -24.667 -10 -30 -30h-48c2.66699 22.667 7.5 41.334 14.5 56.001s15.333 24.834 25 30.501
s17.5 9.16699 23.5 10.5s13 2 21 2c15.333 0 35.833 -5.5 61.5 -16.5s45.5 -16.5 59.5 -16.5c8.66699 0 14.834 2.16699 18.501 6.5s7.16699 12.166 10.5 23.499z" />
    <glyph glyph-name="Odieresis" unicode="&#xd6;" horiz-adv-x="812" 
d="M762 359c0 -36 -3.83496 -71.167 -11.502 -105.5s-20.5 -68.166 -38.5 -101.499s-40.5 -62.333 -67.5 -87s-61.167 -44.667 -102.5 -60s-87.333 -23 -138 -23c-46.667 0 -90.834 7.66699 -132.501 23s-79.167 37.833 -112.5 67.5s-59.666 68.667 -78.999 117
s-29 103.166 -29 164.499c0 62 10 117.333 30 166s46.833 87.5 80.5 116.5s71.334 50.833 113.001 65.5s85.834 22 132.501 22c106.667 0 192.5 -33.833 257.5 -101.5s97.5 -155.5 97.5 -263.5zM152.998 353c0 -91.333 22.833 -163.664 68.5 -216.997s108.167 -80 187.5 -80
c74 0 134.333 25.5 181 76.5s70 126.5 70 226.5c0 37.333 -4.5 72.333 -13.5 105s-22.833 63.167 -41.5 91.5s-45 50.833 -79 67.5s-73.667 25 -119 25c-44.667 0 -84 -8.33301 -118 -25s-60.5 -39.334 -79.5 -68.001s-33.167 -59.834 -42.5 -93.501
s-14 -69.834 -14 -108.501zM552.998 781.002h-88v102h88v-102zM355.998 781.002h-87v102h87v-102z" />
    <glyph glyph-name="multiply" unicode="&#xd7;" horiz-adv-x="724" 
d="M576 146l-61 -62l-163 159l-158 -160l-56 55l158 160l-164 161l62 62l163 -160l157 160l56 -55l-157 -160z" />
    <glyph glyph-name="Oslash" unicode="&#xd8;" horiz-adv-x="812" 
d="M715 699l47.998 -51l-70 -68c46.667 -68 70 -143 70 -225c0 -28 -3.33301 -57.333 -10 -88s-18.667 -63.334 -36 -98.001s-39 -65.5 -65 -92.5s-61 -49.5 -105 -67.5s-93.333 -27 -148 -27c-48 0 -90 7 -126 21s-73.333 36.667 -112 68l-65 -62l-49 50l69 66
c-44 76 -66 152 -66 228c0 42.667 6.5 84.667 19.5 126s32.833 80.833 59.5 118.5s63.834 68.167 111.501 91.5s102.167 35 163.5 35c53.333 0 96.833 -7.16699 130.5 -21.5s70.834 -37.166 111.501 -68.499zM185.998 193l394.001 378c-46.667 52 -106.334 78 -179.001 78
c-80.667 0 -142 -28.5 -184 -85.5s-63 -128.167 -63 -213.5c0 -54.667 10.667 -107 32 -157zM620.999 512l-397.001 -381c50.667 -50 111.334 -75 182.001 -75c44 0 83 8.83301 117 26.5s60.5 41 79.5 70s33.167 59.5 42.5 91.5s14 64.333 14 97c0 62 -12.667 119 -38 171z
" />
    <glyph glyph-name="Ugrave" unicode="&#xd9;" horiz-adv-x="688" 
d="M76 706l94.001 0.000976562v-467c0 -52.667 13.5 -95.334 40.5 -128.001s69.833 -49 128.5 -49c62 0 107 17.667 135 53s42 81 42 137v454h95v-473c0 -70 -23.333 -129.333 -70 -178s-114.334 -73 -203.001 -73c-84 0 -148.667 22.667 -194 68s-68 103 -68 173v483z
M385.001 771.001h-59l-87 124h99z" />
    <glyph glyph-name="Uacute" unicode="&#xda;" horiz-adv-x="688" 
d="M76 706l94.001 0.000976562v-467c0 -52.667 13.5 -95.334 40.5 -128.001s69.833 -49 128.5 -49c62 0 107 17.667 135 53s42 81 42 137v454h95v-473c0 -70 -23.333 -129.333 -70 -178s-114.334 -73 -203.001 -73c-84 0 -148.667 22.667 -194 68s-68 103 -68 173v483z
M449.001 895.001l-87 -124h-60l48 124h99z" />
    <glyph glyph-name="Ucircumflex" unicode="&#xdb;" horiz-adv-x="688" 
d="M76 706l94.001 0.000976562v-467c0 -52.667 13.5 -95.334 40.5 -128.001s69.833 -49 128.5 -49c62 0 107 17.667 135 53s42 81 42 137v454h95v-473c0 -70 -23.333 -129.333 -70 -178s-114.334 -73 -203.001 -73c-84 0 -148.667 22.667 -194 68s-68 103 -68 173v483z
M482.001 771.001h-77l-62 74l-59 -74h-75l101 124h65z" />
    <glyph glyph-name="Udieresis" unicode="&#xdc;" horiz-adv-x="688" 
d="M76 706l94.001 0.000976562v-467c0 -52.667 13.5 -95.334 40.5 -128.001s69.833 -49 128.5 -49c62 0 107 17.667 135 53s42 81 42 137v454h95v-473c0 -70 -23.333 -129.333 -70 -178s-114.334 -73 -203.001 -73c-84 0 -148.667 22.667 -194 68s-68 103 -68 173v483z
M485.001 781.001h-88v102h88v-102zM288.001 781.001h-87v102h87v-102z" />
    <glyph glyph-name="Yacute" unicode="&#xdd;" horiz-adv-x="625" 
d="M611 706l-254 -383v-323h-95v323l-248 383h111l186 -299l188 299h112zM417 895l-87 -124h-60l48 124h99z" />
    <glyph glyph-name="Thorn" unicode="&#xde;" horiz-adv-x="625" 
d="M76 706h90.999v-129h249c66.667 0 116.334 -20 149.001 -60s49 -87 49 -141c0 -56 -17.167 -104.333 -51.5 -145s-86.833 -61 -157.5 -61h-238v-170h-91v706zM166.999 495l-0.000976562 -241.999h221c24.667 0 46.334 3.33301 65.001 10s35 20.667 49 42
c12.667 19.333 19 43.666 19 72.999c0 78 -43.667 117 -131 117h-223z" />
    <glyph glyph-name="germandbls" unicode="&#xdf;" horiz-adv-x="542" 
d="M143 0l-79.002 -0.00292969v506c0 68.667 11 118.334 33 149.001c32.667 46 86.667 69 162 69c52.667 0 95.334 -11.667 128.001 -35c42 -30 63 -72 63 -126c0 -8.66699 -1 -18 -3 -28s-5.66699 -22.333 -11 -37s-14.5 -28.667 -27.5 -42s-29.167 -23.666 -48.5 -30.999
c22.667 -3.33301 42.834 -10 60.501 -20s31.5 -22 41.5 -36s17.5 -26.333 22.5 -37s8.83301 -21 11.5 -31c4.66699 -19.333 7 -42.333 7 -69c0 -104.667 -32.333 -175.667 -97 -213c-34.667 -20 -74.667 -30 -120 -30c-28 0 -59.333 5 -94 15v84c42 -14 75 -21 99 -21
c44.667 0 78.334 15.333 101.001 46c20 27.333 30 64.333 30 111c0 42.667 -11.333 77.334 -34 104.001c-18 20.667 -40.667 35 -68 43s-67.333 12 -120 12v79c9.33301 -1.33301 23 -2 41 -2c43.333 0 75.666 9.5 96.999 28.5s32 42.833 32 71.5s-10.333 50.834 -31 66.501
s-45.667 23.5 -75 23.5c-22 0 -41 -3 -57 -9s-28 -13.333 -36 -22s-14.167 -19.834 -18.5 -33.501s-7 -25.5 -8 -35.5s-1.5 -22.333 -1.5 -37v-513z" />
    <glyph glyph-name="agrave" unicode="&#xe0;" horiz-adv-x="500" 
d="M346 282l0.00292969 16c0 12.667 -0.333008 23 -1 31s-2.83398 18.667 -6.50098 32s-8.83398 24.166 -15.501 32.499s-17 15.666 -31 21.999s-31 9.5 -51 9.5c-32.667 0 -57.834 -8 -75.501 -24s-26.5 -38.667 -26.5 -68v-7l-83 5c0 7.33301 0.833008 15.833 2.5 25.5
s6.16699 22.5 13.5 38.5s17 30.333 29 43s29.833 23.834 53.5 33.501s51.167 14.5 82.5 14.5c47.333 0 86.666 -9.33301 117.999 -28c30.667 -17.333 50.167 -38.166 58.5 -62.499s12.5 -60.5 12.5 -108.5v-166c0 -12 0.5 -21.167 1.5 -27.5s4.33301 -12.5 10 -18.5
s13.834 -9 24.501 -9c4 0 12 1.33301 24 4v-67c-18 -6 -35 -9 -51 -9c-22 0 -38.667 4 -50 12c-8.66699 6.66699 -16 16 -22 28s-9.33301 22 -10 30c-47.333 -51.333 -101 -77 -161 -77c-47.333 0 -85.833 12.5 -115.5 37.5s-44.5 57.5 -44.5 97.5c0 42 17 76 51 102
c39.333 29.333 103 47 191 53zM347.003 230c-96.667 -15.333 -153.001 -26.667 -169.001 -34c-38.667 -15.333 -58 -39.333 -58 -72c0 -19.333 7.5 -35.833 22.5 -49.5s37.167 -20.5 66.5 -20.5c13.333 0 26.833 1.66699 40.5 5s28.334 9.5 44.001 18.5s28.5 23.5 38.5 43.5
s15 44 15 72v37zM280.002 520.999h-48l-83 144h89z" />
    <glyph glyph-name="aacute" unicode="&#xe1;" horiz-adv-x="500" 
d="M346 282l0.00292969 16c0 12.667 -0.333008 23 -1 31s-2.83398 18.667 -6.50098 32s-8.83398 24.166 -15.501 32.499s-17 15.666 -31 21.999s-31 9.5 -51 9.5c-32.667 0 -57.834 -8 -75.501 -24s-26.5 -38.667 -26.5 -68v-7l-83 5c0 7.33301 0.833008 15.833 2.5 25.5
s6.16699 22.5 13.5 38.5s17 30.333 29 43s29.833 23.834 53.5 33.501s51.167 14.5 82.5 14.5c47.333 0 86.666 -9.33301 117.999 -28c30.667 -17.333 50.167 -38.166 58.5 -62.499s12.5 -60.5 12.5 -108.5v-166c0 -12 0.5 -21.167 1.5 -27.5s4.33301 -12.5 10 -18.5
s13.834 -9 24.501 -9c4 0 12 1.33301 24 4v-67c-18 -6 -35 -9 -51 -9c-22 0 -38.667 4 -50 12c-8.66699 6.66699 -16 16 -22 28s-9.33301 22 -10 30c-47.333 -51.333 -101 -77 -161 -77c-47.333 0 -85.833 12.5 -115.5 37.5s-44.5 57.5 -44.5 97.5c0 42 17 76 51 102
c39.333 29.333 103 47 191 53zM347.003 230c-96.667 -15.333 -153.001 -26.667 -169.001 -34c-38.667 -15.333 -58 -39.333 -58 -72c0 -19.333 7.5 -35.833 22.5 -49.5s37.167 -20.5 66.5 -20.5c13.333 0 26.833 1.66699 40.5 5s28.334 9.5 44.001 18.5s28.5 23.5 38.5 43.5
s15 44 15 72v37zM344.002 665.999l-86 -144h-41l41 144h86z" />
    <glyph glyph-name="acircumflex" unicode="&#xe2;" horiz-adv-x="500" 
d="M346 282l0.00292969 16c0 12.667 -0.333008 23 -1 31s-2.83398 18.667 -6.50098 32s-8.83398 24.166 -15.501 32.499s-17 15.666 -31 21.999s-31 9.5 -51 9.5c-32.667 0 -57.834 -8 -75.501 -24s-26.5 -38.667 -26.5 -68v-7l-83 5c0 7.33301 0.833008 15.833 2.5 25.5
s6.16699 22.5 13.5 38.5s17 30.333 29 43s29.833 23.834 53.5 33.501s51.167 14.5 82.5 14.5c47.333 0 86.666 -9.33301 117.999 -28c30.667 -17.333 50.167 -38.166 58.5 -62.499s12.5 -60.5 12.5 -108.5v-166c0 -12 0.5 -21.167 1.5 -27.5s4.33301 -12.5 10 -18.5
s13.834 -9 24.501 -9c4 0 12 1.33301 24 4v-67c-18 -6 -35 -9 -51 -9c-22 0 -38.667 4 -50 12c-8.66699 6.66699 -16 16 -22 28s-9.33301 22 -10 30c-47.333 -51.333 -101 -77 -161 -77c-47.333 0 -85.833 12.5 -115.5 37.5s-44.5 57.5 -44.5 97.5c0 42 17 76 51 102
c39.333 29.333 103 47 191 53zM347.003 230c-96.667 -15.333 -153.001 -26.667 -169.001 -34c-38.667 -15.333 -58 -39.333 -58 -72c0 -19.333 7.5 -35.833 22.5 -49.5s37.167 -20.5 66.5 -20.5c13.333 0 26.833 1.66699 40.5 5s28.334 9.5 44.001 18.5s28.5 23.5 38.5 43.5
s15 44 15 72v37zM375.002 522.999h-75l-61 95l-59 -95h-70l94 151h67z" />
    <glyph glyph-name="atilde" unicode="&#xe3;" horiz-adv-x="500" 
d="M346 282l0.00292969 16c0 12.667 -0.333008 23 -1 31s-2.83398 18.667 -6.50098 32s-8.83398 24.166 -15.501 32.499s-17 15.666 -31 21.999s-31 9.5 -51 9.5c-32.667 0 -57.834 -8 -75.501 -24s-26.5 -38.667 -26.5 -68v-7l-83 5c0 7.33301 0.833008 15.833 2.5 25.5
s6.16699 22.5 13.5 38.5s17 30.333 29 43s29.833 23.834 53.5 33.501s51.167 14.5 82.5 14.5c47.333 0 86.666 -9.33301 117.999 -28c30.667 -17.333 50.167 -38.166 58.5 -62.499s12.5 -60.5 12.5 -108.5v-166c0 -12 0.5 -21.167 1.5 -27.5s4.33301 -12.5 10 -18.5
s13.834 -9 24.501 -9c4 0 12 1.33301 24 4v-67c-18 -6 -35 -9 -51 -9c-22 0 -38.667 4 -50 12c-8.66699 6.66699 -16 16 -22 28s-9.33301 22 -10 30c-47.333 -51.333 -101 -77 -161 -77c-47.333 0 -85.833 12.5 -115.5 37.5s-44.5 57.5 -44.5 97.5c0 42 17 76 51 102
c39.333 29.333 103 47 191 53zM347.003 230c-96.667 -15.333 -153.001 -26.667 -169.001 -34c-38.667 -15.333 -58 -39.333 -58 -72c0 -19.333 7.5 -35.833 22.5 -49.5s37.167 -20.5 66.5 -20.5c13.333 0 26.833 1.66699 40.5 5s28.334 9.5 44.001 18.5s28.5 23.5 38.5 43.5
s15 44 15 72v37zM339.002 634.999h50c-2 -18 -4.83301 -33.333 -8.5 -46s-11.5 -24.834 -23.5 -36.501s-27.333 -17.5 -46 -17.5c-14.667 0 -36.167 5.66699 -64.5 17s-47.166 17 -56.499 17c-10.667 0 -18.5 -3.66699 -23.5 -11s-7.5 -13.666 -7.5 -18.999h-49
c8 66 35.333 99 82 99c15.333 0 36.666 -5.5 63.999 -16.5s45.333 -16.5 54 -16.5c19.333 0 29 10 29 30z" />
    <glyph glyph-name="adieresis" unicode="&#xe4;" horiz-adv-x="500" 
d="M346 282l0.00292969 16c0 12.667 -0.333008 23 -1 31s-2.83398 18.667 -6.50098 32s-8.83398 24.166 -15.501 32.499s-17 15.666 -31 21.999s-31 9.5 -51 9.5c-32.667 0 -57.834 -8 -75.501 -24s-26.5 -38.667 -26.5 -68v-7l-83 5c0 7.33301 0.833008 15.833 2.5 25.5
s6.16699 22.5 13.5 38.5s17 30.333 29 43s29.833 23.834 53.5 33.501s51.167 14.5 82.5 14.5c47.333 0 86.666 -9.33301 117.999 -28c30.667 -17.333 50.167 -38.166 58.5 -62.499s12.5 -60.5 12.5 -108.5v-166c0 -12 0.5 -21.167 1.5 -27.5s4.33301 -12.5 10 -18.5
s13.834 -9 24.501 -9c4 0 12 1.33301 24 4v-67c-18 -6 -35 -9 -51 -9c-22 0 -38.667 4 -50 12c-8.66699 6.66699 -16 16 -22 28s-9.33301 22 -10 30c-47.333 -51.333 -101 -77 -161 -77c-47.333 0 -85.833 12.5 -115.5 37.5s-44.5 57.5 -44.5 97.5c0 42 17 76 51 102
c39.333 29.333 103 47 191 53zM347.003 230c-96.667 -15.333 -153.001 -26.667 -169.001 -34c-38.667 -15.333 -58 -39.333 -58 -72c0 -19.333 7.5 -35.833 22.5 -49.5s37.167 -20.5 66.5 -20.5c13.333 0 26.833 1.66699 40.5 5s28.334 9.5 44.001 18.5s28.5 23.5 38.5 43.5
s15 44 15 72v37zM390.002 540.999h-89v103h89v-103zM192.002 540.999h-87v103h87v-103z" />
    <glyph glyph-name="aring" unicode="&#xe5;" horiz-adv-x="500" 
d="M346 282l0.00292969 16c0 12.667 -0.333008 23 -1 31s-2.83398 18.667 -6.50098 32s-8.83398 24.166 -15.501 32.499s-17 15.666 -31 21.999s-31 9.5 -51 9.5c-32.667 0 -57.834 -8 -75.501 -24s-26.5 -38.667 -26.5 -68v-7l-83 5c0 7.33301 0.833008 15.833 2.5 25.5
s6.16699 22.5 13.5 38.5s17 30.333 29 43s29.833 23.834 53.5 33.501s51.167 14.5 82.5 14.5c47.333 0 86.666 -9.33301 117.999 -28c30.667 -17.333 50.167 -38.166 58.5 -62.499s12.5 -60.5 12.5 -108.5v-166c0 -12 0.5 -21.167 1.5 -27.5s4.33301 -12.5 10 -18.5
s13.834 -9 24.501 -9c4 0 12 1.33301 24 4v-67c-18 -6 -35 -9 -51 -9c-22 0 -38.667 4 -50 12c-8.66699 6.66699 -16 16 -22 28s-9.33301 22 -10 30c-47.333 -51.333 -101 -77 -161 -77c-47.333 0 -85.833 12.5 -115.5 37.5s-44.5 57.5 -44.5 97.5c0 42 17 76 51 102
c39.333 29.333 103 47 191 53zM347.003 230c-96.667 -15.333 -153.001 -26.667 -169.001 -34c-38.667 -15.333 -58 -39.333 -58 -72c0 -19.333 7.5 -35.833 22.5 -49.5s37.167 -20.5 66.5 -20.5c13.333 0 26.833 1.66699 40.5 5s28.334 9.5 44.001 18.5s28.5 23.5 38.5 43.5
s15 44 15 72v37zM341.002 607.999c0 -26.667 -9.16699 -49.167 -27.5 -67.5s-40.833 -27.5 -67.5 -27.5c-26 0 -48.167 9.33301 -66.5 28s-27.5 41 -27.5 67s9.16699 48.333 27.5 67s40.5 28 66.5 28c28 0 50.833 -9.83301 68.5 -29.5s26.5 -41.5 26.5 -65.5z
M298.002 608.999c0 14 -4.99902 26 -14.999 36s-22.333 15 -37 15s-26.834 -5 -36.501 -15s-14.5 -22 -14.5 -36s5 -26.167 15 -36.5s22 -15.5 36 -15.5c14.667 0 27 5.16699 37 15.5s15 22.5 15 36.5z" />
    <glyph glyph-name="ae" unicode="&#xe6;" horiz-adv-x="812" 
d="M779 214l-342.001 0.000976562c0 -48.667 11.333 -87.667 34 -117c24 -31.333 57.667 -47 101 -47c29.333 0 54.5 9.33301 75.5 28s34.167 42.667 39.5 72l84 -13c-9.33301 -36 -27.666 -67 -54.999 -93c-41.333 -39.333 -92.666 -59 -153.999 -59
c-80.667 0 -139.667 33 -177 99c-51.333 -66 -115 -99 -191 -99c-44.667 0 -82.667 11.667 -114 35s-47 56 -47 98c0 29.333 8.33301 55.5 25 78.5s38.667 40.5 66 52.5c36 15.333 89.333 23 160 23h73v19c0 36.667 -10.5 68.167 -31.5 94.5s-48.833 39.5 -83.5 39.5
c-26.667 0 -49.667 -8.16699 -69 -24.5s-30 -39.833 -32 -70.5l-84 6c3.33301 27.333 10 50 20 68c12 21.333 31.5 40.333 58.5 57s61.833 25 104.5 25c74 0 127 -28 159 -84c38.667 56 92.667 84 162 84c65.333 0 118.666 -25.333 159.999 -76
c38.667 -48.667 58 -112.334 58 -191.001v-5zM435.999 272.001l258 0.000976562c-2 41.333 -14 75 -36 101c-26 31.333 -58 47 -96 47c-41.333 0 -74.333 -18.667 -99 -56c-18 -26.667 -27 -57.334 -27 -92.001zM356.999 214.002l-63 -0.000976562
c-52 0 -94.667 -8 -128 -24s-50 -39 -50 -69c0 -18 7.83301 -34.667 23.5 -50s39.167 -23 70.5 -23c46 0 82 16.333 108 49s39 68.334 39 107.001v10z" />
    <glyph glyph-name="ccedilla" unicode="&#xe7;" horiz-adv-x="521" 
d="M408 178l85.9971 -8.00195c-23.333 -118.667 -90.333 -179.667 -201 -183l-18 -30c0.666992 -0.666992 4.33398 -2.5 11.001 -5.5s12.334 -6.16699 17.001 -9.5s10 -7.66602 16 -12.999s10.667 -12 14 -20s5 -16.667 5 -26c0 -25.333 -11.333 -46 -34 -62
s-53.667 -24 -93 -24v23c1.33301 -0.666992 3.66602 -1 6.99902 -1c14.667 0 25.834 3.66699 33.501 11s11.5 15.666 11.5 24.999c0 8 -2.5 15 -7.5 21s-9.66699 10.333 -14 13s-11.666 5.83398 -21.999 9.50098s-15.833 5.5 -16.5 5.5l52 82
c-67.333 2.66699 -120.166 26.667 -158.499 72s-57.5 103.333 -57.5 174c0 74 19.833 134.833 59.5 182.5s96.167 71.5 169.5 71.5c64.667 0 115.167 -16.167 151.5 -48.5s58.166 -68.833 65.499 -109.5l-88 -8c-6 34.667 -20.167 61.334 -42.5 80.001s-50.833 28 -85.5 28
c-40.667 0 -74.5 -15.167 -101.5 -45.5s-40.5 -78.833 -40.5 -145.5c0 -57.333 12.667 -103.333 38 -138s61.666 -52 108.999 -52c78.667 0 123.334 43.667 134.001 131z" />
    <glyph glyph-name="egrave" unicode="&#xe8;" horiz-adv-x="521" 
d="M125 221l-0.000976562 -5.99902c0 -43.333 12.667 -82.5 38 -117.5s63.666 -52.5 114.999 -52.5c36.667 0 64.834 11.167 84.501 33.5s32.834 47.833 39.501 76.5l81 -11c-35.333 -106 -106.333 -159 -213 -159c-64.667 0 -119.334 20.833 -164.001 62.5
s-67 105.834 -67 192.501c0 42.667 7.16699 80.5 21.5 113.5s33 58.667 56 77s47.333 32.166 73 41.499s51.5 14 77.5 14c58.667 0 109.334 -20.833 152.001 -62.5s64 -104.834 64 -189.501v-13h-358zM126.999 279.001h268.999c0 40 -12.667 74.167 -38 102.5
s-57.666 42.5 -96.999 42.5c-40 0 -71.333 -13.833 -94 -41.5s-36 -62.167 -40 -103.5zM302.998 521.001h-48l-83 144h89z" />
    <glyph glyph-name="eacute" unicode="&#xe9;" horiz-adv-x="521" 
d="M125 221l-0.000976562 -5.99902c0 -43.333 12.667 -82.5 38 -117.5s63.666 -52.5 114.999 -52.5c36.667 0 64.834 11.167 84.501 33.5s32.834 47.833 39.501 76.5l81 -11c-35.333 -106 -106.333 -159 -213 -159c-64.667 0 -119.334 20.833 -164.001 62.5
s-67 105.834 -67 192.501c0 42.667 7.16699 80.5 21.5 113.5s33 58.667 56 77s47.333 32.166 73 41.499s51.5 14 77.5 14c58.667 0 109.334 -20.833 152.001 -62.5s64 -104.834 64 -189.501v-13h-358zM126.999 279.001h268.999c0 40 -12.667 74.167 -38 102.5
s-57.666 42.5 -96.999 42.5c-40 0 -71.333 -13.833 -94 -41.5s-36 -62.167 -40 -103.5zM354.998 666.001l-86 -144h-41l41 144h86z" />
    <glyph glyph-name="ecircumflex" unicode="&#xea;" horiz-adv-x="521" 
d="M125 221l-0.000976562 -5.99902c0 -43.333 12.667 -82.5 38 -117.5s63.666 -52.5 114.999 -52.5c36.667 0 64.834 11.167 84.501 33.5s32.834 47.833 39.501 76.5l81 -11c-35.333 -106 -106.333 -159 -213 -159c-64.667 0 -119.334 20.833 -164.001 62.5
s-67 105.834 -67 192.501c0 42.667 7.16699 80.5 21.5 113.5s33 58.667 56 77s47.333 32.166 73 41.499s51.5 14 77.5 14c58.667 0 109.334 -20.833 152.001 -62.5s64 -104.834 64 -189.501v-13h-358zM126.999 279.001h268.999c0 40 -12.667 74.167 -38 102.5
s-57.666 42.5 -96.999 42.5c-40 0 -71.333 -13.833 -94 -41.5s-36 -62.167 -40 -103.5zM395.998 523.001h-75l-61 95l-59 -95h-70l94 151h67z" />
    <glyph glyph-name="edieresis" unicode="&#xeb;" horiz-adv-x="521" 
d="M125 221l-0.000976562 -5.99902c0 -43.333 12.667 -82.5 38 -117.5s63.666 -52.5 114.999 -52.5c36.667 0 64.834 11.167 84.501 33.5s32.834 47.833 39.501 76.5l81 -11c-35.333 -106 -106.333 -159 -213 -159c-64.667 0 -119.334 20.833 -164.001 62.5
s-67 105.834 -67 192.501c0 42.667 7.16699 80.5 21.5 113.5s33 58.667 56 77s47.333 32.166 73 41.499s51.5 14 77.5 14c58.667 0 109.334 -20.833 152.001 -62.5s64 -104.834 64 -189.501v-13h-358zM126.999 279.001h268.999c0 40 -12.667 74.167 -38 102.5
s-57.666 42.5 -96.999 42.5c-40 0 -71.333 -13.833 -94 -41.5s-36 -62.167 -40 -103.5zM414.998 541.001h-89v103h89v-103zM216.998 541.001h-87v103h87v-103z" />
    <glyph glyph-name="igrave" unicode="&#xec;" horiz-adv-x="208" 
d="M144 0h-77v471h77v-471zM147 521h-48l-83 144h89z" />
    <glyph glyph-name="iacute" unicode="&#xed;" horiz-adv-x="208" 
d="M144 0h-77v471h77v-471zM196 666l-86 -144h-41l41 144h86z" />
    <glyph glyph-name="icircumflex" unicode="&#xee;" horiz-adv-x="208" 
d="M144 0h-77v471h77v-471zM240 523h-75l-61 95l-59 -95h-70l94 151h67z" />
    <glyph glyph-name="idieresis" unicode="&#xef;" horiz-adv-x="208" 
d="M144 0h-77v471h77v-471zM248 541h-89v103h89v-103zM50 541h-87v103h87v-103z" />
    <glyph glyph-name="eth" unicode="&#xf0;" horiz-adv-x="542" 
d="M461 664l18.999 -47l-74 -24c64 -102 96 -217 96 -345c0 -30 -3.66699 -59 -11 -87s-19 -55.833 -35 -83.5s-40 -50 -72 -67s-70 -25.5 -114 -25.5c-40 0 -75 7.16699 -105 21.5s-52.667 31 -68 50s-27.666 41.333 -36.999 67s-15 46.834 -17 63.501s-3 32.667 -3 48
c0 45.333 7 85.166 21 119.499s32.667 60.5 56 78.5s47.5 31.333 72.5 40s50.833 13 77.5 13c52.667 0 97.334 -19 134.001 -57c-13.333 58.667 -33.333 106.334 -60 143.001l-178 -58l-18 45l165 55c-8.66699 11.333 -32.334 36.333 -71.001 75l62 29
c14 -12.667 39 -40.334 75 -83.001zM126.999 231c0 -50.667 11.833 -93.665 35.5 -128.998s60.167 -53 109.5 -53c42.667 0 77.334 15.667 104.001 47s40 80.333 40 147c0 61.333 -13 106.5 -39 135.5s-59.333 43.5 -100 43.5c-28.667 0 -53.334 -5.83301 -74.001 -17.5
s-36.167 -27.334 -46.5 -47.001s-17.833 -39.834 -22.5 -60.501s-7 -42.667 -7 -66z" />
    <glyph glyph-name="ntilde" unicode="&#xf1;" horiz-adv-x="521" 
d="M455 0h-79.0029v309c0 34 -10.333 59.5 -31 76.5s-46 25.5 -76 25.5c-34.667 0 -64.167 -11.833 -88.5 -35.5s-36.5 -55.834 -36.5 -96.501v-279h-80v471h80v-69c12.667 22 31.334 41.5 56.001 58.5s55.334 25.5 92.001 25.5c10.667 0 22.334 -1.16699 35.001 -3.5
s29.167 -8.66602 49.5 -18.999s36.833 -24.5 49.5 -42.5c19.333 -27.333 29 -68.333 29 -123v-298zM348.997 635h50c-2 -18 -4.83301 -33.333 -8.5 -46s-11.5 -24.834 -23.5 -36.501s-27.333 -17.5 -46 -17.5c-14.667 0 -36.167 5.66699 -64.5 17s-47.166 17 -56.499 17
c-10.667 0 -18.5 -3.66699 -23.5 -11s-7.5 -13.666 -7.5 -18.999h-49c8 66 35.333 99 82 99c15.333 0 36.666 -5.5 63.999 -16.5s45.333 -16.5 54 -16.5c19.333 0 29 10 29 30z" />
    <glyph glyph-name="ograve" unicode="&#xf2;" horiz-adv-x="542" 
d="M40 235c0 18 1.66699 36.4971 5 55.4971s10.166 40.667 20.499 65s23.833 45.833 40.5 64.5s39.834 34.334 69.501 47.001s63.834 19 102.501 19c60.667 0 113.167 -21.167 157.5 -63.5s66.5 -103.166 66.5 -182.499c0 -81.333 -21.833 -144.166 -65.5 -188.499
s-98.834 -66.5 -165.501 -66.5c-68 0 -123.5 22 -166.5 66s-64.5 105.333 -64.5 184zM127 230.997c0 -13.333 0.833008 -26.834 2.5 -40.501s5.5 -29.5 11.5 -47.5s14 -33.5 24 -46.5s24 -24.167 42 -33.5s39 -14 63 -14c47.333 0 83.5 17.333 108.5 52s37.5 83 37.5 145
c0 48 -11 89.333 -33 124s-57.333 52 -106 52c-28 0 -52.167 -6 -72.5 -18s-35.333 -25.333 -45 -40s-17.167 -32.5 -22.5 -53.5s-8.33301 -36.667 -9 -47s-1 -21.166 -1 -32.499zM306 520.996h-48l-83 144h89z" />
    <glyph glyph-name="oacute" unicode="&#xf3;" horiz-adv-x="542" 
d="M40 235c0 18 1.66699 36.4971 5 55.4971s10.166 40.667 20.499 65s23.833 45.833 40.5 64.5s39.834 34.334 69.501 47.001s63.834 19 102.501 19c60.667 0 113.167 -21.167 157.5 -63.5s66.5 -103.166 66.5 -182.499c0 -81.333 -21.833 -144.166 -65.5 -188.499
s-98.834 -66.5 -165.501 -66.5c-68 0 -123.5 22 -166.5 66s-64.5 105.333 -64.5 184zM127 230.997c0 -13.333 0.833008 -26.834 2.5 -40.501s5.5 -29.5 11.5 -47.5s14 -33.5 24 -46.5s24 -24.167 42 -33.5s39 -14 63 -14c47.333 0 83.5 17.333 108.5 52s37.5 83 37.5 145
c0 48 -11 89.333 -33 124s-57.333 52 -106 52c-28 0 -52.167 -6 -72.5 -18s-35.333 -25.333 -45 -40s-17.167 -32.5 -22.5 -53.5s-8.33301 -36.667 -9 -47s-1 -21.166 -1 -32.499zM370 665.996l-86 -144h-41l41 144h86z" />
    <glyph glyph-name="ocircumflex" unicode="&#xf4;" horiz-adv-x="542" 
d="M40 235c0 18 1.66699 36.4971 5 55.4971s10.166 40.667 20.499 65s23.833 45.833 40.5 64.5s39.834 34.334 69.501 47.001s63.834 19 102.501 19c60.667 0 113.167 -21.167 157.5 -63.5s66.5 -103.166 66.5 -182.499c0 -81.333 -21.833 -144.166 -65.5 -188.499
s-98.834 -66.5 -165.501 -66.5c-68 0 -123.5 22 -166.5 66s-64.5 105.333 -64.5 184zM127 230.997c0 -13.333 0.833008 -26.834 2.5 -40.501s5.5 -29.5 11.5 -47.5s14 -33.5 24 -46.5s24 -24.167 42 -33.5s39 -14 63 -14c47.333 0 83.5 17.333 108.5 52s37.5 83 37.5 145
c0 48 -11 89.333 -33 124s-57.333 52 -106 52c-28 0 -52.167 -6 -72.5 -18s-35.333 -25.333 -45 -40s-17.167 -32.5 -22.5 -53.5s-8.33301 -36.667 -9 -47s-1 -21.166 -1 -32.499zM407 522.996h-75l-61 95l-59 -95h-70l94 151h67z" />
    <glyph glyph-name="otilde" unicode="&#xf5;" horiz-adv-x="542" 
d="M40 235c0 18 1.66699 36.4971 5 55.4971s10.166 40.667 20.499 65s23.833 45.833 40.5 64.5s39.834 34.334 69.501 47.001s63.834 19 102.501 19c60.667 0 113.167 -21.167 157.5 -63.5s66.5 -103.166 66.5 -182.499c0 -81.333 -21.833 -144.166 -65.5 -188.499
s-98.834 -66.5 -165.501 -66.5c-68 0 -123.5 22 -166.5 66s-64.5 105.333 -64.5 184zM127 230.997c0 -13.333 0.833008 -26.834 2.5 -40.501s5.5 -29.5 11.5 -47.5s14 -33.5 24 -46.5s24 -24.167 42 -33.5s39 -14 63 -14c47.333 0 83.5 17.333 108.5 52s37.5 83 37.5 145
c0 48 -11 89.333 -33 124s-57.333 52 -106 52c-28 0 -52.167 -6 -72.5 -18s-35.333 -25.333 -45 -40s-17.167 -32.5 -22.5 -53.5s-8.33301 -36.667 -9 -47s-1 -21.166 -1 -32.499zM361 634.996h50c-2 -18 -4.83301 -33.333 -8.5 -46s-11.5 -24.834 -23.5 -36.501
s-27.333 -17.5 -46 -17.5c-14.667 0 -36.167 5.66699 -64.5 17s-47.166 17 -56.499 17c-10.667 0 -18.5 -3.66699 -23.5 -11s-7.5 -13.666 -7.5 -18.999h-49c8 66 35.333 99 82 99c15.333 0 36.666 -5.5 63.999 -16.5s45.333 -16.5 54 -16.5c19.333 0 29 10 29 30z" />
    <glyph glyph-name="odieresis" unicode="&#xf6;" horiz-adv-x="542" 
d="M40 235c0 18 1.66699 36.4971 5 55.4971s10.166 40.667 20.499 65s23.833 45.833 40.5 64.5s39.834 34.334 69.501 47.001s63.834 19 102.501 19c60.667 0 113.167 -21.167 157.5 -63.5s66.5 -103.166 66.5 -182.499c0 -81.333 -21.833 -144.166 -65.5 -188.499
s-98.834 -66.5 -165.501 -66.5c-68 0 -123.5 22 -166.5 66s-64.5 105.333 -64.5 184zM127 230.997c0 -13.333 0.833008 -26.834 2.5 -40.501s5.5 -29.5 11.5 -47.5s14 -33.5 24 -46.5s24 -24.167 42 -33.5s39 -14 63 -14c47.333 0 83.5 17.333 108.5 52s37.5 83 37.5 145
c0 48 -11 89.333 -33 124s-57.333 52 -106 52c-28 0 -52.167 -6 -72.5 -18s-35.333 -25.333 -45 -40s-17.167 -32.5 -22.5 -53.5s-8.33301 -36.667 -9 -47s-1 -21.166 -1 -32.499zM418 540.996h-89v103h89v-103zM220 540.996h-87v103h87v-103z" />
    <glyph glyph-name="divide" unicode="&#xf7;" horiz-adv-x="724" 
d="M407 409h-89v110h89v-110zM645 260h-566v81h566v-81zM407 82h-89v110h89v-110z" />
    <glyph glyph-name="oslash" unicode="&#xf8;" horiz-adv-x="542" 
d="M471 468l35 -35.999l-46 -46c28.667 -44.667 43 -95.334 43 -152.001c0 -34 -5 -65.667 -15 -95c-5.33301 -15.333 -12.5 -30.333 -21.5 -45s-21.833 -31 -38.5 -49s-38.667 -32.5 -66 -43.5s-58 -16.5 -92 -16.5c-64 0 -116.333 21.333 -157 64l-40 -40l-35 36l43 42
c-26.667 43.333 -40 92 -40 146c0 40 6.66699 76.333 20 109c18 44 46 79 84 105s80.667 39 128 39c56.667 0 108 -20.333 154 -61zM142 148.001l231 224.001c-31.333 33.333 -66 50 -104 50c-40 0 -74 -16.333 -102 -49s-42 -76.334 -42 -131.001
c0 -34 5.66699 -65.333 17 -94zM401 328.002l-232 -225c24 -36 58.667 -54 104 -54c42 0 77.167 16 105.5 48s42.5 76.333 42.5 133c0 39.333 -6.66699 72 -20 98z" />
    <glyph glyph-name="ugrave" unicode="&#xf9;" horiz-adv-x="521" 
d="M454 0l-79 -0.000976562v72c-17.333 -26 -40.5 -46.5 -69.5 -61.5s-59.167 -22.5 -90.5 -22.5c-58.667 0 -100.667 20.667 -126 62c-16 26.667 -24 66 -24 118v303h79v-268c0 -48 3.66699 -79.667 11 -95c15.333 -30 44 -45 86 -45c50 0 87.333 18 112 54
c15.333 22.667 23 60.334 23 113.001v241h78v-471zM295 520.999h-48l-83 144h89z" />
    <glyph glyph-name="uacute" unicode="&#xfa;" horiz-adv-x="521" 
d="M454 0l-79 -0.000976562v72c-17.333 -26 -40.5 -46.5 -69.5 -61.5s-59.167 -22.5 -90.5 -22.5c-58.667 0 -100.667 20.667 -126 62c-16 26.667 -24 66 -24 118v303h79v-268c0 -48 3.66699 -79.667 11 -95c15.333 -30 44 -45 86 -45c50 0 87.333 18 112 54
c15.333 22.667 23 60.334 23 113.001v241h78v-471zM360 665.999l-86 -144h-41l41 144h86z" />
    <glyph glyph-name="ucircumflex" unicode="&#xfb;" horiz-adv-x="521" 
d="M454 0l-79 -0.000976562v72c-17.333 -26 -40.5 -46.5 -69.5 -61.5s-59.167 -22.5 -90.5 -22.5c-58.667 0 -100.667 20.667 -126 62c-16 26.667 -24 66 -24 118v303h79v-268c0 -48 3.66699 -79.667 11 -95c15.333 -30 44 -45 86 -45c50 0 87.333 18 112 54
c15.333 22.667 23 60.334 23 113.001v241h78v-471zM396 522.999h-75l-61 95l-59 -95h-70l94 151h67z" />
    <glyph glyph-name="udieresis" unicode="&#xfc;" horiz-adv-x="521" 
d="M454 0l-79 -0.000976562v72c-17.333 -26 -40.5 -46.5 -69.5 -61.5s-59.167 -22.5 -90.5 -22.5c-58.667 0 -100.667 20.667 -126 62c-16 26.667 -24 66 -24 118v303h79v-268c0 -48 3.66699 -79.667 11 -95c15.333 -30 44 -45 86 -45c50 0 87.333 18 112 54
c15.333 22.667 23 60.334 23 113.001v241h78v-471zM401 540.999h-89v103h89v-103zM203 540.999h-87v103h87v-103z" />
    <glyph glyph-name="yacute" unicode="&#xfd;" horiz-adv-x="437" 
d="M342 471l83.001 0.000976562l-198 -557c-20 -56.667 -39.667 -95.334 -59 -116.001s-48.666 -31 -87.999 -31c-23.333 0 -47 3.33301 -71 10v72c16 -5.33301 33.667 -8 53 -8c23.333 0 41.166 6.5 53.499 19.5s25.166 39.167 38.499 78.5l20 58l-160 474h85l118 -374z
M323.001 666.001l-86 -144h-41l41 144h86z" />
    <glyph glyph-name="thorn" unicode="&#xfe;" horiz-adv-x="562" 
d="M65 706l78 0.000976562v-303c46.667 55.333 103 83 169 83c22.667 0 45.5 -4.5 68.5 -13.5s45.5 -22.667 67.5 -41s40 -44.333 54 -78s21 -72.5 21 -116.5c0 -70.667 -18.833 -130.334 -56.5 -179.001s-92.167 -73 -163.5 -73c-70 0 -123.333 23.333 -160 70v-279h-78
v930zM143 225.001c0 -48 12.5 -88.334 37.5 -121.001s62.167 -49 111.5 -49c47.333 0 84 15.833 110 47.5s39 76.167 39 133.5c0 48 -12 89.167 -36 123.5s-60.333 51.5 -109 51.5c-44 0 -80.5 -15.667 -109.5 -47s-43.5 -77.666 -43.5 -138.999z" />
    <glyph glyph-name="ydieresis" unicode="&#xff;" horiz-adv-x="437" 
d="M342 471l83.001 0.000976562l-198 -557c-20 -56.667 -39.667 -95.334 -59 -116.001s-48.666 -31 -87.999 -31c-23.333 0 -47 3.33301 -71 10v72c16 -5.33301 33.667 -8 53 -8c23.333 0 41.166 6.5 53.499 19.5s25.166 39.167 38.499 78.5l20 58l-160 474h85l118 -374z
M363.001 541.001h-89v103h89v-103zM165.001 541.001h-87v103h87v-103z" />
    <glyph glyph-name="Amacron" unicode="&#x100;" horiz-adv-x="646" 
d="M634 0h-99l-77 216h-269l-79 -216h-100l269 706h98zM430 295l-103 295l-108 -295h211zM471 781h-285v68h285v-68z" />
    <glyph glyph-name="amacron" unicode="&#x101;" horiz-adv-x="500" 
d="M346 282l0.00292969 16c0 12.667 -0.333008 23 -1 31s-2.83398 18.667 -6.50098 32s-8.83398 24.166 -15.501 32.499s-17 15.666 -31 21.999s-31 9.5 -51 9.5c-32.667 0 -57.834 -8 -75.501 -24s-26.5 -38.667 -26.5 -68v-7l-83 5c0 7.33301 0.833008 15.833 2.5 25.5
s6.16699 22.5 13.5 38.5s17 30.333 29 43s29.833 23.834 53.5 33.501s51.167 14.5 82.5 14.5c47.333 0 86.666 -9.33301 117.999 -28c30.667 -17.333 50.167 -38.166 58.5 -62.499s12.5 -60.5 12.5 -108.5v-166c0 -12 0.5 -21.167 1.5 -27.5s4.33301 -12.5 10 -18.5
s13.834 -9 24.501 -9c4 0 12 1.33301 24 4v-67c-18 -6 -35 -9 -51 -9c-22 0 -38.667 4 -50 12c-8.66699 6.66699 -16 16 -22 28s-9.33301 22 -10 30c-47.333 -51.333 -101 -77 -161 -77c-47.333 0 -85.833 12.5 -115.5 37.5s-44.5 57.5 -44.5 97.5c0 42 17 76 51 102
c39.333 29.333 103 47 191 53zM347.003 230c-96.667 -15.333 -153.001 -26.667 -169.001 -34c-38.667 -15.333 -58 -39.333 -58 -72c0 -19.333 7.5 -35.833 22.5 -49.5s37.167 -20.5 66.5 -20.5c13.333 0 26.833 1.66699 40.5 5s28.334 9.5 44.001 18.5s28.5 23.5 38.5 43.5
s15 44 15 72v37zM392.002 540.999h-285v68h285v-68z" />
    <glyph glyph-name="Abreve" unicode="&#x102;" horiz-adv-x="646" 
d="M634 0h-99l-77 216h-269l-79 -216h-100l269 706h98zM430 295l-103 295l-108 -295h211zM408 880h52.002c0 -26.667 -13.167 -51.5 -39.5 -74.5s-57.166 -34.5 -92.499 -34.5c-32.667 0 -62.667 10.167 -90 30.5s-41.333 46.5 -42 78.5h50
c5.33301 -15.333 15.666 -26.833 30.999 -34.5s32.666 -11.5 51.999 -11.5c20.667 0 38.167 4.66699 52.5 14s23.166 20 26.499 32z" />
    <glyph glyph-name="abreve" unicode="&#x103;" horiz-adv-x="500" 
d="M346 282l0.00292969 16c0 12.667 -0.333008 23 -1 31s-2.83398 18.667 -6.50098 32s-8.83398 24.166 -15.501 32.499s-17 15.666 -31 21.999s-31 9.5 -51 9.5c-32.667 0 -57.834 -8 -75.501 -24s-26.5 -38.667 -26.5 -68v-7l-83 5c0 7.33301 0.833008 15.833 2.5 25.5
s6.16699 22.5 13.5 38.5s17 30.333 29 43s29.833 23.834 53.5 33.501s51.167 14.5 82.5 14.5c47.333 0 86.666 -9.33301 117.999 -28c30.667 -17.333 50.167 -38.166 58.5 -62.499s12.5 -60.5 12.5 -108.5v-166c0 -12 0.5 -21.167 1.5 -27.5s4.33301 -12.5 10 -18.5
s13.834 -9 24.501 -9c4 0 12 1.33301 24 4v-67c-18 -6 -35 -9 -51 -9c-22 0 -38.667 4 -50 12c-8.66699 6.66699 -16 16 -22 28s-9.33301 22 -10 30c-47.333 -51.333 -101 -77 -161 -77c-47.333 0 -85.833 12.5 -115.5 37.5s-44.5 57.5 -44.5 97.5c0 42 17 76 51 102
c39.333 29.333 103 47 191 53zM347.003 230c-96.667 -15.333 -153.001 -26.667 -169.001 -34c-38.667 -15.333 -58 -39.333 -58 -72c0 -19.333 7.5 -35.833 22.5 -49.5s37.167 -20.5 66.5 -20.5c13.333 0 26.833 1.66699 40.5 5s28.334 9.5 44.001 18.5s28.5 23.5 38.5 43.5
s15 44 15 72v37zM128.002 653.999h50.001c5.33301 -19.333 15.166 -34.666 29.499 -45.999s30.5 -17 48.5 -17c17.333 0 33 6 47 18s23 27.333 27 46h52c0 -27.333 -11.667 -55.833 -35 -85.5s-54.333 -44.5 -93 -44.5c-36 0 -66 12.667 -90 38s-36 55.666 -36 90.999z" />
    <glyph glyph-name="Aogonek" unicode="&#x104;" horiz-adv-x="646" 
d="M634 0h-17c-16.667 -6.66699 -31.667 -17 -45 -31s-20 -28.667 -20 -44c0 -25.333 20.333 -38 61 -38h12v-74h-9c-49.333 0 -86.5 4.66699 -111.5 14s-37.5 29 -37.5 59c0 22.667 5.16699 41.667 15.5 57s27.833 34.333 52.5 57l-77 216h-269l-79 -216h-100l269 706h98z
M430 295l-103 295l-108 -295h211z" />
    <glyph glyph-name="aogonek" unicode="&#x105;" horiz-adv-x="500" 
d="M486 70l0.00292969 -66.999c-18 -6 -36 -9 -54 -9c-14 -6.66699 -26.667 -16.167 -38 -28.5s-17 -25.833 -17 -40.5c0 -25.333 20.333 -38 61 -38h12v-74h-9c-49.333 0 -86.5 4.66699 -111.5 14s-37.5 29 -37.5 59c0 23.333 5.83301 43 17.5 59s34.167 39 67.5 69
c-14.667 16 -22.667 32.667 -24 50c-47.333 -51.333 -101 -77 -161 -77c-47.333 0 -85.833 12.5 -115.5 37.5s-44.5 57.5 -44.5 97.5c0 42 17 76 51 102c39.333 29.333 103 47 191 53l72 5v16c0 12.667 -0.333008 23 -1 31s-2.83398 18.667 -6.50098 32
s-8.83398 24.166 -15.501 32.499s-17 15.666 -31 21.999s-31 9.5 -51 9.5c-32.667 0 -57.834 -8 -75.501 -24s-26.5 -38.667 -26.5 -68v-7l-83 5c0 7.33301 0.833008 15.833 2.5 25.5s6.16699 22.5 13.5 38.5s17 30.333 29 43s29.833 23.834 53.5 33.501
s51.167 14.5 82.5 14.5c47.333 0 86.666 -9.33301 117.999 -28c30.667 -17.333 50.167 -38 58.5 -62s12.5 -60.333 12.5 -109v-166c0 -12 0.5 -21.167 1.5 -27.5s4.33301 -12.5 10 -18.5s13.834 -9 24.501 -9c4 0 12 1.33301 24 4zM347.003 193.001l-0.000976562 36.999
c-96.667 -15.333 -153 -26.666 -169 -33.999c-38.667 -15.333 -58 -39.333 -58 -72c0 -19.333 7.5 -35.833 22.5 -49.5s37.167 -20.5 66.5 -20.5c13.333 0 26.833 1.66699 40.5 5s28.334 9.5 44.001 18.5s28.5 23.5 38.5 43.5s15 44 15 72z" />
    <glyph glyph-name="Cacute" unicode="&#x106;" horiz-adv-x="764" 
d="M640 268l101.996 -12.001c-6.66699 -31.333 -18 -62 -34 -92s-37.5 -59.167 -64.5 -87.5s-62.167 -51.166 -105.5 -68.499s-91.333 -26 -144 -26c-105.333 0 -189.166 34 -251.499 102s-93.5 157.667 -93.5 269s31.833 201 95.5 269s150.834 102 261.501 102
c82.667 0 151 -18.667 205 -56s93 -90.666 117 -159.999l-95 -19c-14 44.667 -40.167 82.5 -78.5 113.5s-88.166 46.5 -149.499 46.5c-79.333 0 -141.166 -26.5 -185.499 -79.5s-66.5 -123.5 -66.5 -211.5c0 -96.667 23.5 -170.334 70.5 -221.001s107.833 -76 182.5 -76
c58.667 0 109.667 17.5 153 52.5s70.333 86.5 81 154.5zM491.996 894.999l-87 -124h-60l48 124h99z" />
    <glyph glyph-name="cacute" unicode="&#x107;" horiz-adv-x="521" 
d="M408 178l86.001 -8.00098c-23.333 -123.333 -97.333 -185 -222 -185c-72.667 0 -129.667 22.833 -171 68.5s-62 105.167 -62 178.5c0 74 19.833 134.833 59.5 182.5s96.167 71.5 169.5 71.5c64.667 0 115.167 -16.167 151.5 -48.5s58.166 -68.833 65.499 -109.5l-88 -8
c-6 34.667 -20.167 61.334 -42.5 80.001s-50.833 28 -85.5 28c-40.667 0 -74.5 -15.167 -101.5 -45.5s-40.5 -78.833 -40.5 -145.5c0 -57.333 12.667 -103.333 38 -138s61.666 -52 108.999 -52c78.667 0 123.334 43.667 134.001 131zM349.001 665.999l-86 -144h-41l41 144
h86z" />
    <glyph glyph-name="Ccircumflex" unicode="&#x108;" horiz-adv-x="764" 
d="M640 268l101.996 -12.001c-6.66699 -31.333 -18 -62 -34 -92s-37.5 -59.167 -64.5 -87.5s-62.167 -51.166 -105.5 -68.499s-91.333 -26 -144 -26c-105.333 0 -189.166 34 -251.499 102s-93.5 157.667 -93.5 269s31.833 201 95.5 269s150.834 102 261.501 102
c82.667 0 151 -18.667 205 -56s93 -90.666 117 -159.999l-95 -19c-14 44.667 -40.167 82.5 -78.5 113.5s-88.166 46.5 -149.499 46.5c-79.333 0 -141.166 -26.5 -185.499 -79.5s-66.5 -123.5 -66.5 -211.5c0 -96.667 23.5 -170.334 70.5 -221.001s107.833 -76 182.5 -76
c58.667 0 109.667 17.5 153 52.5s70.333 86.5 81 154.5zM537.996 770.999h-77l-62 74l-59 -74h-75l101 124h65z" />
    <glyph glyph-name="ccircumflex" unicode="&#x109;" horiz-adv-x="521" 
d="M408 178l86.001 -8.00098c-23.333 -123.333 -97.333 -185 -222 -185c-72.667 0 -129.667 22.833 -171 68.5s-62 105.167 -62 178.5c0 74 19.833 134.833 59.5 182.5s96.167 71.5 169.5 71.5c64.667 0 115.167 -16.167 151.5 -48.5s58.166 -68.833 65.499 -109.5l-88 -8
c-6 34.667 -20.167 61.334 -42.5 80.001s-50.833 28 -85.5 28c-40.667 0 -74.5 -15.167 -101.5 -45.5s-40.5 -78.833 -40.5 -145.5c0 -57.333 12.667 -103.333 38 -138s61.666 -52 108.999 -52c78.667 0 123.334 43.667 134.001 131zM403.001 522.999h-75l-61 95l-59 -95
h-70l94 151h67z" />
    <glyph glyph-name="Cdotaccent" unicode="&#x10a;" horiz-adv-x="764" 
d="M640 268l101.996 -12.001c-6.66699 -31.333 -18 -62 -34 -92s-37.5 -59.167 -64.5 -87.5s-62.167 -51.166 -105.5 -68.499s-91.333 -26 -144 -26c-105.333 0 -189.166 34 -251.499 102s-93.5 157.667 -93.5 269s31.833 201 95.5 269s150.834 102 261.501 102
c82.667 0 151 -18.667 205 -56s93 -90.666 117 -159.999l-95 -19c-14 44.667 -40.167 82.5 -78.5 113.5s-88.166 46.5 -149.499 46.5c-79.333 0 -141.166 -26.5 -185.499 -79.5s-66.5 -123.5 -66.5 -211.5c0 -96.667 23.5 -170.334 70.5 -221.001s107.833 -76 182.5 -76
c58.667 0 109.667 17.5 153 52.5s70.333 86.5 81 154.5zM446.996 780.999h-87v99h87v-99z" />
    <glyph glyph-name="cdotaccent" unicode="&#x10b;" horiz-adv-x="521" 
d="M408 178l86.001 -8.00098c-23.333 -123.333 -97.333 -185 -222 -185c-72.667 0 -129.667 22.833 -171 68.5s-62 105.167 -62 178.5c0 74 19.833 134.833 59.5 182.5s96.167 71.5 169.5 71.5c64.667 0 115.167 -16.167 151.5 -48.5s58.166 -68.833 65.499 -109.5l-88 -8
c-6 34.667 -20.167 61.334 -42.5 80.001s-50.833 28 -85.5 28c-40.667 0 -74.5 -15.167 -101.5 -45.5s-40.5 -78.833 -40.5 -145.5c0 -57.333 12.667 -103.333 38 -138s61.666 -52 108.999 -52c78.667 0 123.334 43.667 134.001 131zM319.001 540.999h-87v99h87v-99z" />
    <glyph glyph-name="Ccaron" unicode="&#x10c;" horiz-adv-x="764" 
d="M640 268l101.996 -12.001c-6.66699 -31.333 -18 -62 -34 -92s-37.5 -59.167 -64.5 -87.5s-62.167 -51.166 -105.5 -68.499s-91.333 -26 -144 -26c-105.333 0 -189.166 34 -251.499 102s-93.5 157.667 -93.5 269s31.833 201 95.5 269s150.834 102 261.501 102
c82.667 0 151 -18.667 205 -56s93 -90.666 117 -159.999l-95 -19c-14 44.667 -40.167 82.5 -78.5 113.5s-88.166 46.5 -149.499 46.5c-79.333 0 -141.166 -26.5 -185.499 -79.5s-66.5 -123.5 -66.5 -211.5c0 -96.667 23.5 -170.334 70.5 -221.001s107.833 -76 182.5 -76
c58.667 0 109.667 17.5 153 52.5s70.333 86.5 81 154.5zM529.996 894.999l-101 -124h-66l-105 124h76l62 -77l59 77h75z" />
    <glyph glyph-name="ccaron" unicode="&#x10d;" horiz-adv-x="521" 
d="M408 178l86.001 -8.00098c-23.333 -123.333 -97.333 -185 -222 -185c-72.667 0 -129.667 22.833 -171 68.5s-62 105.167 -62 178.5c0 74 19.833 134.833 59.5 182.5s96.167 71.5 169.5 71.5c64.667 0 115.167 -16.167 151.5 -48.5s58.166 -68.833 65.499 -109.5l-88 -8
c-6 34.667 -20.167 61.334 -42.5 80.001s-50.833 28 -85.5 28c-40.667 0 -74.5 -15.167 -101.5 -45.5s-40.5 -78.833 -40.5 -145.5c0 -57.333 12.667 -103.333 38 -138s61.666 -52 108.999 -52c78.667 0 123.334 43.667 134.001 131zM398.001 672.999l-96 -151h-67l-102 151
h74l61 -96l59 96h71z" />
    <glyph glyph-name="Dcaron" unicode="&#x10e;" horiz-adv-x="708" 
d="M78 706l280 -0.000976562c88.667 0 160.834 -30.667 216.501 -92s83.5 -148.666 83.5 -261.999c0 -47.333 -5.33301 -90.666 -16 -129.999s-27.834 -76.333 -51.501 -111s-57.5 -61.834 -101.5 -81.501s-96.667 -29.5 -158 -29.5h-253v706zM175 622.999v-540.999h167
c72 0 126.667 23.833 164 71.5s56 114.167 56 199.5c0 81.333 -18.5 146.666 -55.5 195.999s-93.5 74 -169.5 74h-162zM438 895l-101 -124h-66l-105 124h76l62 -77l59 77h75z" />
    <glyph glyph-name="dcaron" unicode="&#x10f;" horiz-adv-x="562" 
d="M497 0l-79.9971 -0.00195312v60c-42.667 -50 -96.334 -75 -161.001 -75c-67.333 0 -120.333 23.333 -159 70s-58 107.334 -58 182.001c0 43.333 6.66699 81.833 20 115.5s30.833 59.834 52.5 78.501s44.667 32.5 69 41.5s49.166 13.5 74.499 13.5
c38 0 71.667 -8.33301 101 -25s49.666 -34 60.999 -52v297h80v-706zM125.003 233.998c0 -48.667 11.499 -90.499 34.499 -125.499s60.5 -52.5 112.5 -52.5c40.667 0 75.334 14.5 104.001 43.5s43 76.5 43 142.5c0 49.333 -13.167 90.166 -39.5 122.499
s-61.5 48.5 -105.5 48.5c-50 0 -87.333 -17.333 -112 -52s-37 -77 -37 -127zM532.002 705.999h74.999v-38c0 -32.667 -2.16699 -58.834 -6.5 -78.501s-12.166 -45.167 -23.499 -76.5h-36c13.333 34.667 21.333 71.334 24 110.001h-33v83z" />
    <glyph glyph-name="Dcroat" unicode="&#x110;" horiz-adv-x="708" 
d="M78 706l247.997 -0.00292969c58.667 0 103 -5 133 -15c61.333 -21.333 109.833 -60.666 145.5 -117.999s53.5 -133 53.5 -227c0 -11.333 -0.166992 -22.166 -0.5 -32.499s-2.16602 -26.166 -5.49902 -47.499s-7.66602 -40.833 -12.999 -58.5s-13.666 -37.5 -24.999 -59.5
s-24.833 -41.5 -40.5 -58.5s-36 -32.833 -61 -47.5s-52.833 -25.667 -83.5 -33c-28 -6 -63.667 -9 -107 -9h-244v341h-65v60h65v305zM174.997 622.997v-221.999h168v-60h-168v-259h125c60 0 104 5.66699 132 17c40.667 16.667 72.5 46.167 95.5 88.5
s34.5 96.166 34.5 161.499c0 148.667 -51 236.667 -153 264c-26 6.66699 -62 10 -108 10h-126z" />
    <glyph glyph-name="dcroat" unicode="&#x111;" horiz-adv-x="562" 
d="M497 0l-79.9971 -0.00195312v60c-42.667 -50 -96.334 -75 -161.001 -75c-67.333 0 -120.333 23.333 -159 70s-58 107.334 -58 182.001c0 43.333 6.66699 81.833 20 115.5s30.833 59.834 52.5 78.501s44.667 32.5 69 41.5s49.166 13.5 74.499 13.5
c38 0 71.667 -8.33301 101 -25s49.666 -34 60.999 -52v153h-156v59h156v85h80v-85h65v-59h-65v-562zM125.003 233.998c0 -48.667 11.499 -90.499 34.499 -125.499s60.5 -52.5 112.5 -52.5c40.667 0 75.334 14.5 104.001 43.5s43 76.5 43 142.5
c0 49.333 -13.167 90.166 -39.5 122.499s-61.5 48.5 -105.5 48.5c-50 0 -87.333 -17.333 -112 -52s-37 -77 -37 -127z" />
    <glyph glyph-name="Emacron" unicode="&#x112;" horiz-adv-x="604" 
d="M577 0h-498v706h486v-83h-396v-218h344v-82h-344v-241h408v-82zM465 781h-285v68h285v-68z" />
    <glyph glyph-name="emacron" unicode="&#x113;" horiz-adv-x="521" 
d="M125 221l-0.000976562 -5.99902c0 -43.333 12.667 -82.5 38 -117.5s63.666 -52.5 114.999 -52.5c36.667 0 64.834 11.167 84.501 33.5s32.834 47.833 39.501 76.5l81 -11c-35.333 -106 -106.333 -159 -213 -159c-64.667 0 -119.334 20.833 -164.001 62.5
s-67 105.834 -67 192.501c0 42.667 7.16699 80.5 21.5 113.5s33 58.667 56 77s47.333 32.166 73 41.499s51.5 14 77.5 14c58.667 0 109.334 -20.833 152.001 -62.5s64 -104.834 64 -189.501v-13h-358zM126.999 279.001h268.999c0 40 -12.667 74.167 -38 102.5
s-57.666 42.5 -96.999 42.5c-40 0 -71.333 -13.833 -94 -41.5s-36 -62.167 -40 -103.5zM403.998 541.001h-285v68h285v-68z" />
    <glyph glyph-name="Ebreve" unicode="&#x114;" horiz-adv-x="604" 
d="M577 0h-498v706h486v-83h-396v-218h344v-82h-344v-241h408v-82zM401 880h51.999c0 -26.667 -13.167 -51.5 -39.5 -74.5s-57.166 -34.5 -92.499 -34.5c-32.667 0 -62.667 10.167 -90 30.5s-41.333 46.5 -42 78.5h50c5.33301 -15.333 15.833 -26.833 31.5 -34.5
s32.834 -11.5 51.501 -11.5c20.667 0 38.167 4.66699 52.5 14s23.166 20 26.499 32z" />
    <glyph glyph-name="ebreve" unicode="&#x115;" horiz-adv-x="521" 
d="M125 221l-0.000976562 -5.99902c0 -43.333 12.667 -82.5 38 -117.5s63.666 -52.5 114.999 -52.5c36.667 0 64.834 11.167 84.501 33.5s32.834 47.833 39.501 76.5l81 -11c-35.333 -106 -106.333 -159 -213 -159c-64.667 0 -119.334 20.833 -164.001 62.5
s-67 105.834 -67 192.501c0 42.667 7.16699 80.5 21.5 113.5s33 58.667 56 77s47.333 32.166 73 41.499s51.5 14 77.5 14c58.667 0 109.334 -20.833 152.001 -62.5s64 -104.834 64 -189.501v-13h-358zM126.999 279.001h268.999c0 40 -12.667 74.167 -38 102.5
s-57.666 42.5 -96.999 42.5c-40 0 -71.333 -13.833 -94 -41.5s-36 -62.167 -40 -103.5zM136.998 654.001h50.001c5.33301 -19.333 15.166 -34.666 29.499 -45.999s30.5 -17 48.5 -17c17.333 0 33 6 47 18s23 27.333 27 46h52c0 -27.333 -11.667 -55.833 -35 -85.5
s-54.333 -44.5 -93 -44.5c-36 0 -66 12.667 -90 38s-36 55.666 -36 90.999z" />
    <glyph glyph-name="Edotaccent" unicode="&#x116;" horiz-adv-x="604" 
d="M577 0h-498v706h486v-83h-396v-218h344v-82h-344v-241h408v-82zM371 781h-87v99h87v-99z" />
    <glyph glyph-name="edotaccent" unicode="&#x117;" horiz-adv-x="521" 
d="M125 221l-0.000976562 -5.99902c0 -43.333 12.667 -82.5 38 -117.5s63.666 -52.5 114.999 -52.5c36.667 0 64.834 11.167 84.501 33.5s32.834 47.833 39.501 76.5l81 -11c-35.333 -106 -106.333 -159 -213 -159c-64.667 0 -119.334 20.833 -164.001 62.5
s-67 105.834 -67 192.501c0 42.667 7.16699 80.5 21.5 113.5s33 58.667 56 77s47.333 32.166 73 41.499s51.5 14 77.5 14c58.667 0 109.334 -20.833 152.001 -62.5s64 -104.834 64 -189.501v-13h-358zM126.999 279.001h268.999c0 40 -12.667 74.167 -38 102.5
s-57.666 42.5 -96.999 42.5c-40 0 -71.333 -13.833 -94 -41.5s-36 -62.167 -40 -103.5zM302.998 541.001h-87v99h87v-99z" />
    <glyph glyph-name="Eogonek" unicode="&#x118;" horiz-adv-x="604" 
d="M577 0l-29 -0.000976562c-18 -8 -33.333 -18.667 -46 -32s-19 -27.666 -19 -42.999c0 -25.333 20.333 -38 61 -38h12v-74h-9c-49.333 0 -86.5 4.66699 -111.5 14s-37.5 29 -37.5 59c0 22.667 5.16699 41.667 15.5 57s27.833 34.333 52.5 57h-387v706h486v-83h-396v-218
h344v-82h-344v-241h408v-82z" />
    <glyph glyph-name="eogonek" unicode="&#x119;" horiz-adv-x="521" 
d="M483 221l-358.003 0.000976562v-6c0 -43.333 12.667 -82.5 38 -117.5s63.666 -52.5 114.999 -52.5c36.667 0 64.834 11.167 84.501 33.5s32.834 47.833 39.501 76.5l81 -11c-21.333 -60.667 -54.333 -104.334 -99 -131.001c-54.667 -32 -82 -61.333 -82 -88
c0 -25.333 20.333 -38 61 -38h12v-74h-9c-49.333 0 -86.5 4.66699 -111.5 14s-37.5 29 -37.5 59c0 20 4.33301 37.333 13 52s22 30.334 40 47.001c-65.333 0 -120.166 20.833 -164.499 62.5s-66.5 105.834 -66.5 192.501c0 42.667 7.16699 80.5 21.5 113.5s33 58.667 56 77
s47.333 32.166 73 41.499s51.5 14 77.5 14c58.667 0 109.334 -20.833 152.001 -62.5s64 -104.834 64 -189.501v-13zM126.997 279.001h268.999c0 40 -12.667 74.167 -38 102.5s-57.666 42.5 -96.999 42.5c-40 0 -71.333 -13.833 -94 -41.5s-36 -62.167 -40 -103.5z" />
    <glyph glyph-name="Ecaron" unicode="&#x11a;" horiz-adv-x="604" 
d="M577 0h-498v706h486v-83h-396v-218h344v-82h-344v-241h408v-82zM460 895l-101 -124h-66l-105 124h76l62 -77l59 77h75z" />
    <glyph glyph-name="ecaron" unicode="&#x11b;" horiz-adv-x="521" 
d="M125 221l-0.000976562 -5.99902c0 -43.333 12.667 -82.5 38 -117.5s63.666 -52.5 114.999 -52.5c36.667 0 64.834 11.167 84.501 33.5s32.834 47.833 39.501 76.5l81 -11c-35.333 -106 -106.333 -159 -213 -159c-64.667 0 -119.334 20.833 -164.001 62.5
s-67 105.834 -67 192.501c0 42.667 7.16699 80.5 21.5 113.5s33 58.667 56 77s47.333 32.166 73 41.499s51.5 14 77.5 14c58.667 0 109.334 -20.833 152.001 -62.5s64 -104.834 64 -189.501v-13h-358zM126.999 279.001h268.999c0 40 -12.667 74.167 -38 102.5
s-57.666 42.5 -96.999 42.5c-40 0 -71.333 -13.833 -94 -41.5s-36 -62.167 -40 -103.5zM391.998 673.001l-96 -151h-67l-102 151h74l61 -96l59 96h71z" />
    <glyph glyph-name="Gcircumflex" unicode="&#x11c;" horiz-adv-x="812" 
d="M741 0l-81.9971 0.00195312v99c-17.333 -29.333 -48 -56.166 -92 -80.499s-99.333 -36.5 -166 -36.5c-104.667 0 -189.334 33.667 -254.001 101s-97 154.333 -97 261c0 116.667 34.333 209.167 103 277.5s155.667 102.5 261 102.5c30.667 0 60.5 -3.33301 89.5 -10
s58.5 -17.334 88.5 -32.001s58 -35.834 84 -63.501s47.667 -60.834 65 -99.501l-98 -25c-14.667 48 -42 85.333 -82 112s-88 40 -144 40c-44 0 -83.167 -8.33301 -117.5 -25s-61.833 -38.834 -82.5 -66.501s-36.334 -58.5 -47.001 -92.5s-16 -69.667 -16 -107
c0 -95.333 25.167 -167.666 75.5 -216.999s112.166 -74 185.499 -74c68 0 125.667 19.833 173 59.5s71 93.167 71 160.5v10h-246v79h328v-373zM555.003 771.002h-77l-62 74l-59 -74h-75l101 124h65z" />
    <glyph glyph-name="gcircumflex" unicode="&#x11d;" horiz-adv-x="562" 
d="M497 471l0.00292969 -479.999c0 -42 -6 -77.833 -18 -107.5s-28.833 -52.334 -50.5 -68.001s-44.834 -27 -69.501 -34s-52 -10.5 -82 -10.5c-58 0 -106.833 14.833 -146.5 44.5s-62.167 73.167 -67.5 130.5h90c0 -36 11.833 -63.333 35.5 -82s55.167 -28 94.5 -28
c48 0 81.833 11.833 101.5 35.5s29.5 59.167 29.5 106.5v91c-40.667 -56 -92.334 -84 -155.001 -84c-62 0 -113.833 22.167 -155.5 66.5s-62.5 104.833 -62.5 181.5c0 30 3.66699 58.833 11 86.5s18.833 54.5 34.5 80.5s38.5 46.833 68.5 62.5s65 23.5 105 23.5
c57.333 0 108.666 -26.333 153.999 -79v64h83zM417.003 242.001c0 53.333 -13.667 95.333 -41 126s-63 46 -107 46c-42.667 0 -77.667 -15.667 -105 -47s-41 -75.333 -41 -132c0 -52.667 12.5 -95.5 37.5 -128.5s62.167 -49.5 111.5 -49.5c48.667 0 85 17.167 109 51.5
s36 78.833 36 133.5zM394.003 523.001h-75l-61 95l-59 -95h-70l94 151h67z" />
    <glyph glyph-name="Gbreve" unicode="&#x11e;" horiz-adv-x="812" 
d="M741 0l-81.9971 0.00195312v99c-17.333 -29.333 -48 -56.166 -92 -80.499s-99.333 -36.5 -166 -36.5c-104.667 0 -189.334 33.667 -254.001 101s-97 154.333 -97 261c0 116.667 34.333 209.167 103 277.5s155.667 102.5 261 102.5c30.667 0 60.5 -3.33301 89.5 -10
s58.5 -17.334 88.5 -32.001s58 -35.834 84 -63.501s47.667 -60.834 65 -99.501l-98 -25c-14.667 48 -42 85.333 -82 112s-88 40 -144 40c-44 0 -83.167 -8.33301 -117.5 -25s-61.833 -38.834 -82.5 -66.501s-36.334 -58.5 -47.001 -92.5s-16 -69.667 -16 -107
c0 -95.333 25.167 -167.666 75.5 -216.999s112.166 -74 185.499 -74c68 0 125.667 19.833 173 59.5s71 93.167 71 160.5v10h-246v79h328v-373zM486.003 880.002h52.002c0 -26.667 -13.167 -51.5 -39.5 -74.5s-57.166 -34.5 -92.499 -34.5c-32.667 0 -62.667 10.167 -90 30.5
s-41.333 46.5 -42 78.5h50c5.33301 -15.333 15.666 -26.833 30.999 -34.5s32.666 -11.5 51.999 -11.5c20.667 0 38.167 4.66699 52.5 14s23.166 20 26.499 32z" />
    <glyph glyph-name="gbreve" unicode="&#x11f;" horiz-adv-x="562" 
d="M497 471l0.00292969 -479.999c0 -42 -6 -77.833 -18 -107.5s-28.833 -52.334 -50.5 -68.001s-44.834 -27 -69.501 -34s-52 -10.5 -82 -10.5c-58 0 -106.833 14.833 -146.5 44.5s-62.167 73.167 -67.5 130.5h90c0 -36 11.833 -63.333 35.5 -82s55.167 -28 94.5 -28
c48 0 81.833 11.833 101.5 35.5s29.5 59.167 29.5 106.5v91c-40.667 -56 -92.334 -84 -155.001 -84c-62 0 -113.833 22.167 -155.5 66.5s-62.5 104.833 -62.5 181.5c0 30 3.66699 58.833 11 86.5s18.833 54.5 34.5 80.5s38.5 46.833 68.5 62.5s65 23.5 105 23.5
c57.333 0 108.666 -26.333 153.999 -79v64h83zM417.003 242.001c0 53.333 -13.667 95.333 -41 126s-63 46 -107 46c-42.667 0 -77.667 -15.667 -105 -47s-41 -75.333 -41 -132c0 -52.667 12.5 -95.5 37.5 -128.5s62.167 -49.5 111.5 -49.5c48.667 0 85 17.167 109 51.5
s36 78.833 36 133.5zM134.003 654.001h50.001c5.33301 -19.333 15.166 -34.666 29.499 -45.999s30.5 -17 48.5 -17c17.333 0 33 6 47 18s23 27.333 27 46h52c0 -27.333 -11.667 -55.833 -35 -85.5s-54.333 -44.5 -93 -44.5c-36 0 -66 12.667 -90 38s-36 55.666 -36 90.999z
" />
    <glyph glyph-name="Gdotaccent" unicode="&#x120;" horiz-adv-x="812" 
d="M741 0l-81.9971 0.00195312v99c-17.333 -29.333 -48 -56.166 -92 -80.499s-99.333 -36.5 -166 -36.5c-104.667 0 -189.334 33.667 -254.001 101s-97 154.333 -97 261c0 116.667 34.333 209.167 103 277.5s155.667 102.5 261 102.5c30.667 0 60.5 -3.33301 89.5 -10
s58.5 -17.334 88.5 -32.001s58 -35.834 84 -63.501s47.667 -60.834 65 -99.501l-98 -25c-14.667 48 -42 85.333 -82 112s-88 40 -144 40c-44 0 -83.167 -8.33301 -117.5 -25s-61.833 -38.834 -82.5 -66.501s-36.334 -58.5 -47.001 -92.5s-16 -69.667 -16 -107
c0 -95.333 25.167 -167.666 75.5 -216.999s112.166 -74 185.499 -74c68 0 125.667 19.833 173 59.5s71 93.167 71 160.5v10h-246v79h328v-373zM449.003 781.002h-87v99h87v-99z" />
    <glyph glyph-name="gdotaccent" unicode="&#x121;" horiz-adv-x="562" 
d="M497 471l0.00292969 -479.999c0 -42 -6 -77.833 -18 -107.5s-28.833 -52.334 -50.5 -68.001s-44.834 -27 -69.501 -34s-52 -10.5 -82 -10.5c-58 0 -106.833 14.833 -146.5 44.5s-62.167 73.167 -67.5 130.5h90c0 -36 11.833 -63.333 35.5 -82s55.167 -28 94.5 -28
c48 0 81.833 11.833 101.5 35.5s29.5 59.167 29.5 106.5v91c-40.667 -56 -92.334 -84 -155.001 -84c-62 0 -113.833 22.167 -155.5 66.5s-62.5 104.833 -62.5 181.5c0 30 3.66699 58.833 11 86.5s18.833 54.5 34.5 80.5s38.5 46.833 68.5 62.5s65 23.5 105 23.5
c57.333 0 108.666 -26.333 153.999 -79v64h83zM417.003 242.001c0 53.333 -13.667 95.333 -41 126s-63 46 -107 46c-42.667 0 -77.667 -15.667 -105 -47s-41 -75.333 -41 -132c0 -52.667 12.5 -95.5 37.5 -128.5s62.167 -49.5 111.5 -49.5c48.667 0 85 17.167 109 51.5
s36 78.833 36 133.5zM306.003 541.001h-87v99h87v-99z" />
    <glyph glyph-name="Gcommaaccent" unicode="&#x122;" horiz-adv-x="812" 
d="M741 0l-81.9971 0.00195312v99c-17.333 -29.333 -48 -56.166 -92 -80.499s-99.333 -36.5 -166 -36.5c-104.667 0 -189.334 33.667 -254.001 101s-97 154.333 -97 261c0 116.667 34.333 209.167 103 277.5s155.667 102.5 261 102.5c30.667 0 60.5 -3.33301 89.5 -10
s58.5 -17.334 88.5 -32.001s58 -35.834 84 -63.501s47.667 -60.834 65 -99.501l-98 -25c-14.667 48 -42 85.333 -82 112s-88 40 -144 40c-44 0 -83.167 -8.33301 -117.5 -25s-61.833 -38.834 -82.5 -66.501s-36.334 -58.5 -47.001 -92.5s-16 -69.667 -16 -107
c0 -95.333 25.167 -167.666 75.5 -216.999s112.166 -74 185.499 -74c68 0 125.667 19.833 173 59.5s71 93.167 71 160.5v10h-246v79h328v-373zM369.003 -37.998h80v-31c0 -39.333 -9.66699 -77 -29 -113h-39c11.333 22 18 45 20 69h-32v75z" />
    <glyph glyph-name="gcommaaccent" unicode="&#x123;" horiz-adv-x="562" 
d="M497 471l0.00292969 -479.999c0 -42 -6 -77.833 -18 -107.5s-28.833 -52.334 -50.5 -68.001s-44.834 -27 -69.501 -34s-52 -10.5 -82 -10.5c-58 0 -106.833 14.833 -146.5 44.5s-62.167 73.167 -67.5 130.5h90c0 -36 11.833 -63.333 35.5 -82s55.167 -28 94.5 -28
c48 0 81.833 11.833 101.5 35.5s29.5 59.167 29.5 106.5v91c-40.667 -56 -92.334 -84 -155.001 -84c-62 0 -113.833 22.167 -155.5 66.5s-62.5 104.833 -62.5 181.5c0 30 3.66699 58.833 11 86.5s18.833 54.5 34.5 80.5s38.5 46.833 68.5 62.5s65 23.5 105 23.5
c57.333 0 108.666 -26.333 153.999 -79v64h83zM417.003 242.001c0 53.333 -13.667 95.333 -41 126s-63 46 -107 46c-42.667 0 -77.667 -15.667 -105 -47s-41 -75.333 -41 -132c0 -52.667 12.5 -95.5 37.5 -128.5s62.167 -49.5 111.5 -49.5c48.667 0 85 17.167 109 51.5
s36 78.833 36 133.5zM309.003 522.001h-80v31c0 39.333 9.66699 77 29 113h39c-11.333 -22 -18 -45 -20 -69h32v-75z" />
    <glyph glyph-name="Hcircumflex" unicode="&#x124;" horiz-adv-x="729" 
d="M651 0h-95v323h-384v-323h-93v706h93v-300h384v300h95v-706zM501 771h-77l-62 74l-59 -74h-75l101 124h65z" />
    <glyph glyph-name="hcircumflex" unicode="&#x125;" horiz-adv-x="521" 
d="M458 0h-81v276c0 34.667 -3 60.667 -9 78c-14.667 41.333 -46.334 62 -95.001 62c-46.667 0 -81.667 -19.667 -105 -59c-14.667 -25.333 -22 -66.333 -22 -123v-234h-80v706h80v-283c38.667 42 86.334 63 143.001 63c112.667 0 169 -60.333 169 -181v-305zM239 771h-77
l-62 74l-59 -74h-75l101 124h65z" />
    <glyph glyph-name="Hbar" unicode="&#x126;" horiz-adv-x="729" 
d="M651 0h-95v323h-384v-323h-93v523h-64v73h64v110h93v-110h384v110h95v-110h62v-73h-62v-523zM172 406h384v117h-384v-117z" />
    <glyph glyph-name="hbar" unicode="&#x127;" horiz-adv-x="521" 
d="M0 621h66v85h80v-85h156v-59h-156v-139c38.667 42 86.334 63 143.001 63c112.667 0 169 -60.333 169 -181v-305h-81v276c0 34.667 -3 60.667 -9 78c-14.667 41.333 -46.334 62 -95.001 62c-46.667 0 -81.667 -19.667 -105 -59c-14.667 -25.333 -22 -66.333 -22 -123v-234
h-80v562h-66v59z" />
    <glyph glyph-name="Itilde" unicode="&#x128;" horiz-adv-x="229" 
d="M162 0h-95v706h95v-706zM208 882l46.999 -0.000976562c-9.33301 -67.333 -35.333 -101 -78 -101c-16 0 -38.333 5.83301 -67 17.5s-48 17.5 -58 17.5c-14.667 0 -24.667 -10 -30 -30h-48c2.66699 22.667 7.5 41.334 14.5 56.001s15.333 24.834 25 30.501
s17.5 9.16699 23.5 10.5s13 2 21 2c15.333 0 35.833 -5.5 61.5 -16.5s45.5 -16.5 59.5 -16.5c8.66699 0 14.834 2.16699 18.501 6.5s7.16699 12.166 10.5 23.499z" />
    <glyph glyph-name="itilde" unicode="&#x129;" horiz-adv-x="208" 
d="M144 0h-77v471h77v-471zM193 635h50c-2 -18 -4.83301 -33.333 -8.5 -46s-11.5 -24.834 -23.5 -36.501s-27.333 -17.5 -46 -17.5c-14.667 0 -36.167 5.66699 -64.5 17s-47.166 17 -56.499 17c-10.667 0 -18.5 -3.66699 -23.5 -11s-7.5 -13.666 -7.5 -18.999h-49
c8 66 35.333 99 82 99c15.333 0 36.666 -5.5 63.999 -16.5s45.333 -16.5 54 -16.5c19.333 0 29 10 29 30z" />
    <glyph glyph-name="uni012A" unicode="&#x12a;" horiz-adv-x="229" 
d="M162 0h-95v706h95v-706zM232 781h-235v68h235v-68z" />
    <glyph glyph-name="imacron" unicode="&#x12b;" horiz-adv-x="208" 
d="M144 0h-77v471h77v-471zM212 541h-216v68h216v-68z" />
    <glyph glyph-name="Ibreve" unicode="&#x12c;" horiz-adv-x="229" 
d="M162 0h-95v706h95v-706zM195 880h51.999c0 -26.667 -13.167 -51.5 -39.5 -74.5s-57.166 -34.5 -92.499 -34.5c-32.667 0 -62.667 10.167 -90 30.5s-41.333 46.5 -42 78.5h50c5.33301 -15.333 15.833 -26.833 31.5 -34.5s32.834 -11.5 51.501 -11.5
c20.667 0 38.167 4.66699 52.5 14s23.166 20 26.499 32z" />
    <glyph glyph-name="uni012D" unicode="&#x12d;" horiz-adv-x="208" 
d="M144 0h-77v471h77v-471zM-23 654h50.001c5.33301 -19.333 15.166 -34.666 29.499 -45.999s30.5 -17 48.5 -17c17.333 0 33 6 47 18s23 27.333 27 46h52c0 -27.333 -11.667 -55.833 -35 -85.5s-54.333 -44.5 -93 -44.5c-36 0 -66 12.667 -90 38s-36 55.666 -36 90.999z
" />
    <glyph glyph-name="Iogonek" unicode="&#x12e;" horiz-adv-x="229" 
d="M67 706h95v-706c-38 -27.333 -57 -52.333 -57 -75c0 -25.333 20.333 -38 61 -38h12v-74h-9c-49.333 0 -86.5 4.66699 -111.5 14s-37.5 29 -37.5 59c0 22.667 5.16699 41.667 15.5 57s27.833 34.333 52.5 57h-21v706z" />
    <glyph glyph-name="iogonek" unicode="&#x12f;" horiz-adv-x="208" 
d="M69 471h77v-471c-38 -28 -57 -52.667 -57 -74c0 -26 20.333 -39 61 -39h12v-74h-9c-49.333 0 -86.5 4.66699 -111.5 14s-37.5 29 -37.5 59c0 15.333 3.33301 30 10 44s13.5 25.167 20.5 33.5s18.5 20.5 34.5 36.5v471zM146 614h-77v92h77v-92z" />
    <glyph glyph-name="Idotaccent" unicode="&#x130;" horiz-adv-x="229" 
d="M162 0h-95v706h95v-706zM158 781h-87v99h87v-99z" />
    <glyph glyph-name="dotlessi" unicode="&#x131;" horiz-adv-x="208" 
d="M144 0h-77v471h77v-471z" />
    <glyph glyph-name="IJ" unicode="&#x132;" horiz-adv-x="604" 
d="M162 0h-95v706h95v-706zM526 706l-0.00195312 -519.001c0 -24 -0.5 -42 -1.5 -54s-4.33301 -26.333 -10 -43s-14.5 -32 -26.5 -46c-35.333 -41.333 -86.666 -62 -153.999 -62c-29.333 0 -61.333 3.33301 -96 10v103c26.667 -13.333 57.667 -20 93 -20
c38.667 0 66.334 12.333 83.001 37c7.33301 10.667 11.833 23.834 13.5 39.501s2.5 41.167 2.5 76.5v478h96z" />
    <glyph glyph-name="ij" unicode="&#x133;" horiz-adv-x="416" 
d="M146 614h-77v92h77v-92zM146 0h-77v471h77v-471zM351 613h-78v93h78v-93zM351 471v-574.998c0 -45.333 -8.33301 -77 -25 -95c-18.667 -20 -45.667 -30 -81 -30c-22 0 -42 1.33301 -60 4v71c18.667 -2 30.667 -3 36 -3c14.667 0 26.667 3.33301 36 10
c7.33301 5.33301 11.833 12.166 13.5 20.499s2.5 23.166 2.5 44.499v553h78z" />
    <glyph glyph-name="Jcircumflex" unicode="&#x134;" 
d="M297 706l-0.00195312 -519.001c0 -24 -0.5 -42 -1.5 -54s-4.33301 -26.333 -10 -43s-14.5 -32 -26.5 -46c-35.333 -41.333 -86.666 -62 -153.999 -62c-29.333 0 -61.333 3.33301 -96 10v103c26.667 -13.333 57.667 -20 93 -20c38.667 0 66.334 12.333 83.001 37
c7.33301 10.667 11.833 23.834 13.5 39.501s2.5 41.167 2.5 76.5v478h96zM382.998 770.999h-77l-62 74l-59 -74h-75l101 124h65z" />
    <glyph glyph-name="jcircumflex" unicode="&#x135;" horiz-adv-x="208" 
d="M143 471v-574.998c0 -45.333 -8.33301 -77 -25 -95c-18.667 -20 -45.667 -30 -81 -30c-22 0 -42 1.33301 -60 4v71c18.667 -2 30.667 -3 36 -3c14.667 0 26.667 3.33301 36 10c7.33301 5.33301 11.833 12.166 13.5 20.499s2.5 23.166 2.5 44.499v553h78zM237 523.002h-75
l-61 95l-59 -95h-70l94 151h67z" />
    <glyph glyph-name="Kcommaaccent" unicode="&#x136;" horiz-adv-x="625" 
d="M624 0h-115l-248 348l-100 -102v-246h-94v706h94v-345l335 345h116l-286 -292zM289 -38h80v-31c0 -39.333 -9.66699 -77 -29 -113h-39c11.333 22 18 45 20 69h-32v75z" />
    <glyph glyph-name="kcommaaccent" unicode="&#x137;" horiz-adv-x="458" 
d="M472 0h-100l-169 226l-57 -60v-166h-81v706h81v-435l188 200h98l-175 -186zM212 -38h80v-31c0 -39.333 -9.66699 -77 -29 -113h-39c11.333 22 18 45 20 69h-32v75z" />
    <glyph glyph-name="kgreenlandic" unicode="&#x138;" horiz-adv-x="458" 
d="M472 0h-100l-169 226l-57 -60v-166h-81v471h81v-200l188 200h98l-175 -186z" />
    <glyph glyph-name="Lacute" unicode="&#x139;" horiz-adv-x="521" 
d="M504 0h-436v706h94v-622h342v-84zM215 895l-87 -124h-60l48 124h99z" />
    <glyph glyph-name="lacute" unicode="&#x13a;" horiz-adv-x="208" 
d="M143 0h-76v706h76v-706zM206 895l-87 -124h-60l48 124h99z" />
    <glyph glyph-name="Lcommaaccent" unicode="&#x13b;" horiz-adv-x="521" 
d="M504 0h-436v706h94v-622h342v-84zM249 -38h80v-31c0 -39.333 -9.66699 -77 -29 -113h-39c11.333 22 18 45 20 69h-32v75z" />
    <glyph glyph-name="lcommaaccent" unicode="&#x13c;" horiz-adv-x="208" 
d="M143 0h-76v706h76v-706zM67 -38h80v-31c0 -39.333 -9.66699 -77 -29 -113h-39c11.333 22 18 45 20 69h-32v75z" />
    <glyph glyph-name="Lcaron" unicode="&#x13d;" horiz-adv-x="521" 
d="M504 0h-436v706h94v-622h342v-84zM201 706h74.999v-38c0 -32.667 -2.16699 -58.834 -6.5 -78.501s-12.166 -45.167 -23.499 -76.5h-36c13.333 34.667 21.333 71.334 24 110.001h-33v83z" />
    <glyph glyph-name="lcaron" unicode="&#x13e;" horiz-adv-x="208" 
d="M143 0h-76v706h76v-706zM178 706h74.999v-38c0 -32.667 -2.16699 -58.834 -6.5 -78.501s-12.166 -45.167 -23.499 -76.5h-36c13.333 34.667 21.333 71.334 24 110.001h-33v83z" />
    <glyph glyph-name="Ldot" unicode="&#x13f;" horiz-adv-x="521" 
d="M504 0h-436v706h94v-622h342v-84zM399 322h-86v102h86v-102z" />
    <glyph glyph-name="ldot" unicode="&#x140;" horiz-adv-x="264" 
d="M143 0h-76v706h76v-706zM278 318h-80v98h80v-98z" />
    <glyph glyph-name="Lslash" unicode="&#x141;" horiz-adv-x="521" 
d="M504 0h-436v234l-63 -60v79l63 60v393h94v-306l154 141v-78l-154 -140v-239h342v-84z" />
    <glyph glyph-name="lslash" unicode="&#x142;" horiz-adv-x="208" 
d="M197 447l-54 -50v-397h-76v326l-56 -48v67l56 50v311h76v-238l54 49v-70z" />
    <glyph glyph-name="Nacute" unicode="&#x143;" horiz-adv-x="708" 
d="M630 0l-85 -0.00195312l-387 574c6 -373.333 9 -564.666 9 -573.999h-89v706h89l382 -566c-2.66699 362.667 -4 551.334 -4 566.001h85v-706zM461 894.998l-87 -124h-60l48 124h99z" />
    <glyph glyph-name="nacute" unicode="&#x144;" horiz-adv-x="521" 
d="M455 0h-79.0029v309c0 34 -10.333 59.5 -31 76.5s-46 25.5 -76 25.5c-34.667 0 -64.167 -11.833 -88.5 -35.5s-36.5 -55.834 -36.5 -96.501v-279h-80v471h80v-69c12.667 22 31.334 41.5 56.001 58.5s55.334 25.5 92.001 25.5c10.667 0 22.334 -1.16699 35.001 -3.5
s29.167 -8.66602 49.5 -18.999s36.833 -24.5 49.5 -42.5c19.333 -27.333 29 -68.333 29 -123v-298zM361.997 666l-86 -144h-41l41 144h86z" />
    <glyph glyph-name="Ncommaaccent" unicode="&#x145;" horiz-adv-x="708" 
d="M630 0l-85 -0.00195312l-387 574c6 -373.333 9 -564.666 9 -573.999h-89v706h89l382 -566c-2.66699 362.667 -4 551.334 -4 566.001h85v-706zM314 -38.002h80v-31c0 -39.333 -9.66699 -77 -29 -113h-39c11.333 22 18 45 20 69h-32v75z" />
    <glyph glyph-name="ncommaaccent" unicode="&#x146;" horiz-adv-x="521" 
d="M455 0h-79.0029v309c0 34 -10.333 59.5 -31 76.5s-46 25.5 -76 25.5c-34.667 0 -64.167 -11.833 -88.5 -35.5s-36.5 -55.834 -36.5 -96.501v-279h-80v471h80v-69c12.667 22 31.334 41.5 56.001 58.5s55.334 25.5 92.001 25.5c10.667 0 22.334 -1.16699 35.001 -3.5
s29.167 -8.66602 49.5 -18.999s36.833 -24.5 49.5 -42.5c19.333 -27.333 29 -68.333 29 -123v-298zM220.997 -38h80v-31c0 -39.333 -9.66699 -77 -29 -113h-39c11.333 22 18 45 20 69h-32v75z" />
    <glyph glyph-name="Ncaron" unicode="&#x147;" horiz-adv-x="708" 
d="M630 0l-85 -0.00195312l-387 574c6 -373.333 9 -564.666 9 -573.999h-89v706h89l382 -566c-2.66699 362.667 -4 551.334 -4 566.001h85v-706zM488 894.998l-101 -124h-66l-105 124h76l62 -77l59 77h75z" />
    <glyph glyph-name="ncaron" unicode="&#x148;" horiz-adv-x="521" 
d="M455 0h-79.0029v309c0 34 -10.333 59.5 -31 76.5s-46 25.5 -76 25.5c-34.667 0 -64.167 -11.833 -88.5 -35.5s-36.5 -55.834 -36.5 -96.501v-279h-80v471h80v-69c12.667 22 31.334 41.5 56.001 58.5s55.334 25.5 92.001 25.5c10.667 0 22.334 -1.16699 35.001 -3.5
s29.167 -8.66602 49.5 -18.999s36.833 -24.5 49.5 -42.5c19.333 -27.333 29 -68.333 29 -123v-298zM390.997 673l-96 -151h-67l-102 151h74l61 -96l59 96h71z" />
    <glyph glyph-name="napostrophe" unicode="&#x149;" horiz-adv-x="521" 
d="M455 0h-79.0029v309c0 34 -10.333 59.5 -31 76.5s-46 25.5 -76 25.5c-34.667 0 -64.167 -11.833 -88.5 -35.5s-36.5 -55.834 -36.5 -96.501v-279h-80v471h80v-69c12.667 22 31.334 41.5 56.001 58.5s55.334 25.5 92.001 25.5c10.667 0 22.334 -1.16699 35.001 -3.5
s29.167 -8.66602 49.5 -18.999s36.833 -24.5 49.5 -42.5c19.333 -27.333 29 -68.333 29 -123v-298zM22.9971 706h74.999v-38c0 -32.667 -2.16699 -58.834 -6.5 -78.501s-12.166 -45.167 -23.499 -76.5h-36c13.333 34.667 21.333 71.334 24 110.001h-33v83z" />
    <glyph glyph-name="Eng" unicode="&#x14a;" horiz-adv-x="708" 
d="M630 706v-765.002c0 -45.333 -8.66699 -77 -26 -95c-19.333 -20 -46 -30 -80 -30c-20 0 -38.667 2.33301 -56 7v73c12 -4 23.333 -6 34 -6c14 0 25 3 33 9c8.66699 6 13 27.333 13 64v33l-390 578c6 -373.333 9 -564.666 9 -573.999h-89v706h89l382 -566
c-2.66699 362.667 -4 551.334 -4 566.001h85z" />
    <glyph glyph-name="eng" unicode="&#x14b;" horiz-adv-x="521" 
d="M144 0h-80.002v471h80v-69c12.667 22 31.334 41.5 56.001 58.5s55.334 25.5 92.001 25.5c10.667 0 22.334 -1.16699 35.001 -3.5s29.167 -8.66602 49.5 -18.999s36.833 -24.5 49.5 -42.5c19.333 -27.333 29 -68.333 29 -123v-322c0 -52.667 -8.33301 -89 -25 -109
c-18 -21.333 -44.667 -32 -80 -32c-17.333 0 -35 2 -53 6v70c12.667 -4 23.667 -6 33 -6c13.333 0 23.666 3 30.999 9c10 8.66699 15 33 15 73v322c0 34 -10.333 59.5 -31 76.5s-46 25.5 -76 25.5c-34.667 0 -64.167 -11.833 -88.5 -35.5s-36.5 -55.834 -36.5 -96.501v-279z
" />
    <glyph glyph-name="Omacron" unicode="&#x14c;" horiz-adv-x="812" 
d="M762 359c0 -36 -3.83496 -71.167 -11.502 -105.5s-20.5 -68.166 -38.5 -101.499s-40.5 -62.333 -67.5 -87s-61.167 -44.667 -102.5 -60s-87.333 -23 -138 -23c-46.667 0 -90.834 7.66699 -132.501 23s-79.167 37.833 -112.5 67.5s-59.666 68.667 -78.999 117
s-29 103.166 -29 164.499c0 62 10 117.333 30 166s46.833 87.5 80.5 116.5s71.334 50.833 113.001 65.5s85.834 22 132.501 22c106.667 0 192.5 -33.833 257.5 -101.5s97.5 -155.5 97.5 -263.5zM152.998 353c0 -91.333 22.833 -163.664 68.5 -216.997s108.167 -80 187.5 -80
c74 0 134.333 25.5 181 76.5s70 126.5 70 226.5c0 37.333 -4.5 72.333 -13.5 105s-22.833 63.167 -41.5 91.5s-45 50.833 -79 67.5s-73.667 25 -119 25c-44.667 0 -84 -8.33301 -118 -25s-60.5 -39.334 -79.5 -68.001s-33.167 -59.834 -42.5 -93.501
s-14 -69.834 -14 -108.501zM547.998 781.002h-285v68h285v-68z" />
    <glyph glyph-name="omacron" unicode="&#x14d;" horiz-adv-x="542" 
d="M40 235c0 18 1.66699 36.4971 5 55.4971s10.166 40.667 20.499 65s23.833 45.833 40.5 64.5s39.834 34.334 69.501 47.001s63.834 19 102.501 19c60.667 0 113.167 -21.167 157.5 -63.5s66.5 -103.166 66.5 -182.499c0 -81.333 -21.833 -144.166 -65.5 -188.499
s-98.834 -66.5 -165.501 -66.5c-68 0 -123.5 22 -166.5 66s-64.5 105.333 -64.5 184zM127 230.997c0 -13.333 0.833008 -26.834 2.5 -40.501s5.5 -29.5 11.5 -47.5s14 -33.5 24 -46.5s24 -24.167 42 -33.5s39 -14 63 -14c47.333 0 83.5 17.333 108.5 52s37.5 83 37.5 145
c0 48 -11 89.333 -33 124s-57.333 52 -106 52c-28 0 -52.167 -6 -72.5 -18s-35.333 -25.333 -45 -40s-17.167 -32.5 -22.5 -53.5s-8.33301 -36.667 -9 -47s-1 -21.166 -1 -32.499zM413 540.996h-285v68h285v-68z" />
    <glyph glyph-name="Obreve" unicode="&#x14e;" horiz-adv-x="812" 
d="M762 359c0 -36 -3.83496 -71.167 -11.502 -105.5s-20.5 -68.166 -38.5 -101.499s-40.5 -62.333 -67.5 -87s-61.167 -44.667 -102.5 -60s-87.333 -23 -138 -23c-46.667 0 -90.834 7.66699 -132.501 23s-79.167 37.833 -112.5 67.5s-59.666 68.667 -78.999 117
s-29 103.166 -29 164.499c0 62 10 117.333 30 166s46.833 87.5 80.5 116.5s71.334 50.833 113.001 65.5s85.834 22 132.501 22c106.667 0 192.5 -33.833 257.5 -101.5s97.5 -155.5 97.5 -263.5zM152.998 353c0 -91.333 22.833 -163.664 68.5 -216.997s108.167 -80 187.5 -80
c74 0 134.333 25.5 181 76.5s70 126.5 70 226.5c0 37.333 -4.5 72.333 -13.5 105s-22.833 63.167 -41.5 91.5s-45 50.833 -79 67.5s-73.667 25 -119 25c-44.667 0 -84 -8.33301 -118 -25s-60.5 -39.334 -79.5 -68.001s-33.167 -59.834 -42.5 -93.501
s-14 -69.834 -14 -108.501zM489.998 880.002h52.002c0 -26.667 -13.167 -51.5 -39.5 -74.5s-57.166 -34.5 -92.499 -34.5c-32.667 0 -62.667 10.167 -90 30.5s-41.333 46.5 -42 78.5h50c5.33301 -15.333 15.666 -26.833 30.999 -34.5s32.666 -11.5 51.999 -11.5
c20.667 0 38.167 4.66699 52.5 14s23.166 20 26.499 32z" />
    <glyph glyph-name="obreve" unicode="&#x14f;" horiz-adv-x="542" 
d="M40 235c0 18 1.66699 36.4971 5 55.4971s10.166 40.667 20.499 65s23.833 45.833 40.5 64.5s39.834 34.334 69.501 47.001s63.834 19 102.501 19c60.667 0 113.167 -21.167 157.5 -63.5s66.5 -103.166 66.5 -182.499c0 -81.333 -21.833 -144.166 -65.5 -188.499
s-98.834 -66.5 -165.501 -66.5c-68 0 -123.5 22 -166.5 66s-64.5 105.333 -64.5 184zM127 230.997c0 -13.333 0.833008 -26.834 2.5 -40.501s5.5 -29.5 11.5 -47.5s14 -33.5 24 -46.5s24 -24.167 42 -33.5s39 -14 63 -14c47.333 0 83.5 17.333 108.5 52s37.5 83 37.5 145
c0 48 -11 89.333 -33 124s-57.333 52 -106 52c-28 0 -52.167 -6 -72.5 -18s-35.333 -25.333 -45 -40s-17.167 -32.5 -22.5 -53.5s-8.33301 -36.667 -9 -47s-1 -21.166 -1 -32.499zM152 653.996h50.001c5.33301 -19.333 15.166 -34.666 29.499 -45.999s30.5 -17 48.5 -17
c17.333 0 33 6 47 18s23 27.333 27 46h52c0 -27.333 -11.667 -55.833 -35 -85.5s-54.333 -44.5 -93 -44.5c-36 0 -66 12.667 -90 38s-36 55.666 -36 90.999z" />
    <glyph glyph-name="Ohungarumlaut" unicode="&#x150;" horiz-adv-x="812" 
d="M762 359c0 -36 -3.83496 -71.167 -11.502 -105.5s-20.5 -68.166 -38.5 -101.499s-40.5 -62.333 -67.5 -87s-61.167 -44.667 -102.5 -60s-87.333 -23 -138 -23c-46.667 0 -90.834 7.66699 -132.501 23s-79.167 37.833 -112.5 67.5s-59.666 68.667 -78.999 117
s-29 103.166 -29 164.499c0 62 10 117.333 30 166s46.833 87.5 80.5 116.5s71.334 50.833 113.001 65.5s85.834 22 132.501 22c106.667 0 192.5 -33.833 257.5 -101.5s97.5 -155.5 97.5 -263.5zM152.998 353c0 -91.333 22.833 -163.664 68.5 -216.997s108.167 -80 187.5 -80
c74 0 134.333 25.5 181 76.5s70 126.5 70 226.5c0 37.333 -4.5 72.333 -13.5 105s-22.833 63.167 -41.5 91.5s-45 50.833 -79 67.5s-73.667 25 -119 25c-44.667 0 -84 -8.33301 -118 -25s-60.5 -39.334 -79.5 -68.001s-33.167 -59.834 -42.5 -93.501
s-14 -69.834 -14 -108.501zM445.998 895.002l-87 -124h-58l53 124h92zM587.998 895.002l-87 -124h-58l53 124h92z" />
    <glyph glyph-name="ohungarumlaut" unicode="&#x151;" horiz-adv-x="542" 
d="M40 235c0 18 1.66699 36.4971 5 55.4971s10.166 40.667 20.499 65s23.833 45.833 40.5 64.5s39.834 34.334 69.501 47.001s63.834 19 102.501 19c60.667 0 113.167 -21.167 157.5 -63.5s66.5 -103.166 66.5 -182.499c0 -81.333 -21.833 -144.166 -65.5 -188.499
s-98.834 -66.5 -165.501 -66.5c-68 0 -123.5 22 -166.5 66s-64.5 105.333 -64.5 184zM127 230.997c0 -13.333 0.833008 -26.834 2.5 -40.501s5.5 -29.5 11.5 -47.5s14 -33.5 24 -46.5s24 -24.167 42 -33.5s39 -14 63 -14c47.333 0 83.5 17.333 108.5 52s37.5 83 37.5 145
c0 48 -11 89.333 -33 124s-57.333 52 -106 52c-28 0 -52.167 -6 -72.5 -18s-35.333 -25.333 -45 -40s-17.167 -32.5 -22.5 -53.5s-8.33301 -36.667 -9 -47s-1 -21.166 -1 -32.499zM436 664.996l-86 -144h-41l43 144h84zM302 664.996l-88 -144h-41l46 144h83z" />
    <glyph glyph-name="OE" unicode="&#x152;" horiz-adv-x="1146" 
d="M1119 0l-501 0.00292969v82c-61.333 -66.667 -138.666 -100 -231.999 -100c-43.333 0 -84.833 8.16699 -124.5 24.5s-75.334 39.666 -107.001 69.999s-57 69.666 -76 117.999s-28.5 102.166 -28.5 161.499c0 113.333 32.667 203 98 269s146 99 242 99
c97.333 0 173.333 -30.667 228 -92v74h490v-84h-400v-219h323v-82h-323v-239h411v-82zM618 361.003c0 57.333 -7.50195 106.167 -22.502 146.5s-34.833 70.333 -59.5 90s-48.667 33.5 -72 41.5s-47.666 12 -72.999 12c-70.667 0 -128.5 -27 -173.5 -81
s-67.5 -126.667 -67.5 -218c0 -80 21 -148.667 63 -206s100.333 -86 175 -86c76.667 0 136.334 30.667 179.001 92c34 50 51 119.667 51 209z" />
    <glyph glyph-name="oe" unicode="&#x153;" horiz-adv-x="875" 
d="M838 214h-355c0 -42 11.333 -78.333 34 -109c28.667 -37.333 66 -56 112 -56c20 0 38 4 54 12s28.5 18.333 37.5 31s15.667 23.5 20 32.5s7.83301 18.167 10.5 27.5l81 -11c-5.33301 -14.667 -12.333 -29.667 -21 -45s-21 -32 -37 -50s-37.167 -32.667 -63.5 -44
s-55.5 -17 -87.5 -17c-38 0 -72.667 8.33301 -104 25s-57 39.667 -77 69c-41.333 -62.667 -99.333 -94 -174 -94c-62 0 -115.167 21.167 -159.5 63.5s-66.5 104.833 -66.5 187.5c0 60 13.333 110.333 40 151c43.333 66 106.333 99 189 99c69.333 0 126.333 -29 171 -87
c42 58 99.333 87 172 87c72 0 128.333 -27 169 -81c36.667 -49.333 55 -113 55 -191zM483 274h267c-2.66699 29.333 -9.33398 54.5 -20.001 75.5s-23.334 36.333 -38.001 46s-28.167 16.5 -40.5 20.5s-24.166 6 -35.499 6c-40.667 0 -72.167 -14.833 -94.5 -44.5
s-35.166 -64.167 -38.499 -103.5zM403 233c0 56.667 -12.168 101.833 -36.501 135.5s-58.166 50.5 -101.499 50.5c-38 0 -70.5 -15.667 -97.5 -47s-40.5 -78.333 -40.5 -141c0 -55.333 12.833 -99 38.5 -131s58.834 -48 99.501 -48c43.333 0 77.166 17.167 101.499 51.5
s36.5 77.5 36.5 129.5z" />
    <glyph glyph-name="Racute" unicode="&#x154;" horiz-adv-x="667" 
d="M657 0h-112l-193 300h-182v-300h-92v706h318c70.667 0 126.5 -17.167 167.5 -51.5s61.5 -85.833 61.5 -154.5c0 -48.667 -12.833 -90.667 -38.5 -126s-68.167 -58 -127.5 -68zM170 379h208.001c102.667 0 154 40.333 154 121c0 40 -12.333 71.333 -37 94
s-59.334 34 -104.001 34h-221v-249zM420.001 895l-87 -124h-60l48 124h99z" />
    <glyph glyph-name="racute" unicode="&#x155;" horiz-adv-x="313" 
d="M65 471h79.999v-86c11.333 22 26 40 44 54c32 25.333 71 38 117 38v-86c-10 2 -20.333 3 -31 3c-29.333 0 -55.166 -7.83301 -77.499 -23.5s-37.5 -37.5 -45.5 -65.5c-4.66699 -18.667 -7 -47.667 -7 -87v-218h-80v471zM275.999 666l-86 -144h-41l41 144h86z" />
    <glyph glyph-name="Rcommaaccent" unicode="&#x156;" horiz-adv-x="667" 
d="M657 0h-112l-193 300h-182v-300h-92v706h318c70.667 0 126.5 -17.167 167.5 -51.5s61.5 -85.833 61.5 -154.5c0 -48.667 -12.833 -90.667 -38.5 -126s-68.167 -58 -127.5 -68zM170 379h208.001c102.667 0 154 40.333 154 121c0 40 -12.333 71.333 -37 94
s-59.334 34 -104.001 34h-221v-249zM308.001 -38h80v-31c0 -39.333 -9.66699 -77 -29 -113h-39c11.333 22 18 45 20 69h-32v75z" />
    <glyph glyph-name="rcommaaccent" unicode="&#x157;" horiz-adv-x="313" 
d="M65 471h79.999v-86c11.333 22 26 40 44 54c32 25.333 71 38 117 38v-86c-10 2 -20.333 3 -31 3c-29.333 0 -55.166 -7.83301 -77.499 -23.5s-37.5 -37.5 -45.5 -65.5c-4.66699 -18.667 -7 -47.667 -7 -87v-218h-80v471zM65.999 -38h80v-31
c0 -39.333 -9.66699 -77 -29 -113h-39c11.333 22 18 45 20 69h-32v75z" />
    <glyph glyph-name="Rcaron" unicode="&#x158;" horiz-adv-x="667" 
d="M657 0h-112l-193 300h-182v-300h-92v706h318c70.667 0 126.5 -17.167 167.5 -51.5s61.5 -85.833 61.5 -154.5c0 -48.667 -12.833 -90.667 -38.5 -126s-68.167 -58 -127.5 -68zM170 379h208.001c102.667 0 154 40.333 154 121c0 40 -12.333 71.333 -37 94
s-59.334 34 -104.001 34h-221v-249zM440.001 895l-101 -124h-66l-105 124h76l62 -77l59 77h75z" />
    <glyph glyph-name="rcaron" unicode="&#x159;" horiz-adv-x="313" 
d="M65 471h79.999v-86c11.333 22 26 40 44 54c32 25.333 71 38 117 38v-86c-10 2 -20.333 3 -31 3c-29.333 0 -55.166 -7.83301 -77.499 -23.5s-37.5 -37.5 -45.5 -65.5c-4.66699 -18.667 -7 -47.667 -7 -87v-218h-80v471zM306.999 673l-96 -151h-67l-102 151h74l61 -96
l59 96h71z" />
    <glyph glyph-name="Sacute" unicode="&#x15a;" horiz-adv-x="667" 
d="M37 226l100.997 12.9951c0 -6.66699 0.333008 -13 1 -19s2.5 -15.667 5.5 -29s7 -25.333 12 -36s12.667 -22.5 23 -35.5s22.333 -23.833 36 -32.5s31.334 -16 53.001 -22s45.834 -9 72.501 -9c17.333 0 35 2 53 6s36.833 10.667 56.5 20s35.667 23.833 48 43.5
s18.5 43.5 18.5 71.5c0 36 -11.333 62.333 -34 79s-56 29.334 -100 38.001l-64 13c-84 16.667 -146.333 40.167 -187 70.5s-61 73.833 -61 130.5c0 54.667 22.333 100.667 67 138c46.667 38.667 107.667 58 183 58c84 0 149 -17.667 195 -53
c28.667 -21.333 49.167 -44.5 61.5 -69.5s21.833 -56.5 28.5 -94.5l-95 -6c0 10 -1.16699 20.5 -3.5 31.5s-7.33301 23.833 -15 38.5s-17.667 27.667 -30 39s-30.166 21 -53.499 29s-50 12 -80 12c-25.333 0 -49.333 -3 -72 -9s-43.167 -17.667 -61.5 -35
s-27.5 -39.666 -27.5 -66.999c0 -31.333 11.833 -54.833 35.5 -70.5s58.834 -29.167 105.501 -40.5l129 -31c13.333 -3.33301 24.166 -6.16602 32.499 -8.49902s23 -8.66602 44 -18.999s38 -21.833 51 -34.5s25 -30.667 36 -54s16.5 -49.666 16.5 -78.999
c0 -58 -19.667 -106.333 -59 -145c-52 -50.667 -126.333 -76 -223 -76c-78 0 -142.333 16.333 -193 49c-62 40 -97.333 105 -106 195zM425.997 894.995l-87 -124h-60l48 124h99z" />
    <glyph glyph-name="sacute" unicode="&#x15b;" horiz-adv-x="479" 
d="M31 152l91.002 13.002c0 -36.667 8.66699 -64.334 26 -83.001c22 -24 57.333 -36 106 -36c27.333 0 52.333 5.83301 75 17.5s34 32.167 34 61.5c0 13.333 -2.66699 24.666 -8 33.999s-13.833 16.666 -25.5 21.999s-21.667 9.16602 -30 11.499s-19.833 4.83301 -34.5 7.5
l-46 9c-62 12 -105.5 29.167 -130.5 51.5s-37.5 50.833 -37.5 85.5c0 47.333 18.167 82.5 54.5 105.5s79.166 34.5 128.499 34.5c44 0 80.667 -8.33301 110 -25s51.333 -36 66 -58c12.667 -19.333 21 -43.333 25 -72l-86 -10c-0.666992 21.333 -3 36 -7 44
c-7.33301 15.333 -21.333 29.166 -42 41.499s-46.334 18.5 -77.001 18.5c-30 0 -53 -7.16699 -69 -21.5s-24 -30.166 -24 -47.499c0 -19.333 9 -34.166 27 -44.499s47 -20.166 87 -29.499l46 -11c50.667 -12 89.5 -28 116.5 -48s40.5 -49.667 40.5 -89
c0 -44.667 -18.667 -80.667 -56 -108s-84.333 -41 -141 -41c-129.333 0 -202.333 55.667 -219 167zM330.002 666.002l-86 -144h-41l41 144h86z" />
    <glyph glyph-name="Scircumflex" unicode="&#x15c;" horiz-adv-x="667" 
d="M37 226l100.997 12.9951c0 -6.66699 0.333008 -13 1 -19s2.5 -15.667 5.5 -29s7 -25.333 12 -36s12.667 -22.5 23 -35.5s22.333 -23.833 36 -32.5s31.334 -16 53.001 -22s45.834 -9 72.501 -9c17.333 0 35 2 53 6s36.833 10.667 56.5 20s35.667 23.833 48 43.5
s18.5 43.5 18.5 71.5c0 36 -11.333 62.333 -34 79s-56 29.334 -100 38.001l-64 13c-84 16.667 -146.333 40.167 -187 70.5s-61 73.833 -61 130.5c0 54.667 22.333 100.667 67 138c46.667 38.667 107.667 58 183 58c84 0 149 -17.667 195 -53
c28.667 -21.333 49.167 -44.5 61.5 -69.5s21.833 -56.5 28.5 -94.5l-95 -6c0 10 -1.16699 20.5 -3.5 31.5s-7.33301 23.833 -15 38.5s-17.667 27.667 -30 39s-30.166 21 -53.499 29s-50 12 -80 12c-25.333 0 -49.333 -3 -72 -9s-43.167 -17.667 -61.5 -35
s-27.5 -39.666 -27.5 -66.999c0 -31.333 11.833 -54.833 35.5 -70.5s58.834 -29.167 105.501 -40.5l129 -31c13.333 -3.33301 24.166 -6.16602 32.499 -8.49902s23 -8.66602 44 -18.999s38 -21.833 51 -34.5s25 -30.667 36 -54s16.5 -49.666 16.5 -78.999
c0 -58 -19.667 -106.333 -59 -145c-52 -50.667 -126.333 -76 -223 -76c-78 0 -142.333 16.333 -193 49c-62 40 -97.333 105 -106 195zM481.997 770.995h-77l-62 74l-59 -74h-75l101 124h65z" />
    <glyph glyph-name="scircumflex" unicode="&#x15d;" horiz-adv-x="479" 
d="M31 152l91.002 13.002c0 -36.667 8.66699 -64.334 26 -83.001c22 -24 57.333 -36 106 -36c27.333 0 52.333 5.83301 75 17.5s34 32.167 34 61.5c0 13.333 -2.66699 24.666 -8 33.999s-13.833 16.666 -25.5 21.999s-21.667 9.16602 -30 11.499s-19.833 4.83301 -34.5 7.5
l-46 9c-62 12 -105.5 29.167 -130.5 51.5s-37.5 50.833 -37.5 85.5c0 47.333 18.167 82.5 54.5 105.5s79.166 34.5 128.499 34.5c44 0 80.667 -8.33301 110 -25s51.333 -36 66 -58c12.667 -19.333 21 -43.333 25 -72l-86 -10c-0.666992 21.333 -3 36 -7 44
c-7.33301 15.333 -21.333 29.166 -42 41.499s-46.334 18.5 -77.001 18.5c-30 0 -53 -7.16699 -69 -21.5s-24 -30.166 -24 -47.499c0 -19.333 9 -34.166 27 -44.499s47 -20.166 87 -29.499l46 -11c50.667 -12 89.5 -28 116.5 -48s40.5 -49.667 40.5 -89
c0 -44.667 -18.667 -80.667 -56 -108s-84.333 -41 -141 -41c-129.333 0 -202.333 55.667 -219 167zM377.002 523.002h-75l-61 95l-59 -95h-70l94 151h67z" />
    <glyph glyph-name="Scedilla" unicode="&#x15e;" horiz-adv-x="667" 
d="M37 226l100.997 12.9941c0 -6.66699 0.333008 -13 1 -19s2.5 -15.667 5.5 -29s7 -25.333 12 -36s12.667 -22.5 23 -35.5s22.333 -23.833 36 -32.5s31.334 -16 53.001 -22s45.834 -9 72.501 -9c17.333 0 35 2 53 6s36.833 10.667 56.5 20s35.667 23.833 48 43.5
s18.5 43.5 18.5 71.5c0 36 -11.333 62.333 -34 79s-56 29.334 -100 38.001l-64 13c-84 16.667 -146.333 40.167 -187 70.5s-61 73.833 -61 130.5c0 54.667 22.333 100.667 67 138c46.667 38.667 107.667 58 183 58c84 0 149 -17.667 195 -53
c28.667 -21.333 49.167 -44.5 61.5 -69.5s21.833 -56.5 28.5 -94.5l-95 -6c0 10 -1.16699 20.5 -3.5 31.5s-7.33301 23.833 -15 38.5s-17.667 27.667 -30 39s-30.166 21 -53.499 29s-50 12 -80 12c-25.333 0 -49.333 -3 -72 -9s-43.167 -17.667 -61.5 -35
s-27.5 -39.666 -27.5 -66.999c0 -31.333 11.833 -54.833 35.5 -70.5s58.834 -29.167 105.501 -40.5l129 -31c13.333 -3.33301 24.166 -6.16602 32.499 -8.49902s23 -8.66602 44 -18.999s38 -21.833 51 -34.5s25 -30.667 36 -54s16.5 -49.666 16.5 -78.999
c0 -12.667 -1.16699 -25.834 -3.5 -39.501s-8.66602 -31.667 -18.999 -54s-24.333 -42.166 -42 -59.499s-44 -32.666 -79 -45.999s-75.833 -20.666 -122.5 -21.999l-14 -25l24 -13c12.667 -6.66699 22.167 -15.834 28.5 -27.501s9.5 -22.834 9.5 -33.501
c0 -26.667 -12.167 -47.667 -36.5 -63s-52.833 -23 -85.5 -23h-5v23c2 -0.666992 5.33301 -1 10 -1c11.333 0 21.166 3.33301 29.499 10s12.5 15.667 12.5 27c0 6 -1.16699 11.333 -3.5 16s-6.16602 8.66699 -11.499 12s-10 6 -14 8s-9.66699 4.33301 -17 7
s-12 4.33398 -14 5.00098l51 78c-70.667 4 -128.334 20.333 -173.001 49c-62 40 -97.333 105 -106 195z" />
    <glyph glyph-name="scedilla" unicode="&#x15f;" horiz-adv-x="479" 
d="M31 152l91.001 13.0029c0 -36.667 8.66699 -64.334 26 -83.001c22 -24 57.333 -36 106 -36c27.333 0 52.333 5.83301 75 17.5s34 32.167 34 61.5c0 13.333 -2.66699 24.666 -8 33.999s-13.833 16.666 -25.5 21.999s-21.667 9.16602 -30 11.499s-19.833 4.83301 -34.5 7.5
l-46 9c-62 12 -105.5 29.167 -130.5 51.5s-37.5 50.833 -37.5 85.5c0 47.333 18.167 82.5 54.5 105.5s79.166 34.5 128.499 34.5c44 0 80.667 -8.33301 110 -25s51.333 -36 66 -58c12.667 -19.333 21 -43.333 25 -72l-86 -10c-0.666992 21.333 -3 36 -7 44
c-7.33301 15.333 -21.333 29.166 -42 41.499s-46.334 18.5 -77.001 18.5c-30 0 -53 -7.16699 -69 -21.5s-24 -30.166 -24 -47.499c0 -19.333 9 -34.166 27 -44.499s47 -20.166 87 -29.499l46 -11c50.667 -12 89.5 -28 116.5 -48s40.5 -49.667 40.5 -89
c0 -42.667 -17.167 -77.5 -51.5 -104.5s-78.166 -41.5 -131.499 -43.5l-16 -29l24 -13c12.667 -6.66699 22.167 -15.834 28.5 -27.501s9.5 -22.834 9.5 -33.501c0 -26.667 -12.167 -47.667 -36.5 -63s-52.833 -23 -85.5 -23h-5v23c2 -0.666992 5.33301 -1 10 -1
c11.333 0 21.166 3.33301 29.499 10s12.5 15.667 12.5 27c0 6 -1.16699 11.333 -3.5 16s-6.16602 8.66699 -11.499 12s-10 6 -14 8s-9.66699 4.33301 -17 7s-12 4.33398 -14 5.00098l53 82c-116 6 -181.667 61.333 -197 166z" />
    <glyph glyph-name="Scaron" unicode="&#x160;" horiz-adv-x="667" 
d="M37 226l100.997 12.9951c0 -6.66699 0.333008 -13 1 -19s2.5 -15.667 5.5 -29s7 -25.333 12 -36s12.667 -22.5 23 -35.5s22.333 -23.833 36 -32.5s31.334 -16 53.001 -22s45.834 -9 72.501 -9c17.333 0 35 2 53 6s36.833 10.667 56.5 20s35.667 23.833 48 43.5
s18.5 43.5 18.5 71.5c0 36 -11.333 62.333 -34 79s-56 29.334 -100 38.001l-64 13c-84 16.667 -146.333 40.167 -187 70.5s-61 73.833 -61 130.5c0 54.667 22.333 100.667 67 138c46.667 38.667 107.667 58 183 58c84 0 149 -17.667 195 -53
c28.667 -21.333 49.167 -44.5 61.5 -69.5s21.833 -56.5 28.5 -94.5l-95 -6c0 10 -1.16699 20.5 -3.5 31.5s-7.33301 23.833 -15 38.5s-17.667 27.667 -30 39s-30.166 21 -53.499 29s-50 12 -80 12c-25.333 0 -49.333 -3 -72 -9s-43.167 -17.667 -61.5 -35
s-27.5 -39.666 -27.5 -66.999c0 -31.333 11.833 -54.833 35.5 -70.5s58.834 -29.167 105.501 -40.5l129 -31c13.333 -3.33301 24.166 -6.16602 32.499 -8.49902s23 -8.66602 44 -18.999s38 -21.833 51 -34.5s25 -30.667 36 -54s16.5 -49.666 16.5 -78.999
c0 -58 -19.667 -106.333 -59 -145c-52 -50.667 -126.333 -76 -223 -76c-78 0 -142.333 16.333 -193 49c-62 40 -97.333 105 -106 195zM467.997 894.995l-101 -124h-66l-105 124h76l62 -77l59 77h75z" />
    <glyph glyph-name="scaron" unicode="&#x161;" horiz-adv-x="479" 
d="M31 152l91.002 13.002c0 -36.667 8.66699 -64.334 26 -83.001c22 -24 57.333 -36 106 -36c27.333 0 52.333 5.83301 75 17.5s34 32.167 34 61.5c0 13.333 -2.66699 24.666 -8 33.999s-13.833 16.666 -25.5 21.999s-21.667 9.16602 -30 11.499s-19.833 4.83301 -34.5 7.5
l-46 9c-62 12 -105.5 29.167 -130.5 51.5s-37.5 50.833 -37.5 85.5c0 47.333 18.167 82.5 54.5 105.5s79.166 34.5 128.499 34.5c44 0 80.667 -8.33301 110 -25s51.333 -36 66 -58c12.667 -19.333 21 -43.333 25 -72l-86 -10c-0.666992 21.333 -3 36 -7 44
c-7.33301 15.333 -21.333 29.166 -42 41.499s-46.334 18.5 -77.001 18.5c-30 0 -53 -7.16699 -69 -21.5s-24 -30.166 -24 -47.499c0 -19.333 9 -34.166 27 -44.499s47 -20.166 87 -29.499l46 -11c50.667 -12 89.5 -28 116.5 -48s40.5 -49.667 40.5 -89
c0 -44.667 -18.667 -80.667 -56 -108s-84.333 -41 -141 -41c-129.333 0 -202.333 55.667 -219 167zM366.002 673.002l-96 -151h-67l-102 151h74l61 -96l59 96h71z" />
    <glyph glyph-name="Tcommaaccent" unicode="&#x162;" horiz-adv-x="542" 
d="M528 624h-211v-624h-94v624h-212v82h517v-82zM232 -38h80v-31c0 -39.333 -9.66699 -77 -29 -113h-39c11.333 22 18 45 20 69h-32v75z" />
    <glyph glyph-name="tcommaaccent" unicode="&#x163;" horiz-adv-x="292" 
d="M174 405l-0.000976562 -303c0 -16.667 2.66699 -28.667 8 -36s14.333 -11 27 -11c13.333 0 30 3.66699 50 11v-66c-37.333 -5.33301 -62.666 -8 -75.999 -8c-36.667 0 -61 6.66699 -73 20s-18 35 -18 65v328h-76v66h76v149h82v-149h85v-66h-85zM127.999 -38h80v-31
c0 -39.333 -9.66699 -77 -29 -113h-39c11.333 22 18 45 20 69h-32v75z" />
    <glyph glyph-name="Tcaron" unicode="&#x164;" horiz-adv-x="542" 
d="M528 624h-211v-624h-94v624h-212v82h517v-82zM406 895l-101 -124h-66l-105 124h76l62 -77l59 77h75z" />
    <glyph glyph-name="tcaron" unicode="&#x165;" horiz-adv-x="292" 
d="M174 405l-0.000976562 -303c0 -16.667 2.66699 -28.667 8 -36s14.333 -11 27 -11c13.333 0 30 3.66699 50 11v-66c-37.333 -5.33301 -62.666 -8 -75.999 -8c-36.667 0 -61 6.66699 -73 20s-18 35 -18 65v328h-76v66h76v149h82v-149h85v-66h-85zM208.999 706h74.999v-38
c0 -32.667 -2.16699 -58.834 -6.5 -78.501s-12.166 -45.167 -23.499 -76.5h-36c13.333 34.667 21.333 71.334 24 110.001h-33v83z" />
    <glyph glyph-name="Tbar" unicode="&#x166;" horiz-adv-x="542" 
d="M468 407h-151v-407h-94v407h-149v73h149v144h-212v82h517v-82h-211v-144h151v-73z" />
    <glyph glyph-name="tbar" unicode="&#x167;" horiz-adv-x="292" 
d="M239 263h-65.001v-161c0 -16.667 2.66699 -28.667 8 -36s14.333 -11 27 -11c13.333 0 30 3.66699 50 11v-66c-37.333 -5.33301 -62.666 -8 -75.999 -8c-36.667 0 -61 6.66699 -73 20s-18 35 -18 65v186h-66v64h66v78h-76v66h76v149h82v-149h85v-66h-85v-78h65v-64z" />
    <glyph glyph-name="Utilde" unicode="&#x168;" horiz-adv-x="688" 
d="M76 706l94.001 0.000976562v-467c0 -52.667 13.5 -95.334 40.5 -128.001s69.833 -49 128.5 -49c62 0 107 17.667 135 53s42 81 42 137v454h95v-473c0 -70 -23.333 -129.333 -70 -178s-114.334 -73 -203.001 -73c-84 0 -148.667 22.667 -194 68s-68 103 -68 173v483z
M437.001 882.001l46.999 -0.000976562c-9.33301 -67.333 -35.333 -101 -78 -101c-16 0 -38.333 5.83301 -67 17.5s-48 17.5 -58 17.5c-14.667 0 -24.667 -10 -30 -30h-48c2.66699 22.667 7.5 41.334 14.5 56.001s15.333 24.834 25 30.501s17.5 9.16699 23.5 10.5s13 2 21 2
c15.333 0 35.833 -5.5 61.5 -16.5s45.5 -16.5 59.5 -16.5c8.66699 0 14.834 2.16699 18.501 6.5s7.16699 12.166 10.5 23.499z" />
    <glyph glyph-name="utilde" unicode="&#x169;" horiz-adv-x="521" 
d="M454 0l-79 -0.000976562v72c-17.333 -26 -40.5 -46.5 -69.5 -61.5s-59.167 -22.5 -90.5 -22.5c-58.667 0 -100.667 20.667 -126 62c-16 26.667 -24 66 -24 118v303h79v-268c0 -48 3.66699 -79.667 11 -95c15.333 -30 44 -45 86 -45c50 0 87.333 18 112 54
c15.333 22.667 23 60.334 23 113.001v241h78v-471zM349 634.999h50c-2 -18 -4.83301 -33.333 -8.5 -46s-11.5 -24.834 -23.5 -36.501s-27.333 -17.5 -46 -17.5c-14.667 0 -36.167 5.66699 -64.5 17s-47.166 17 -56.499 17c-10.667 0 -18.5 -3.66699 -23.5 -11
s-7.5 -13.666 -7.5 -18.999h-49c8 66 35.333 99 82 99c15.333 0 36.666 -5.5 63.999 -16.5s45.333 -16.5 54 -16.5c19.333 0 29 10 29 30z" />
    <glyph glyph-name="Umacron" unicode="&#x16a;" horiz-adv-x="688" 
d="M76 706l94.001 0.000976562v-467c0 -52.667 13.5 -95.334 40.5 -128.001s69.833 -49 128.5 -49c62 0 107 17.667 135 53s42 81 42 137v454h95v-473c0 -70 -23.333 -129.333 -70 -178s-114.334 -73 -203.001 -73c-84 0 -148.667 22.667 -194 68s-68 103 -68 173v483z
M484.001 781.001h-285v68h285v-68z" />
    <glyph glyph-name="umacron" unicode="&#x16b;" horiz-adv-x="521" 
d="M454 0l-79 -0.000976562v72c-17.333 -26 -40.5 -46.5 -69.5 -61.5s-59.167 -22.5 -90.5 -22.5c-58.667 0 -100.667 20.667 -126 62c-16 26.667 -24 66 -24 118v303h79v-268c0 -48 3.66699 -79.667 11 -95c15.333 -30 44 -45 86 -45c50 0 87.333 18 112 54
c15.333 22.667 23 60.334 23 113.001v241h78v-471zM402 540.999h-285v68h285v-68z" />
    <glyph glyph-name="Ubreve" unicode="&#x16c;" horiz-adv-x="688" 
d="M76 706l94.001 0.000976562v-467c0 -52.667 13.5 -95.334 40.5 -128.001s69.833 -49 128.5 -49c62 0 107 17.667 135 53s42 81 42 137v454h95v-473c0 -70 -23.333 -129.333 -70 -178s-114.334 -73 -203.001 -73c-84 0 -148.667 22.667 -194 68s-68 103 -68 173v483z
M424.001 880.001h52.002c0 -26.667 -13.167 -51.5 -39.5 -74.5s-57.166 -34.5 -92.499 -34.5c-32.667 0 -62.667 10.167 -90 30.5s-41.333 46.5 -42 78.5h50c5.33301 -15.333 15.666 -26.833 30.999 -34.5s32.666 -11.5 51.999 -11.5c20.667 0 38.167 4.66699 52.5 14
s23.166 20 26.499 32z" />
    <glyph glyph-name="ubreve" unicode="&#x16d;" horiz-adv-x="521" 
d="M454 0l-79 -0.000976562v72c-17.333 -26 -40.5 -46.5 -69.5 -61.5s-59.167 -22.5 -90.5 -22.5c-58.667 0 -100.667 20.667 -126 62c-16 26.667 -24 66 -24 118v303h79v-268c0 -48 3.66699 -79.667 11 -95c15.333 -30 44 -45 86 -45c50 0 87.333 18 112 54
c15.333 22.667 23 60.334 23 113.001v241h78v-471zM133 653.999h50.001c5.33301 -19.333 15.166 -34.666 29.499 -45.999s30.5 -17 48.5 -17c17.333 0 33 6 47 18s23 27.333 27 46h52c0 -27.333 -11.667 -55.833 -35 -85.5s-54.333 -44.5 -93 -44.5c-36 0 -66 12.667 -90 38
s-36 55.666 -36 90.999z" />
    <glyph glyph-name="Uring" unicode="&#x16e;" horiz-adv-x="688" 
d="M76 706l94.001 0.000976562v-467c0 -52.667 13.5 -95.334 40.5 -128.001s69.833 -49 128.5 -49c62 0 107 17.667 135 53s42 81 42 137v454h95v-473c0 -70 -23.333 -129.333 -70 -178s-114.334 -73 -203.001 -73c-84 0 -148.667 22.667 -194 68s-68 103 -68 173v483z
M439.001 848.001c0 -26 -9.50098 -48.334 -28.501 -67.001s-41.5 -28 -67.5 -28c-26.667 0 -49.167 9.33301 -67.5 28s-27.5 41.334 -27.5 68.001c0 26 9.33301 48.167 28 66.5s41.334 27.5 68.001 27.5c26 0 48.333 -9.16699 67 -27.5s28 -40.833 28 -67.5zM394 849
c0 14 -5 25.833 -15 35.5s-22 14.5 -36 14.5s-25.833 -5 -35.5 -15s-14.5 -22 -14.5 -36s5 -25.833 15 -35.5s22 -14.5 36 -14.5c13.333 0 25 5 35 15s15 22 15 36z" />
    <glyph glyph-name="uring" unicode="&#x16f;" horiz-adv-x="521" 
d="M454 0l-79 -0.000976562v72c-17.333 -26 -40.5 -46.5 -69.5 -61.5s-59.167 -22.5 -90.5 -22.5c-58.667 0 -100.667 20.667 -126 62c-16 26.667 -24 66 -24 118v303h79v-268c0 -48 3.66699 -79.667 11 -95c15.333 -30 44 -45 86 -45c50 0 87.333 18 112 54
c15.333 22.667 23 60.334 23 113.001v241h78v-471zM354 607.999c0 -26.667 -9.16699 -49.167 -27.5 -67.5s-40.833 -27.5 -67.5 -27.5c-26 0 -48.167 9.33301 -66.5 28s-27.5 41 -27.5 67s9.16699 48.333 27.5 67s40.5 28 66.5 28c28 0 50.833 -9.83301 68.5 -29.5
s26.5 -41.5 26.5 -65.5zM311 608.999c0 14 -4.99902 26 -14.999 36s-22.333 15 -37 15s-26.834 -5 -36.501 -15s-14.5 -22 -14.5 -36s5 -26.167 15 -36.5s22 -15.5 36 -15.5c14.667 0 27 5.16699 37 15.5s15 22.5 15 36.5z" />
    <glyph glyph-name="Uhungarumlaut" unicode="&#x170;" horiz-adv-x="688" 
d="M76 706l94.001 0.000976562v-467c0 -52.667 13.5 -95.334 40.5 -128.001s69.833 -49 128.5 -49c62 0 107 17.667 135 53s42 81 42 137v454h95v-473c0 -70 -23.333 -129.333 -70 -178s-114.334 -73 -203.001 -73c-84 0 -148.667 22.667 -194 68s-68 103 -68 173v483z
M380.001 895.001l-87 -124h-58l53 124h92zM522.001 895.001l-87 -124h-58l53 124h92z" />
    <glyph glyph-name="uhungarumlaut" unicode="&#x171;" horiz-adv-x="521" 
d="M454 0l-79 -0.000976562v72c-17.333 -26 -40.5 -46.5 -69.5 -61.5s-59.167 -22.5 -90.5 -22.5c-58.667 0 -100.667 20.667 -126 62c-16 26.667 -24 66 -24 118v303h79v-268c0 -48 3.66699 -79.667 11 -95c15.333 -30 44 -45 86 -45c50 0 87.333 18 112 54
c15.333 22.667 23 60.334 23 113.001v241h78v-471zM427 664.999l-86 -144h-41l43 144h84zM293 664.999l-88 -144h-41l46 144h83z" />
    <glyph glyph-name="Uogonek" unicode="&#x172;" horiz-adv-x="688" 
d="M76 706l93.999 0.00195312v-467c0 -52.667 13.5 -95.334 40.5 -128.001s69.833 -49 128.5 -49c62 0 107 17.667 135 53s42 81 42 137v454h95v-473c0 -60.667 -16.833 -112.667 -50.5 -156s-81.5 -72.333 -143.5 -87c-18 -4 -32.5 -12.667 -43.5 -26
s-16.5 -26.333 -16.5 -39c0 -25.333 20.333 -38 61 -38h12v-74h-9c-49.333 0 -86.5 4.66699 -111.5 14s-37.5 29 -37.5 59c0 19.333 4 35.833 12 49.5s20.667 29.167 38 46.5c-79.333 2.66699 -140.166 26.667 -182.499 72s-63.5 101.666 -63.5 168.999v483z" />
    <glyph glyph-name="uogonek" unicode="&#x173;" horiz-adv-x="521" 
d="M376 471l78 -0.00195312v-471c-14.667 -4 -29.5 -13.667 -44.5 -29s-22.5 -30.666 -22.5 -45.999c0 -25.333 20.333 -38 61 -38h12v-74h-9c-49.333 0 -86.5 4.66699 -111.5 14s-37.5 29 -37.5 59c0 23.333 5.5 43 16.5 59s29.833 35.667 56.5 59v68
c-17.333 -26 -40.5 -46.5 -69.5 -61.5s-59.167 -22.5 -90.5 -22.5c-58.667 0 -100.667 20.667 -126 62c-16 26.667 -24 66 -24 118v303h79v-268c0 -48 3.66699 -79.667 11 -95c15.333 -30 44 -45 86 -45c50 0 87.333 18 112 54c15.333 22.667 23 60.334 23 113.001v241z" />
    <glyph glyph-name="Wcircumflex" unicode="&#x174;" horiz-adv-x="1021" 
d="M1003 706l-216 -706h-92l-186 585l-180 -585h-94l-217 706h99l167 -585l179 585h92l186 -585l165 585h97zM647 771h-77l-62 74l-59 -74h-75l101 124h65z" />
    <glyph glyph-name="wcircumflex" unicode="&#x175;" horiz-adv-x="729" 
d="M719 471l-173 -471h-70l-113 351l-115 -351h-73l-164 471h86l118 -350l116 350h70l111 -350l123 350h84zM497 523h-75l-61 95l-59 -95h-70l94 151h67z" />
    <glyph glyph-name="Ycircumflex" unicode="&#x176;" horiz-adv-x="625" 
d="M611 706l-254 -383v-323h-95v323l-248 383h111l186 -299l188 299h112zM449 771h-77l-62 74l-59 -74h-75l101 124h65z" />
    <glyph glyph-name="ycircumflex" unicode="&#x177;" horiz-adv-x="437" 
d="M342 471l83.001 0.000976562l-198 -557c-20 -56.667 -39.667 -95.334 -59 -116.001s-48.666 -31 -87.999 -31c-23.333 0 -47 3.33301 -71 10v72c16 -5.33301 33.667 -8 53 -8c23.333 0 41.166 6.5 53.499 19.5s25.166 39.167 38.499 78.5l20 58l-160 474h85l118 -374z
M351.001 523.001h-75l-61 95l-59 -95h-70l94 151h67z" />
    <glyph glyph-name="Ydieresis" unicode="&#x178;" horiz-adv-x="625" 
d="M611 706l-254 -383v-323h-95v323l-248 383h111l186 -299l188 299h112zM455 781h-88v102h88v-102zM258 781h-87v102h87v-102z" />
    <glyph glyph-name="Zacute" unicode="&#x179;" horiz-adv-x="604" 
d="M571 0h-553v92l436 528h-401v86h508v-88l-434 -533h444v-85zM413 895l-87 -124h-60l48 124h99z" />
    <glyph glyph-name="zacute" unicode="&#x17a;" horiz-adv-x="417" 
d="M389 0h-376v66l271 336h-245v69h344v-64l-274 -341h280v-66zM303 666l-86 -144h-41l41 144h86z" />
    <glyph glyph-name="Zdotaccent" unicode="&#x17b;" horiz-adv-x="604" 
d="M571 0h-553v92l436 528h-401v86h508v-88l-434 -533h444v-85zM339 781h-87v99h87v-99z" />
    <glyph glyph-name="zdotaccent" unicode="&#x17c;" horiz-adv-x="417" 
d="M389 0h-376v66l271 336h-245v69h344v-64l-274 -341h280v-66zM244 541h-87v99h87v-99z" />
    <glyph glyph-name="Zcaron" unicode="&#x17d;" horiz-adv-x="604" 
d="M571 0h-553v92l436 528h-401v86h508v-88l-434 -533h444v-85zM437 895l-101 -124h-66l-105 124h76l62 -77l59 77h75z" />
    <glyph glyph-name="zcaron" unicode="&#x17e;" horiz-adv-x="417" 
d="M389 0h-376v66l271 336h-245v69h344v-64l-274 -341h280v-66zM334 673l-96 -151h-67l-102 151h74l61 -96l59 96h71z" />
    <glyph glyph-name="longs" unicode="&#x17f;" horiz-adv-x="236" 
d="M89 471l0.000976562 41c0 62.667 4 104 12 124c16.667 43.333 54 65 112 65c17.333 0 36.666 -2 57.999 -6v-63c-10 3.33301 -24.667 5 -44 5c-40 0 -60 -25.333 -60 -76v-561h-78v405h-78v66h78z" />
    <glyph glyph-name="florin" unicode="&#x192;" horiz-adv-x="437" 
d="M437 704l-14.002 -60.001c-10 3.33301 -22 5 -36 5c-11.333 0 -20.5 -3.5 -27.5 -10.5s-11.667 -13.833 -14 -20.5s-5.5 -18.334 -9.5 -35.001l-27 -112h85l-15 -62h-84l-130 -541c-9.33301 -38.667 -23.166 -64.5 -41.499 -77.5s-40.833 -19.5 -67.5 -19.5
c-16 0 -36 4 -60 12l15 59c12 -4.66699 22.333 -7 31 -7c12.667 0 22.834 3.5 30.501 10.5s12.667 13.833 15 20.5s5.16602 16.667 8.49902 30l121 513h-72l15 62h72l34 132c4.66699 18 8.83398 31.833 12.501 41.5s9.66699 20.834 18 33.501s19.5 21.834 33.5 27.501
s31 8.5 51 8.5c19.333 0 38 -3.33301 56 -10z" />
    <glyph glyph-name="Aringacute" unicode="&#x1fa;" horiz-adv-x="646" 
d="M454 998l-127 -100h-60l84 100h103zM634 0h-99l-77 216h-269l-79 -216h-100l269 706h98zM430 295l-103 295l-108 -295h211zM397 809c0 -20.667 -6.83301 -37.667 -20.5 -51s-30.167 -20 -49.5 -20c-20 0 -36.667 6.66699 -50 20s-20 30.333 -20 51
c0 19.333 6.83301 35.833 20.5 49.5s30.167 20.5 49.5 20.5c20 0 36.667 -6.66699 50 -20s20 -30 20 -50zM360 809c0 10.667 -3.16699 19.167 -9.5 25.5s-14.166 9.5 -23.499 9.5c-10 0 -18 -3.33301 -24 -10s-9 -15 -9 -25c0 -23.333 11 -35 33 -35
c9.33301 0 17.166 3.33301 23.499 10s9.5 15 9.5 25z" />
    <glyph glyph-name="aringacute" unicode="&#x1fb;" horiz-adv-x="500" 
d="M355 861l-106 -138h-39l60 138h85zM486 70l0.00292969 -67c-18 -6 -35 -9 -51 -9c-22 0 -38.667 4 -50 12c-8.66699 6.66699 -16 16 -22 28s-9.33301 22 -10 30c-47.333 -51.333 -101 -77 -161 -77c-47.333 0 -85.833 12.5 -115.5 37.5s-44.5 57.5 -44.5 97.5
c0 42 17 76 51 102c39.333 29.333 103 47 191 53l72 5v16c0 12.667 -0.333008 23 -1 31s-2.83398 18.667 -6.50098 32s-8.83398 24.166 -15.501 32.499s-17 15.666 -31 21.999s-31 9.5 -51 9.5c-32.667 0 -57.834 -8 -75.501 -24s-26.5 -38.667 -26.5 -68v-7l-83 5
c0 7.33301 0.833008 15.833 2.5 25.5s6.16699 22.5 13.5 38.5s17 30.333 29 43s29.833 23.834 53.5 33.501s51.167 14.5 82.5 14.5c47.333 0 86.666 -9.33301 117.999 -28c30.667 -17.333 50.167 -38.166 58.5 -62.499s12.5 -60.5 12.5 -108.5v-166
c0 -12 0.5 -21.167 1.5 -27.5s4.33301 -12.5 10 -18.5s13.834 -9 24.501 -9c4 0 12 1.33301 24 4zM347.003 193l-0.000976562 36.999c-96.667 -15.333 -153 -26.666 -169 -33.999c-38.667 -15.333 -58 -39.333 -58 -72c0 -19.333 7.5 -35.833 22.5 -49.5
s37.167 -20.5 66.5 -20.5c13.333 0 26.833 1.66699 40.5 5s28.334 9.5 44.001 18.5s28.5 23.5 38.5 43.5s15 44 15 72zM334.002 600.999c0 -24.667 -8.5 -45.5 -25.5 -62.5s-37.833 -25.5 -62.5 -25.5c-24 0 -44.5 8.66699 -61.5 26s-25.5 38 -25.5 62s8.5 44.667 25.5 62
s37.5 26 61.5 26c26.667 0 48 -9.16699 64 -27.5s24 -38.5 24 -60.5zM291.002 601.999c0 12.667 -4.33301 23.334 -13 32.001s-19.334 13 -32.001 13s-23.167 -4.33301 -31.5 -13s-12.5 -19.334 -12.5 -32.001s4.16699 -23.5 12.5 -32.5s18.833 -13.5 31.5 -13.5
s23.334 4.5 32.001 13.5s13 19.833 13 32.5z" />
    <glyph glyph-name="AEacute" unicode="&#x1fc;" horiz-adv-x="1042" 
d="M1014 0h-500v232h-252l-154 -232h-110l483 706h521v-83h-395v-231h319v-79h-319v-231h407v-82zM514 313v302l-197 -302h197zM810 895l-87 -124h-60l48 124h99z" />
    <glyph glyph-name="aeacute" unicode="&#x1fd;" horiz-adv-x="812" 
d="M779 214l-342.001 0.000976562c0 -48.667 11.333 -87.667 34 -117c24 -31.333 57.667 -47 101 -47c29.333 0 54.5 9.33301 75.5 28s34.167 42.667 39.5 72l84 -13c-9.33301 -36 -27.666 -67 -54.999 -93c-41.333 -39.333 -92.666 -59 -153.999 -59
c-80.667 0 -139.667 33 -177 99c-51.333 -66 -115 -99 -191 -99c-44.667 0 -82.667 11.667 -114 35s-47 56 -47 98c0 29.333 8.33301 55.5 25 78.5s38.667 40.5 66 52.5c36 15.333 89.333 23 160 23h73v19c0 36.667 -10.5 68.167 -31.5 94.5s-48.833 39.5 -83.5 39.5
c-26.667 0 -49.667 -8.16699 -69 -24.5s-30 -39.833 -32 -70.5l-84 6c3.33301 27.333 10 50 20 68c12 21.333 31.5 40.333 58.5 57s61.833 25 104.5 25c74 0 127 -28 159 -84c38.667 56 92.667 84 162 84c65.333 0 118.666 -25.333 159.999 -76
c38.667 -48.667 58 -112.334 58 -191.001v-5zM435.999 272.001l258 0.000976562c-2 41.333 -14 75 -36 101c-26 31.333 -58 47 -96 47c-41.333 0 -74.333 -18.667 -99 -56c-18 -26.667 -27 -57.334 -27 -92.001zM356.999 214.002l-63 -0.000976562
c-52 0 -94.667 -8 -128 -24s-50 -39 -50 -69c0 -18 7.83301 -34.667 23.5 -50s39.167 -23 70.5 -23c46 0 82 16.333 108 49s39 68.334 39 107.001v10zM495.999 666.001l-86 -144h-41l41 144h86z" />
    <glyph glyph-name="Oslashacute" unicode="&#x1fe;" horiz-adv-x="812" 
d="M715 699l47.998 -51l-70 -68c46.667 -68 70 -143 70 -225c0 -28 -3.33301 -57.333 -10 -88s-18.667 -63.334 -36 -98.001s-39 -65.5 -65 -92.5s-61 -49.5 -105 -67.5s-93.333 -27 -148 -27c-48 0 -90 7 -126 21s-73.333 36.667 -112 68l-65 -62l-49 50l69 66
c-44 76 -66 152 -66 228c0 42.667 6.5 84.667 19.5 126s32.833 80.833 59.5 118.5s63.834 68.167 111.501 91.5s102.167 35 163.5 35c53.333 0 96.833 -7.16699 130.5 -21.5s70.834 -37.166 111.501 -68.499zM185.998 193l394.001 378c-46.667 52 -106.334 78 -179.001 78
c-80.667 0 -142 -28.5 -184 -85.5s-63 -128.167 -63 -213.5c0 -54.667 10.667 -107 32 -157zM620.999 512l-397.001 -381c50.667 -50 111.334 -75 182.001 -75c44 0 83 8.83301 117 26.5s60.5 41 79.5 70s33.167 59.5 42.5 91.5s14 64.333 14 97c0 62 -12.667 119 -38 171z
M501.998 895l-87 -124h-60l48 124h99z" />
    <glyph glyph-name="oslashacute" unicode="&#x1ff;" horiz-adv-x="542" 
d="M471 468l35 -35.999l-46 -46c28.667 -44.667 43 -95.334 43 -152.001c0 -34 -5 -65.667 -15 -95c-5.33301 -15.333 -12.5 -30.333 -21.5 -45s-21.833 -31 -38.5 -49s-38.667 -32.5 -66 -43.5s-58 -16.5 -92 -16.5c-64 0 -116.333 21.333 -157 64l-40 -40l-35 36l43 42
c-26.667 43.333 -40 92 -40 146c0 40 6.66699 76.333 20 109c18 44 46 79 84 105s80.667 39 128 39c56.667 0 108 -20.333 154 -61zM142 148.001l231 224.001c-31.333 33.333 -66 50 -104 50c-40 0 -74 -16.333 -102 -49s-42 -76.334 -42 -131.001
c0 -34 5.66699 -65.333 17 -94zM401 328.002l-232 -225c24 -36 58.667 -54 104 -54c42 0 77.167 16 105.5 48s42.5 76.333 42.5 133c0 39.333 -6.66699 72 -20 98zM370 666.002l-86 -144h-41l41 144h86z" />
    <glyph glyph-name="Scommaaccent" unicode="&#x218;" horiz-adv-x="667" 
d="M37 226l100.997 12.9951c0 -6.66699 0.333008 -13 1 -19s2.5 -15.667 5.5 -29s7 -25.333 12 -36s12.667 -22.5 23 -35.5s22.333 -23.833 36 -32.5s31.334 -16 53.001 -22s45.834 -9 72.501 -9c17.333 0 35 2 53 6s36.833 10.667 56.5 20s35.667 23.833 48 43.5
s18.5 43.5 18.5 71.5c0 36 -11.333 62.333 -34 79s-56 29.334 -100 38.001l-64 13c-84 16.667 -146.333 40.167 -187 70.5s-61 73.833 -61 130.5c0 54.667 22.333 100.667 67 138c46.667 38.667 107.667 58 183 58c84 0 149 -17.667 195 -53
c28.667 -21.333 49.167 -44.5 61.5 -69.5s21.833 -56.5 28.5 -94.5l-95 -6c0 10 -1.16699 20.5 -3.5 31.5s-7.33301 23.833 -15 38.5s-17.667 27.667 -30 39s-30.166 21 -53.499 29s-50 12 -80 12c-25.333 0 -49.333 -3 -72 -9s-43.167 -17.667 -61.5 -35
s-27.5 -39.666 -27.5 -66.999c0 -31.333 11.833 -54.833 35.5 -70.5s58.834 -29.167 105.501 -40.5l129 -31c13.333 -3.33301 24.166 -6.16602 32.499 -8.49902s23 -8.66602 44 -18.999s38 -21.833 51 -34.5s25 -30.667 36 -54s16.5 -49.666 16.5 -78.999
c0 -58 -19.667 -106.333 -59 -145c-52 -50.667 -126.333 -76 -223 -76c-78 0 -142.333 16.333 -193 49c-62 40 -97.333 105 -106 195zM293.997 -38.0049h80v-31c0 -39.333 -9.66699 -77 -29 -113h-39c11.333 22 18 45 20 69h-32v75z" />
    <glyph glyph-name="scommaaccent" unicode="&#x219;" horiz-adv-x="479" 
d="M31 152l91.002 13.002c0 -36.667 8.66699 -64.334 26 -83.001c22 -24 57.333 -36 106 -36c27.333 0 52.333 5.83301 75 17.5s34 32.167 34 61.5c0 13.333 -2.66699 24.666 -8 33.999s-13.833 16.666 -25.5 21.999s-21.667 9.16602 -30 11.499s-19.833 4.83301 -34.5 7.5
l-46 9c-62 12 -105.5 29.167 -130.5 51.5s-37.5 50.833 -37.5 85.5c0 47.333 18.167 82.5 54.5 105.5s79.166 34.5 128.499 34.5c44 0 80.667 -8.33301 110 -25s51.333 -36 66 -58c12.667 -19.333 21 -43.333 25 -72l-86 -10c-0.666992 21.333 -3 36 -7 44
c-7.33301 15.333 -21.333 29.166 -42 41.499s-46.334 18.5 -77.001 18.5c-30 0 -53 -7.16699 -69 -21.5s-24 -30.166 -24 -47.499c0 -19.333 9 -34.166 27 -44.499s47 -20.166 87 -29.499l46 -11c50.667 -12 89.5 -28 116.5 -48s40.5 -49.667 40.5 -89
c0 -44.667 -18.667 -80.667 -56 -108s-84.333 -41 -141 -41c-129.333 0 -202.333 55.667 -219 167zM203.002 -37.998h80v-31c0 -39.333 -9.66699 -77 -29 -113h-39c11.333 22 18 45 20 69h-32v75z" />
    <glyph glyph-name="uni021A" unicode="&#x21a;" horiz-adv-x="542" 
d="M528 624h-211v-624h-94v624h-212v82h517v-82zM232 -38h80v-31c0 -39.333 -9.66699 -77 -29 -113h-39c11.333 22 18 45 20 69h-32v75z" />
    <glyph glyph-name="uni021B" unicode="&#x21b;" horiz-adv-x="292" 
d="M174 405l-0.000976562 -303c0 -16.667 2.66699 -28.667 8 -36s14.333 -11 27 -11c13.333 0 30 3.66699 50 11v-66c-37.333 -5.33301 -62.666 -8 -75.999 -8c-36.667 0 -61 6.66699 -73 20s-18 35 -18 65v328h-76v66h76v149h82v-149h85v-66h-85zM127.999 -38h80v-31
c0 -39.333 -9.66699 -77 -29 -113h-39c11.333 22 18 45 20 69h-32v75z" />
    <glyph glyph-name="circumflex" unicode="&#x2c6;" horiz-adv-x="271" 
d="M268 523h-75l-61 95l-59 -95h-70l94 151h67z" />
    <glyph glyph-name="caron" unicode="&#x2c7;" horiz-adv-x="271" 
d="M268 673l-96 -151h-67l-102 151h74l61 -96l59 96h71z" />
    <glyph glyph-name="uni02C9" unicode="&#x2c9;" horiz-adv-x="271" 
d="M278 541h-285v68h285v-68z" />
    <glyph glyph-name="breve" unicode="&#x2d8;" horiz-adv-x="271" 
d="M9 654h50.001c5.33301 -19.333 15.166 -34.666 29.499 -45.999s30.5 -17 48.5 -17c17.333 0 33 6 47 18s23 27.333 27 46h52c0 -27.333 -11.667 -55.833 -35 -85.5s-54.333 -44.5 -93 -44.5c-36 0 -66 12.667 -90 38s-36 55.666 -36 90.999z" />
    <glyph glyph-name="dotaccent" unicode="&#x2d9;" horiz-adv-x="271" 
d="M179 541h-87v99h87v-99z" />
    <glyph glyph-name="ring" unicode="&#x2da;" horiz-adv-x="271" 
d="M230 608c0 -26.667 -9.16699 -49.167 -27.5 -67.5s-40.833 -27.5 -67.5 -27.5c-26 0 -48.167 9.33301 -66.5 28s-27.5 41 -27.5 67s9.16699 48.333 27.5 67s40.5 28 66.5 28c28 0 50.833 -9.83301 68.5 -29.5s26.5 -41.5 26.5 -65.5zM187 609
c0 14 -4.99902 26 -14.999 36s-22.333 15 -37 15s-26.834 -5 -36.501 -15s-14.5 -22 -14.5 -36s5 -26.167 15 -36.5s22 -15.5 36 -15.5c14.667 0 27 5.16699 37 15.5s15 22.5 15 36.5z" />
    <glyph glyph-name="ogonek" unicode="&#x2db;" horiz-adv-x="271" 
d="M132 6c41.333 -0.666992 65.668 -1 73.001 -1c-12.667 -9.33301 -22.334 -16.833 -29.001 -22.5s-14 -14.167 -22 -25.5s-12 -22 -12 -32c0 -25.333 20.333 -38 61 -38h12v-74h-9c-49.333 0 -86.5 4.66699 -111.5 14s-37.5 29 -37.5 59c0 16.667 3.66699 32.167 11 46.5
s15 25.833 23 34.5s21.667 21.667 41 39z" />
    <glyph glyph-name="tilde" unicode="&#x2dc;" horiz-adv-x="271" 
d="M225 635h50c-2 -18 -4.83301 -33.333 -8.5 -46s-11.5 -24.834 -23.5 -36.501s-27.333 -17.5 -46 -17.5c-14.667 0 -36.167 5.66699 -64.5 17s-47.166 17 -56.499 17c-10.667 0 -18.5 -3.66699 -23.5 -11s-7.5 -13.666 -7.5 -18.999h-49c8 66 35.333 99 82 99
c15.333 0 36.666 -5.5 63.999 -16.5s45.333 -16.5 54 -16.5c19.333 0 29 10 29 30z" />
    <glyph glyph-name="hungarumlaut" unicode="&#x2dd;" horiz-adv-x="271" 
d="M267 665l-86 -144h-41l43 144h84zM133 665l-88 -144h-41l46 144h83z" />
    <glyph glyph-name="uni037E" unicode="&#x37e;" horiz-adv-x="271" 
d="M206 380h-99v110h99v-110zM107 111h99v-61c0 -80.667 -13 -149 -39 -205h-45c16.667 52 25 103.667 25 155h-40v111z" />
    <glyph glyph-name="tonos" unicode="&#x384;" horiz-adv-x="271" 
d="M199 666l-86 -144h-41l41 144h86z" />
    <glyph glyph-name="dieresistonos" unicode="&#x385;" horiz-adv-x="544" 
d="M447 541h-81v96h81v-96zM355 683l-74 -142h-58l32 142h100zM183 541h-80v96h80v-96z" />
    <glyph glyph-name="Alphatonos" unicode="&#x386;" horiz-adv-x="646" 
d="M634 0h-99l-77 216h-269l-79 -216h-100l269 706h98zM430 295l-103 295l-108 -295h211zM139 706l-86 -144h-41l41 144h86z" />
    <glyph glyph-name="anoteleia" unicode="&#x387;" horiz-adv-x="200" 
d="M151 228h-102v124h102v-124z" />
    <glyph glyph-name="Epsilontonos" unicode="&#x388;" horiz-adv-x="604" 
d="M577 0h-498v706h486v-83h-396v-218h344v-82h-344v-241h408v-82zM9 706l-86 -144h-41l41 144h86z" />
    <glyph glyph-name="Etatonos" unicode="&#x389;" horiz-adv-x="729" 
d="M651 0h-95v323h-384v-323h-93v706h93v-300h384v300h95v-706zM9 706l-86 -144h-41l41 144h86z" />
    <glyph glyph-name="Iotatonos" unicode="&#x38a;" horiz-adv-x="229" 
d="M162 0h-95v706h95v-706zM9 706l-86 -144h-41l41 144h86z" />
    <glyph glyph-name="Omicrontonos" unicode="&#x38c;" horiz-adv-x="812" 
d="M762 359c0 -36 -3.83496 -71.167 -11.502 -105.5s-20.5 -68.166 -38.5 -101.499s-40.5 -62.333 -67.5 -87s-61.167 -44.667 -102.5 -60s-87.333 -23 -138 -23c-46.667 0 -90.834 7.66699 -132.501 23s-79.167 37.833 -112.5 67.5s-59.666 68.667 -78.999 117
s-29 103.166 -29 164.499c0 62 10 117.333 30 166s46.833 87.5 80.5 116.5s71.334 50.833 113.001 65.5s85.834 22 132.501 22c106.667 0 192.5 -33.833 257.5 -101.5s97.5 -155.5 97.5 -263.5zM152.998 353c0 -91.333 22.833 -163.664 68.5 -216.997s108.167 -80 187.5 -80
c74 0 134.333 25.5 181 76.5s70 126.5 70 226.5c0 37.333 -4.5 72.333 -13.5 105s-22.833 63.167 -41.5 91.5s-45 50.833 -79 67.5s-73.667 25 -119 25c-44.667 0 -84 -8.33301 -118 -25s-60.5 -39.334 -79.5 -68.001s-33.167 -59.834 -42.5 -93.501
s-14 -69.834 -14 -108.501zM58.998 706.002l-86 -144h-41l41 144h86z" />
    <glyph glyph-name="Upsilontonos" unicode="&#x38e;" horiz-adv-x="625" 
d="M611 706l-254 -383v-323h-95v323l-248 383h111l186 -299l188 299h112zM-11 706l-86 -144h-41l41 144h86z" />
    <glyph glyph-name="Omegatonos" unicode="&#x38f;" horiz-adv-x="820" 
d="M765 374c0 -113.333 -53 -210.666 -159 -291.999h155v-82h-294v72c130.667 63.333 196 164 196 302c0 81.333 -22.5 147.333 -67.5 198s-106.833 76 -185.5 76s-140.5 -25.333 -185.5 -76s-67.5 -116.667 -67.5 -198c0 -138 65.333 -238.667 196 -302v-72h-294v82h155
c-106 81.333 -159 178.666 -159 291.999c0 104 33.5 188.333 100.5 253s151.833 97 254.5 97s187.5 -32.333 254.5 -97s100.5 -149 100.5 -253zM59 706l-86 -144h-41l41 144h86z" />
    <glyph glyph-name="iotadieresistonos" unicode="&#x390;" horiz-adv-x="222" 
d="M202 66l-0.000976562 -66c-18 -6 -37 -9 -57 -9c-53.333 0 -80 30.333 -80 91v389h77v-354c0 -12 0.5 -21.167 1.5 -27.5s4.33301 -12.5 10 -18.5s13.834 -9 24.501 -9c5.33301 0 13.333 1.33301 24 4zM269.999 541h-81v96h81v-96zM177.999 683l-74 -142h-58l32 142h100z
M5.99902 541h-80v96h80v-96z" />
    <glyph glyph-name="Alpha" unicode="&#x391;" horiz-adv-x="646" 
d="M634 0h-99l-77 216h-269l-79 -216h-100l269 706h98zM430 295l-103 295l-108 -295h211z" />
    <glyph glyph-name="Beta" unicode="&#x392;" horiz-adv-x="688" 
d="M77 0l0.000976562 705.999h339c54.667 0 102.167 -16.167 142.5 -48.5s60.5 -76.5 60.5 -132.5c0 -36 -9.83301 -68.167 -29.5 -96.5s-45.834 -47.166 -78.501 -56.499c86 -26 129 -85 129 -177c0 -30 -5 -56.833 -15 -80.5s-22.5 -42.5 -37.5 -56.5
s-32.667 -25.5 -53 -34.5s-39.833 -15.167 -58.5 -18.5s-37.667 -5 -57 -5h-342zM166.001 408.999h209c96.667 0 145 37 145 111c0 31.333 -9.66699 56.333 -29 75s-50 28 -92 28h-233v-214zM166.001 82.999h228.999c20.667 0 38.334 1.16699 53.001 3.5s30 7.33301 46 15
s28.167 20 36.5 37s12.5 38.167 12.5 63.5c0 41.333 -13.167 72.833 -39.5 94.5s-61.5 32.5 -105.5 32.5h-232v-246z" />
    <glyph glyph-name="Gamma" unicode="&#x393;" horiz-adv-x="544" 
d="M507 622h-339v-622h-91v706h430v-84z" />
    <glyph glyph-name="uni0394" unicode="&#x394;" horiz-adv-x="640" 
d="M644 0h-648l277 706h97zM510 82l-191 510l-189 -510h380z" />
    <glyph glyph-name="Epsilon" unicode="&#x395;" horiz-adv-x="604" 
d="M577 0h-498v706h486v-83h-396v-218h344v-82h-344v-241h408v-82z" />
    <glyph glyph-name="Zeta" unicode="&#x396;" horiz-adv-x="604" 
d="M571 0h-553v92l436 528h-401v86h508v-88l-434 -533h444v-85z" />
    <glyph glyph-name="Eta" unicode="&#x397;" horiz-adv-x="729" 
d="M651 0h-95v323h-384v-323h-93v706h93v-300h384v300h95v-706z" />
    <glyph glyph-name="Theta" unicode="&#x398;" horiz-adv-x="812" 
d="M762 359c0 -36 -3.83496 -71.167 -11.502 -105.5s-20.5 -68.166 -38.5 -101.499s-40.5 -62.333 -67.5 -87s-61.167 -44.667 -102.5 -60s-87.333 -23 -138 -23c-46.667 0 -90.834 7.66699 -132.501 23s-79.167 37.833 -112.5 67.5s-59.666 68.667 -78.999 117
s-29 103.166 -29 164.499c0 62 10 117.333 30 166s46.833 87.5 80.5 116.5s71.334 50.833 113.001 65.5s85.834 22 132.501 22c106.667 0 192.5 -33.833 257.5 -101.5s97.5 -155.5 97.5 -263.5zM152.998 353c0 -91.333 22.833 -163.664 68.5 -216.997s108.167 -80 187.5 -80
c74 0 134.333 25.5 181 76.5s70 126.5 70 226.5c0 37.333 -4.5 72.333 -13.5 105s-22.833 63.167 -41.5 91.5s-45 50.833 -79 67.5s-73.667 25 -119 25c-44.667 0 -84 -8.33301 -118 -25s-60.5 -39.334 -79.5 -68.001s-33.167 -59.834 -42.5 -93.501
s-14 -69.834 -14 -108.501zM573.998 325.002h-331v80h331v-80z" />
    <glyph glyph-name="Iota" unicode="&#x399;" horiz-adv-x="229" 
d="M162 0h-95v706h95v-706z" />
    <glyph glyph-name="Kappa" unicode="&#x39a;" horiz-adv-x="625" 
d="M624 0h-115l-248 348l-100 -102v-246h-94v706h94v-345l335 345h116l-286 -292z" />
    <glyph glyph-name="Lambda" unicode="&#x39b;" horiz-adv-x="639" 
d="M626 0h-104l-198 592l-207 -592h-104l264 706h96z" />
    <glyph glyph-name="Mu" unicode="&#x39c;" horiz-adv-x="812" 
d="M746 0h-94l13 592l-223 -592h-73l-219 583c6.66699 -374.667 10 -569 10 -583h-92v706h122l216 -579l218 579h122v-706z" />
    <glyph glyph-name="Nu" unicode="&#x39d;" horiz-adv-x="708" 
d="M630 0l-85 -0.00195312l-387 574c6 -373.333 9 -564.666 9 -573.999h-89v706h89l382 -566c-2.66699 362.667 -4 551.334 -4 566.001h85v-706z" />
    <glyph glyph-name="Xi" unicode="&#x39e;" horiz-adv-x="605" 
d="M571 619h-537v87h537v-87zM519 322h-433v87h433v-87zM577 0h-549v88h549v-88z" />
    <glyph glyph-name="Omicron" unicode="&#x39f;" horiz-adv-x="812" 
d="M762 359c0 -36 -3.83496 -71.167 -11.502 -105.5s-20.5 -68.166 -38.5 -101.499s-40.5 -62.333 -67.5 -87s-61.167 -44.667 -102.5 -60s-87.333 -23 -138 -23c-46.667 0 -90.834 7.66699 -132.501 23s-79.167 37.833 -112.5 67.5s-59.666 68.667 -78.999 117
s-29 103.166 -29 164.499c0 62 10 117.333 30 166s46.833 87.5 80.5 116.5s71.334 50.833 113.001 65.5s85.834 22 132.501 22c106.667 0 192.5 -33.833 257.5 -101.5s97.5 -155.5 97.5 -263.5zM152.998 353c0 -91.333 22.833 -163.664 68.5 -216.997s108.167 -80 187.5 -80
c74 0 134.333 25.5 181 76.5s70 126.5 70 226.5c0 37.333 -4.5 72.333 -13.5 105s-22.833 63.167 -41.5 91.5s-45 50.833 -79 67.5s-73.667 25 -119 25c-44.667 0 -84 -8.33301 -118 -25s-60.5 -39.334 -79.5 -68.001s-33.167 -59.834 -42.5 -93.501
s-14 -69.834 -14 -108.501z" />
    <glyph glyph-name="Pi" unicode="&#x3a0;" horiz-adv-x="709" 
d="M632 0h-95v622h-367v-622h-93v706h555v-706z" />
    <glyph glyph-name="Rho" unicode="&#x3a1;" horiz-adv-x="625" 
d="M76 706h334.999c66 0 116.333 -18.5 151 -55.5s52 -84.833 52 -143.5c0 -35.333 -6.16699 -68 -18.5 -98s-34.666 -55.833 -66.999 -77.5s-72.5 -32.5 -120.5 -32.5h-241v-299h-91v706zM166.999 383l227.001 0.000976562c38.667 0 69.5 10.667 92.5 32
s34.5 52.666 34.5 93.999c0 39.333 -11.333 68.5 -34 87.5s-53.334 28.5 -92.001 28.5h-228v-242z" />
    <glyph glyph-name="Sigma" unicode="&#x3a3;" horiz-adv-x="594" 
d="M32 630v76h533v-83h-413l218 -251l-239 -287h444v-85h-553v92l235 277z" />
    <glyph glyph-name="Tau" unicode="&#x3a4;" horiz-adv-x="542" 
d="M528 624h-211v-624h-94v624h-212v82h517v-82z" />
    <glyph glyph-name="Upsilon" unicode="&#x3a5;" horiz-adv-x="625" 
d="M611 706l-254 -383v-323h-95v323l-248 383h111l186 -299l188 299h112z" />
    <glyph glyph-name="Phi" unicode="&#x3a6;" horiz-adv-x="845" 
d="M804 352c0 -34.667 -5.66992 -67.667 -17.0029 -99s-29 -61.666 -53 -90.999s-58.667 -53.333 -104 -72s-98.666 -29.667 -159.999 -33v-57h-95v57c-61.333 3.33301 -114.666 14.333 -159.999 33s-80 42.667 -104 72s-41.667 59.666 -53 90.999s-17 64.333 -17 99
s5.33301 67.834 16 99.501s28 62.667 52 93s58.667 55.166 104 74.499s99.333 30.666 162 33.999v53h95v-53c50.667 -2.66699 95.834 -10.834 135.501 -24.501s71.667 -30.5 96 -50.5s44.5 -43.167 60.5 -69.5s27 -52.166 33 -77.499s9 -51.666 9 -78.999zM701.997 352
c0 61.333 -19.667 113.669 -59 157.002s-97 66.666 -173 69.999v-449c74.667 3.33301 132 26.166 172 68.499s60 93.5 60 153.5zM374.997 130.003v448.998c-76 -3.33301 -133.667 -26.666 -173 -69.999s-59 -95.666 -59 -156.999c0 -59.333 20 -110.333 60 -153
s97.333 -65.667 172 -69z" />
    <glyph glyph-name="Chi" unicode="&#x3a7;" horiz-adv-x="625" 
d="M605 0h-111l-183 287l-181 -287h-109l235 370l-222 336h112l165 -254l158 254h111l-216 -336z" />
    <glyph glyph-name="Psi" unicode="&#x3a8;" horiz-adv-x="830" 
d="M773 429c0 -170.667 -103.67 -261 -311.003 -271v-158h-95v158c-18 0.666992 -34.667 1.83398 -50 3.50098s-34.166 5 -56.499 10s-42.166 11.167 -59.499 18.5s-35.333 18 -54 32s-34.334 30 -47.001 48s-23 40.667 -31 68s-12 57.666 -12 90.999v277h95v-291
c0 -111.333 71.667 -171 215 -179v470h95v-470c26.667 1.33301 51.334 4.83301 74.001 10.5s45.334 14.667 68.001 27s40.667 30.5 54 54.5s20 53 20 87v291h95v-277z" />
    <glyph glyph-name="uni03A9" unicode="&#x3a9;" horiz-adv-x="742" 
d="M692 0l-270.997 0.00488281v80c29.333 10 54.666 25.833 75.999 47.5s37.666 46.5 48.999 74.5s19.666 56.667 24.999 86s8 59.666 8 90.999c0 81.333 -18.5 146 -55.5 194s-87.167 72 -150.5 72c-66.667 0 -118.667 -24.833 -156 -74.5s-56 -118.834 -56 -207.501
c0 -43.333 4.5 -82.833 13.5 -118.5s25.833 -68.834 50.5 -99.501s56.334 -52.334 95.001 -65.001v-80h-271v80h158c-97.333 58 -146 158 -146 300c0 102.667 28.667 185.5 86 248.5s132.666 94.5 225.999 94.5c94.667 0 169 -29.333 223 -88s81 -139.334 81 -242.001
c0 -70.667 -13.333 -133 -40 -187s-64.667 -96 -114 -126h169v-80z" />
    <glyph glyph-name="Iotadieresis" unicode="&#x3aa;" horiz-adv-x="229" 
d="M162 0h-95v706h95v-706zM257 781h-88v102h88v-102zM60 781h-87v102h87v-102z" />
    <glyph glyph-name="Upsilondieresis" unicode="&#x3ab;" horiz-adv-x="613" 
d="M605 706l-254 -383v-323h-95v323l-248 383h111l186 -299l188 299h112zM455 781h-88v102h88v-102zM258 781h-87v102h87v-102z" />
    <glyph glyph-name="alphatonos" unicode="&#x3ac;" horiz-adv-x="578" 
d="M386 666l-86 -144h-41l41 144h86zM498 471v-354.002c0 -12 0.5 -21.167 1.5 -27.5s4.33301 -12.5 10 -18.5s13.834 -9 24.501 -9c4 0 12 1.33301 24 4v-66c-18 -6 -36.667 -9 -56 -9c-48.667 0 -75 26 -79 78c-38.667 -56 -94 -84 -166 -84
c-67.333 0 -120.333 23.333 -159 70s-58 107.334 -58 182.001c0 43.333 6.66699 81.833 20 115.5s30.833 59.834 52.5 78.501s44.667 32.5 69 41.5s49.166 13.5 74.499 13.5c41.333 0 75.5 -8.66699 102.5 -26s46.833 -36 59.5 -56v67h80zM420 241.998
c0 49.333 -13.168 90.167 -39.501 122.5s-61.5 48.5 -105.5 48.5c-50 0 -87.333 -17.333 -112 -52s-37 -77 -37 -127c0 -48.667 11.5 -90.5 34.5 -125.5s60.5 -52.5 112.5 -52.5c40.667 0 75.334 14.5 104.001 43.5s43 76.5 43 142.5z" />
    <glyph glyph-name="epsilontonos" unicode="&#x3ad;" horiz-adv-x="504" 
d="M484 110c-26 -46 -57.001 -78.335 -93.001 -97.002s-80.333 -28 -133 -28c-145.333 0 -218 47.333 -218 142c0 30.667 11.167 58 33.5 82s50.5 38.333 84.5 43c-32 4.66699 -56.333 16.334 -73 35.001s-25 40.667 -25 66c0 45.333 18.167 78.833 54.5 100.5
s83.5 32.5 141.5 32.5c116 0 185.667 -44.667 209 -134l-80 -19c-4 24.667 -15.5 46.334 -34.5 65.001s-48.5 28 -88.5 28c-77.333 0 -116 -26 -116 -78c0 -22 8.33301 -39 25 -51s40.334 -18 71.001 -18h95v-57h-102c-30.667 0 -56 -7 -76 -21s-30 -36.667 -30 -68
c0 -26 10.333 -46.833 31 -62.5s52.667 -23.5 96 -23.5c78 0 130 31.333 156 94zM374.999 665.998l-86 -144h-41l41 144h86z" />
    <glyph glyph-name="etatonos" unicode="&#x3ae;" horiz-adv-x="547" 
d="M30 405l-0.000976562 66c18.667 7.33301 37.334 11 56.001 11c28 0 49 -5.66699 63 -17s21 -32.333 21 -63c34 56 83.333 84 148 84c10.667 0 22.334 -1.16699 35.001 -3.5s29.167 -8.66602 49.5 -18.999s36.833 -24.5 49.5 -42.5c19.333 -27.333 29 -68.333 29 -123
v-522h-79v533c0 34 -10.333 59.5 -31 76.5s-46 25.5 -76 25.5c-34.667 0 -64.167 -11.833 -88.5 -35.5s-36.5 -55.834 -36.5 -96.501v-279h-80v354c0 12 -0.5 21.167 -1.5 27.5s-4.33301 12.5 -10 18.5s-13.834 9 -24.501 9c-4 0 -12 -1.33301 -24 -4zM379.999 666l-86 -144
h-41l41 144h86z" />
    <glyph glyph-name="iotatonos" unicode="&#x3af;" horiz-adv-x="222" 
d="M202 66l-0.000976562 -66c-18 -6 -37 -9 -57 -9c-53.333 0 -80 30.333 -80 91v389h77v-354c0 -12 0.5 -21.167 1.5 -27.5s4.33301 -12.5 10 -18.5s13.834 -9 24.501 -9c5.33301 0 13.333 1.33301 24 4zM185.999 666l-86 -144h-41l41 144h86z" />
    <glyph glyph-name="upsilondieresistonos" unicode="&#x3b0;" horiz-adv-x="479" 
d="M434 179c0 -129.333 -64.667 -194 -194 -194c-18.667 0 -36.167 1.33301 -52.5 4s-33.5 8.16699 -51.5 16.5s-33.5 19 -46.5 32s-23.667 31.167 -32 54.5s-12.5 50.333 -12.5 81v298h79v-304c0 -42 11.5 -72.167 34.5 -90.5s50.833 -27.5 83.5 -27.5c76 0 114 42 114 126
v296h78v-292zM413 541h-81v96h81v-96zM321 683l-74 -142h-58l32 142h100zM149 541h-80v96h80v-96z" />
    <glyph glyph-name="alpha" unicode="&#x3b1;" horiz-adv-x="578" 
d="M498 471v-354.002c0 -12 0.5 -21.167 1.5 -27.5s4.33301 -12.5 10 -18.5s13.834 -9 24.501 -9c4 0 12 1.33301 24 4v-66c-18 -6 -36.667 -9 -56 -9c-48.667 0 -75 26 -79 78c-38.667 -56 -94 -84 -166 -84c-67.333 0 -120.333 23.333 -159 70s-58 107.334 -58 182.001
c0 43.333 6.66699 81.833 20 115.5s30.833 59.834 52.5 78.501s44.667 32.5 69 41.5s49.166 13.5 74.499 13.5c41.333 0 75.5 -8.66699 102.5 -26s46.833 -36 59.5 -56v67h80zM420 241.998c0 49.333 -13.168 90.167 -39.501 122.5s-61.5 48.5 -105.5 48.5
c-50 0 -87.333 -17.333 -112 -52s-37 -77 -37 -127c0 -48.667 11.5 -90.5 34.5 -125.5s60.5 -52.5 112.5 -52.5c40.667 0 75.334 14.5 104.001 43.5s43 76.5 43 142.5z" />
    <glyph glyph-name="beta" unicode="&#x3b2;" horiz-adv-x="541" 
d="M69 -224l0.000976562 683c0 161.333 70 242 210 242c68 0 118.333 -15.667 151 -47s49 -69.666 49 -114.999c0 -29.333 -9.33301 -59.5 -28 -90.5s-50.334 -51.5 -95.001 -61.5c59.333 -8 102.666 -29.667 129.999 -65s41 -79.333 41 -132
c0 -22 -3.66699 -44.167 -11 -66.5s-18.666 -44.333 -33.999 -66s-38 -39.334 -68 -53.001s-65 -20.5 -105 -20.5c-31.333 0 -59.5 5.5 -84.5 16.5s-42.667 21.5 -53 31.5s-18.5 20.333 -24.5 31v-287h-78zM444.001 193c0 52 -14.002 90.499 -42.002 115.499
s-73.667 37.5 -137 37.5h-19v69h10c12.667 0 25.834 1.33301 39.501 4s29.334 7.83398 47.001 15.501s32.167 20.5 43.5 38.5s17 40 17 66c0 28.667 -10.833 52.167 -32.5 70.5s-51.5 27.5 -89.5 27.5c-89.333 0 -134 -55.667 -134 -167v-239
c0 -52 12.667 -94.833 38 -128.5s65.333 -50.5 120 -50.5c40 0 73.167 12.5 99.5 37.5s39.5 59.5 39.5 103.5z" />
    <glyph glyph-name="gamma" unicode="&#x3b3;" horiz-adv-x="480" 
d="M460 471l-172 -474v-221h-78v222l-123 352c-8.66699 24.667 -15.667 39.5 -21 44.5s-16.333 7.5 -33 7.5h-13v69h32c30 0 52 -6 66 -18s27.333 -37 40 -75l93 -279l127 372h82z" />
    <glyph glyph-name="delta" unicode="&#x3b4;" horiz-adv-x="539" 
d="M504 228c0 -80.667 -22.5 -141.332 -67.5 -181.999s-99.5 -61 -163.5 -61c-70.667 0 -126.834 20.833 -168.501 62.5s-62.5 98.834 -62.5 171.501c0 64 16.833 117.667 50.5 161s83.5 67 149.5 71c-48 13.333 -83.5 32.166 -106.5 56.499s-34.5 50.166 -34.5 77.499
c0 39.333 16.333 68.5 49 87.5s72.334 28.5 119.001 28.5c40.667 0 79 -8.83301 115 -26.5s61 -46.167 75 -85.5l-80 -19c-8 24 -21.833 42.167 -41.5 54.5s-41.167 18.5 -64.5 18.5c-59.333 0 -89 -19.667 -89 -59c0 -12.667 4.16699 -24.667 12.5 -36
s21.333 -22.166 39 -32.499s32 -18 43 -23l49.5 -21.5c64.667 -26.667 110.167 -60.334 136.5 -101.001s39.5 -88 39.5 -142zM417 227.002c0 17.333 -1.83301 34.5 -5.5 51.5s-10.167 35.333 -19.5 55s-24.333 35.667 -45 48s-45.667 18.5 -75 18.5
c-45.333 0 -80.5 -16.667 -105.5 -50s-37.5 -77 -37.5 -131c0 -58 13.667 -100.833 41 -128.5s62 -41.5 104 -41.5c41.333 0 75.5 14.667 102.5 44s40.5 74 40.5 134z" />
    <glyph glyph-name="epsilon" unicode="&#x3b5;" horiz-adv-x="504" 
d="M484 110c-26 -46 -57.001 -78.335 -93.001 -97.002s-80.333 -28 -133 -28c-145.333 0 -218 47.333 -218 142c0 30.667 11.167 58 33.5 82s50.5 38.333 84.5 43c-32 4.66699 -56.333 16.334 -73 35.001s-25 40.667 -25 66c0 45.333 18.167 78.833 54.5 100.5
s83.5 32.5 141.5 32.5c116 0 185.667 -44.667 209 -134l-80 -19c-4 24.667 -15.5 46.334 -34.5 65.001s-48.5 28 -88.5 28c-77.333 0 -116 -26 -116 -78c0 -22 8.33301 -39 25 -51s40.334 -18 71.001 -18h95v-57h-102c-30.667 0 -56 -7 -76 -21s-30 -36.667 -30 -68
c0 -26 10.333 -46.833 31 -62.5s52.667 -23.5 96 -23.5c78 0 130 31.333 156 94z" />
    <glyph glyph-name="zeta" unicode="&#x3b6;" horiz-adv-x="420" 
d="M64 624v72.001h358v-60c-36.667 -27.333 -71.167 -56.5 -103.5 -87.5s-63.666 -65.667 -93.999 -104s-54.5 -79.666 -72.5 -123.999s-27 -87.833 -27 -130.5c0 -47.333 11.667 -78.166 35 -92.499s64.333 -21.833 123 -22.5c49.333 -0.666992 85.333 -7.66699 108 -21
s34 -38.333 34 -75c0 -26.667 -7.83301 -52.5 -23.5 -77.5s-38.167 -53.5 -67.5 -85.5l-66 46c54.667 39.333 82 72.666 82 99.999c0 17.333 -5.66699 28 -17 32s-35 6 -71 6c-149.333 0 -224 56.333 -224 169c0 81.333 23.167 161.166 69.5 239.499
s113.166 150.166 200.499 215.499h-244z" />
    <glyph glyph-name="eta" unicode="&#x3b7;" horiz-adv-x="547" 
d="M30 405l-0.000976562 66c18.667 7.33301 37.334 11 56.001 11c28 0 49 -5.66699 63 -17s21 -32.333 21 -63c34 56 83.333 84 148 84c10.667 0 22.334 -1.16699 35.001 -3.5s29.167 -8.66602 49.5 -18.999s36.833 -24.5 49.5 -42.5c19.333 -27.333 29 -68.333 29 -123
v-522h-79v533c0 34 -10.333 59.5 -31 76.5s-46 25.5 -76 25.5c-34.667 0 -64.167 -11.833 -88.5 -35.5s-36.5 -55.834 -36.5 -96.501v-279h-80v354c0 12 -0.5 21.167 -1.5 27.5s-4.33301 12.5 -10 18.5s-13.834 9 -24.501 9c-4 0 -12 -1.33301 -24 -4z" />
    <glyph glyph-name="theta" unicode="&#x3b8;" horiz-adv-x="536" 
d="M492 360c0 -250 -75.334 -375 -226.001 -375c-148 0 -222 124 -222 372c0 19.333 0.833008 39 2.5 59s5 44 10 72s12.833 53.833 23.5 77.5s23.834 46 39.501 67s36.334 37.667 62.001 50s54.5 18.5 86.5 18.5c30.667 0 58.5 -5.83301 83.5 -17.5s45.333 -27.5 61 -47.5
s29 -41.667 40 -65s19.167 -48.5 24.5 -75.5s9.16602 -51.167 11.499 -72.5s3.5 -42.333 3.5 -63zM406.999 394c0 28.667 -2.00195 55.999 -6.00195 81.999s-10.667 52 -20 78s-23.666 46.667 -42.999 62s-42.666 23 -69.999 23c-26.667 0 -49.5 -8 -68.5 -24
s-33.333 -36.833 -43 -62.5s-16.667 -51.667 -21 -78s-6.5 -53.166 -6.5 -80.499h278zM406.997 326.999h-279c0 -35.333 2.16699 -68.333 6.5 -99s11.5 -60 21.5 -88s24.5 -50.167 43.5 -66.5s41.833 -24.5 68.5 -24.5c26 0 48.5 8 67.5 24s33.5 37.833 43.5 65.5
s17.167 57 21.5 88s6.5 64.5 6.5 100.5z" />
    <glyph glyph-name="iota" unicode="&#x3b9;" horiz-adv-x="222" 
d="M202 66l-0.000976562 -66c-18 -6 -37 -9 -57 -9c-53.333 0 -80 30.333 -80 91v389h77v-354c0 -12 0.5 -21.167 1.5 -27.5s4.33301 -12.5 10 -18.5s13.834 -9 24.501 -9c5.33301 0 13.333 1.33301 24 4z" />
    <glyph glyph-name="kappa" unicode="&#x3ba;" horiz-adv-x="519" 
d="M237 233l-87.001 -77v-156h-81v471h81v-220l202 182c18.667 17.333 34.834 28 48.501 32s39.5 6 77.5 6v-69h-7c-18 -0.666992 -31.667 -2.5 -41 -5.5s-21 -10.5 -35 -22.5l-99 -89l210 -285h-98z" />
    <glyph glyph-name="lambda" unicode="&#x3bb;" horiz-adv-x="490" 
d="M205 461l-20.002 58.001c-18 52 -31 84.667 -39 98s-20.333 20 -37 20c-19.333 0 -39.333 -5 -60 -15v61c18 12 40.667 18 68 18c14.667 0 27.334 -1.16699 38.001 -3.5s20.5 -6.83301 29.5 -13.5s16.333 -13.334 22 -20.001s12 -17.667 19 -33
s12.667 -29.166 17 -41.499l18.5 -54.5l137 -404c10 -28.667 18.833 -47.334 26.5 -56.001s17.167 -13 28.5 -13c12 0 21.667 1.33301 29 4v-64c-13.333 -6 -31.666 -9 -54.999 -9c-20.667 0 -38.5 6.83301 -53.5 20.5s-29.167 40.167 -42.5 79.5l-91 265l-148 -358h-86z
" />
    <glyph glyph-name="uni03BC" unicode="&#x3bc;" horiz-adv-x="564" 
d="M86 470l79.998 0.000976562v-236c0 -68 7.33301 -112.667 22 -134c19.333 -29.333 48 -44 86 -44c45.333 0 78 22.667 98 68c11.333 25.333 17 68.666 17 129.999v216h80v-347c0 -26.667 2.33301 -44.667 7 -54s13.334 -14 26.001 -14c8 0 17.333 2.33301 28 7v-64
c-18.667 -4.66699 -33 -7 -43 -7c-27.333 0 -47.833 6.16699 -61.5 18.5s-22.5 32.833 -26.5 61.5c-15.333 -29.333 -32.5 -50.333 -51.5 -63s-43.833 -19 -74.5 -19c-45.333 0 -81.666 19.667 -108.999 59c2.66699 -156.667 4 -244.667 4 -264h-82v686z" />
    <glyph glyph-name="nu" unicode="&#x3bd;" horiz-adv-x="448" 
d="M428 428c0 -23.333 -10.333 -58.333 -31 -105l-139 -323h-72l-172 471h83l128 -364l99 239c18 46 27 74 27 84c0 12 -2 25.667 -6 41h78c3.33301 -12 5 -26.333 5 -43z" />
    <glyph glyph-name="xi" unicode="&#x3be;" horiz-adv-x="440" 
d="M371 411l0.000976562 -69.001h-71c-49.333 0 -91 -12.5 -125 -37.5s-51 -60.833 -51 -107.5c0 -42 11.167 -73.167 33.5 -93.5s65.166 -30.5 128.499 -30.5c52 0 89.833 -6.66699 113.5 -20s35.5 -38.666 35.5 -75.999c0 -26.667 -7.66699 -52 -23 -76
s-38 -52.333 -68 -85l-66 46c54.667 39.333 82 72.666 82 99.999c0 17.333 -5.66699 28 -17 32s-35 6 -71 6c-70.667 0 -127.667 14.833 -171 44.5s-65 76.5 -65 140.5c0 50 14.333 92 43 126s69.667 56.333 123 67c-40.667 6 -72 21.333 -94 46s-33 53.334 -33 86.001
c0 32 9.66699 58 29 78s43 33.667 71 41h-106v67h361v-67h-90c-54.667 0 -98.667 -9.33301 -132 -28s-50 -47.334 -50 -86.001c0 -22 4.16699 -40.5 12.5 -55.5s20 -25.667 35 -32s29.167 -10.666 42.5 -12.999s29 -3.5 47 -3.5h76z" />
    <glyph glyph-name="omicron" unicode="&#x3bf;" horiz-adv-x="542" 
d="M502 240c0 -81.333 -21.833 -144.169 -65.5 -188.502s-98.834 -66.5 -165.501 -66.5c-68 0 -123.5 22 -166.5 66s-64.5 105.333 -64.5 184c0 18 1.66699 36.5 5 55.5s10.166 40.667 20.499 65s23.833 45.833 40.5 64.5s39.834 34.334 69.501 47.001s63.834 19 102.501 19
c60.667 0 113.167 -21.167 157.5 -63.5s66.5 -103.166 66.5 -182.499zM416 245.997c0 48 -11 89.332 -33 123.999s-57.333 52 -106 52c-28 0 -52.167 -6 -72.5 -18s-35.333 -25.333 -45 -40s-17.167 -32.5 -22.5 -53.5s-8.33301 -36.667 -9 -47s-1 -21.166 -1 -32.499
c0 -13.333 0.833008 -26.833 2.5 -40.5s5.5 -29.5 11.5 -47.5s14 -33.5 24 -46.5s24 -24.167 42 -33.5s39 -14 63 -14c47.333 0 83.5 17.333 108.5 52s37.5 83 37.5 145z" />
    <glyph glyph-name="pi" unicode="&#x3c0;" horiz-adv-x="560" 
d="M527 0l-34 0.000976562c-42.667 0 -72.5 8.66699 -89.5 26s-25.5 44 -25.5 80v296h-201v-402h-79v402h-54v69h468v-69h-54v-266c0 -28.667 3.5 -47.334 10.5 -56.001s22.833 -13 47.5 -13h11v-67z" />
    <glyph glyph-name="rho" unicode="&#x3c1;" horiz-adv-x="550" 
d="M288 -16c-74.667 0 -128 27 -160 81v-289h-78v459c0 17.333 1.5 35.666 4.5 54.999s9.5 41 19.5 65s23 45.333 39 64s38.167 34.5 66.5 47.5s60.833 19.5 97.5 19.5c69.333 0 125.5 -20.667 168.5 -62s64.5 -103.666 64.5 -186.999
c0 -29.333 -3.83301 -57.833 -11.5 -85.5s-19.5 -54.5 -35.5 -80.5s-39.167 -47 -69.5 -63s-65.5 -24 -105.5 -24zM128 230c0 -51.333 12.833 -94.332 38.5 -128.999s65.5 -52 119.5 -52c48 0 83.333 17.333 106 52s34 80.667 34 138c0 122 -49.667 183 -149 183
c-26 0 -48.833 -5.16699 -68.5 -15.5s-34.5 -22.333 -44.5 -36s-17.833 -30.334 -23.5 -50.001s-9.16699 -36.167 -10.5 -49.5s-2 -27 -2 -41z" />
    <glyph glyph-name="sigma1" unicode="&#x3c2;" horiz-adv-x="489" 
d="M270 428c-40 0 -73.833 -15.3301 -101.5 -45.9971s-41.5 -76.334 -41.5 -137.001c0 -52.667 11.5 -91 34.5 -115s63.167 -39.667 120.5 -47c18 -2.66699 30.833 -4.5 38.5 -5.5s19.5 -4 35.5 -9s27.667 -10.833 35 -17.5s14.333 -16.334 21 -29.001s10 -27.667 10 -45
c0 -26.667 -7.66699 -52 -23 -76s-38 -52.333 -68 -85l-66 46c54.667 39.333 82 72.666 82 99.999c0 4.66699 -0.666992 9.16699 -2 13.5s-3.33301 8 -6 11s-5.5 5.83301 -8.5 8.5s-7 4.83398 -12 6.50098s-9.33301 3.16699 -13 4.5s-9 2.66602 -16 3.99902
s-12.333 2.16602 -16 2.49902s-9.5 1 -17.5 2s-13.667 1.83301 -17 2.5c-132.667 20 -199 95.333 -199 226c0 68.667 20 126.334 60 173.001s96.333 70 169 70c107.333 0 176.333 -48.667 207 -146l-80 -30c-6 35.333 -20 63.833 -42 85.5s-50 32.5 -84 32.5z" />
    <glyph glyph-name="sigma" unicode="&#x3c3;" horiz-adv-x="562" 
d="M532 402l-122.999 -0.000976562c62 -29.333 93 -86.333 93 -171c0 -77.333 -22.5 -137.666 -67.5 -180.999s-99.833 -65 -164.5 -65c-66 0 -120.833 21.167 -164.5 63.5s-65.5 101.5 -65.5 177.5c0 70.667 20.667 129.167 62 175.5s98.666 69.5 171.999 69.5h258v-69z
M416.001 226.999c0 60 -14 104.166 -42 132.499s-62.667 42.5 -104 42.5s-75.5 -15.167 -102.5 -45.5s-40.5 -75.166 -40.5 -134.499c0 -58.667 13.5 -102.167 40.5 -130.5s61.5 -42.5 103.5 -42.5c40.667 0 75 15.5 103 46.5s42 74.833 42 131.5z" />
    <glyph glyph-name="tau" unicode="&#x3c4;" horiz-adv-x="438" 
d="M418 402h-153.001v-300c0 -16.667 2.66699 -28.667 8 -36s14.333 -11 27 -11c13.333 0 30 3.66699 50 11v-66c-37.333 -5.33301 -62.666 -8 -75.999 -8c-36.667 0 -61 6.66699 -73 20s-18 35 -18 65v325h-75c-24 0 -50 -7 -78 -21v70c26 13.333 61 20 105 20h283v-69z
" />
    <glyph glyph-name="upsilon" unicode="&#x3c5;" horiz-adv-x="479" 
d="M434 179c0 -129.333 -64.667 -194 -194 -194c-18.667 0 -36.167 1.33301 -52.5 4s-33.5 8.16699 -51.5 16.5s-33.5 19 -46.5 32s-23.667 31.167 -32 54.5s-12.5 50.333 -12.5 81v298h79v-304c0 -42 11.5 -72.167 34.5 -90.5s50.833 -27.5 83.5 -27.5c76 0 114 42 114 126
v296h78v-292z" />
    <glyph glyph-name="phi" unicode="&#x3c6;" horiz-adv-x="644" 
d="M284 -224v211.002c-73.333 4.66699 -132.333 28 -177 70s-67 101.667 -67 179c0 18.667 1.66699 37.167 5 55.5s10.333 38.833 21 61.5s24.5 42.667 41.5 60s40.833 32.666 71.5 45.999s65.667 21.666 105 24.999v147h76v-147c67.333 -3.33301 124.833 -25.333 172.5 -66
s71.5 -100 71.5 -178c0 -79.333 -22.833 -140 -68.5 -182s-104.167 -65.667 -175.5 -71v-211h-76zM518 246.002c0 50.667 -13 91.833 -39 123.5s-65.667 49.5 -119 53.5v-375c105.333 10.667 158 76.667 158 198zM127 230.001c0 -22 2.33008 -42.332 6.99707 -60.999
s12.334 -37 23.001 -55s26.834 -32.833 48.501 -44.5s47.834 -18.834 78.501 -21.501v374c-104.667 -12 -157 -76 -157 -192z" />
    <glyph glyph-name="chi" unicode="&#x3c7;" horiz-adv-x="495" 
d="M453 -229c-27.333 0 -49.667 7 -67 21s-34.666 41.667 -51.999 83l-70 164l-129 -263h-90l178 354l-100 228c-10.667 23.333 -20 38 -28 44s-20 9 -36 9c-8.66699 0 -18.334 -2 -29.001 -6v66c20.667 7.33301 39.334 11 56.001 11c31.333 0 54 -5.83301 68 -17.5
s28 -34.5 42 -68.5l74 -173l123 248h90l-171 -340l92 -214c15.333 -34.667 27.333 -56.167 36 -64.5s20 -12.5 34 -12.5c12 0 21.667 1.33301 29 4v-64c-12.667 -6 -29.334 -9 -50.001 -9z" />
    <glyph glyph-name="psi" unicode="&#x3c8;" horiz-adv-x="616" 
d="M571 228c0 -86 -19.8311 -146.833 -59.498 -182.5s-94.834 -55.167 -165.501 -58.5v-211h-76v211c-70.667 3.33301 -125.834 22.833 -165.501 58.5s-59.5 96.5 -59.5 182.5v243h79v-240c0 -68.667 12.167 -115.334 36.5 -140.001s60.833 -38.667 109.5 -42v582h76v-582
c48.667 3.33301 85.167 17.333 109.5 42s36.5 71.334 36.5 140.001v240h79v-243z" />
    <glyph glyph-name="omega" unicode="&#x3c9;" horiz-adv-x="673" 
d="M631 218c0 -66.667 -12.8311 -122.166 -38.498 -166.499s-67.5 -66.5 -125.5 -66.5c-73.333 0 -117 28.333 -131 85c-13.333 -56.667 -57 -85 -131 -85c-30 0 -56 6.5 -78 19.5s-39 30.833 -51 53.5s-20.667 47.167 -26 73.5s-8 55.166 -8 86.499
c0 52.667 4.66699 96.5 14 131.5s23.666 61.167 42.999 78.5s39.333 29.5 60 36.5s46 11.5 76 13.5v-64c-15.333 -1.33301 -28 -4.16602 -38 -8.49902s-20.833 -12.833 -32.5 -25.5s-20.5 -32.5 -26.5 -59.5s-9 -61.167 -9 -102.5c0 -19.333 1.16699 -38 3.5 -56
s6.5 -36 12.5 -54s15 -32.333 27 -43s26.333 -16 43 -16c55.333 0 83 44.667 83 134v139h77v-138c0 -90 27.667 -135 83 -135c17.333 0 32 5.33301 44 16s20.833 25 26.5 43s9.66699 35.833 12 53.5s3.5 36.5 3.5 56.5c0 41.333 -3 75.5 -9 102.5s-14.833 46.833 -26.5 59.5
s-22.5 21.167 -32.5 25.5s-22.667 7.16602 -38 8.49902v64c30 -2 55.333 -6.5 76 -13.5s40.667 -19.167 60 -36.5s33.666 -43.5 42.999 -78.5s14 -78.833 14 -131.5z" />
    <glyph glyph-name="iotadieresis" unicode="&#x3ca;" horiz-adv-x="222" 
d="M202 66l-0.000976562 -66c-18 -6 -37 -9 -57 -9c-53.333 0 -80 30.333 -80 91v389h77v-354c0 -12 0.5 -21.167 1.5 -27.5s4.33301 -12.5 10 -18.5s13.834 -9 24.501 -9c5.33301 0 13.333 1.33301 24 4zM224.999 541h-89v103h89v-103zM26.999 541h-87v103h87v-103z" />
    <glyph glyph-name="upsilondieresis" unicode="&#x3cb;" horiz-adv-x="479" 
d="M434 179c0 -129.333 -64.667 -194 -194 -194c-18.667 0 -36.167 1.33301 -52.5 4s-33.5 8.16699 -51.5 16.5s-33.5 19 -46.5 32s-23.667 31.167 -32 54.5s-12.5 50.333 -12.5 81v298h79v-304c0 -42 11.5 -72.167 34.5 -90.5s50.833 -27.5 83.5 -27.5c76 0 114 42 114 126
v296h78v-292zM383 541h-89v103h89v-103zM185 541h-87v103h87v-103z" />
    <glyph glyph-name="omicrontonos" unicode="&#x3cc;" horiz-adv-x="542" 
d="M502 240c0 -81.333 -21.833 -144.169 -65.5 -188.502s-98.834 -66.5 -165.501 -66.5c-68 0 -123.5 22 -166.5 66s-64.5 105.333 -64.5 184c0 18 1.66699 36.5 5 55.5s10.166 40.667 20.499 65s23.833 45.833 40.5 64.5s39.834 34.334 69.501 47.001s63.834 19 102.501 19
c60.667 0 113.167 -21.167 157.5 -63.5s66.5 -103.166 66.5 -182.499zM416 245.997c0 48 -11 89.332 -33 123.999s-57.333 52 -106 52c-28 0 -52.167 -6 -72.5 -18s-35.333 -25.333 -45 -40s-17.167 -32.5 -22.5 -53.5s-8.33301 -36.667 -9 -47s-1 -21.166 -1 -32.499
c0 -13.333 0.833008 -26.833 2.5 -40.5s5.5 -29.5 11.5 -47.5s14 -33.5 24 -46.5s24 -24.167 42 -33.5s39 -14 63 -14c47.333 0 83.5 17.333 108.5 52s37.5 83 37.5 145zM380 665.996l-86 -144h-41l41 144h86z" />
    <glyph glyph-name="upsilontonos" unicode="&#x3cd;" horiz-adv-x="479" 
d="M434 179c0 -129.333 -64.667 -194 -194 -194c-18.667 0 -36.167 1.33301 -52.5 4s-33.5 8.16699 -51.5 16.5s-33.5 19 -46.5 32s-23.667 31.167 -32 54.5s-12.5 50.333 -12.5 81v298h79v-304c0 -42 11.5 -72.167 34.5 -90.5s50.833 -27.5 83.5 -27.5c76 0 114 42 114 126
v296h78v-292zM345 666l-86 -144h-41l41 144h86zM434 179c0 -129.333 -64.667 -194 -194 -194c-18.667 0 -36.167 1.33301 -52.5 4s-33.5 8.16699 -51.5 16.5s-33.5 19 -46.5 32s-23.667 31.167 -32 54.5s-12.5 50.333 -12.5 81v298h79v-304c0 -42 11.5 -72.167 34.5 -90.5
s50.833 -27.5 83.5 -27.5c76 0 114 42 114 126v296h78v-292z" />
    <glyph glyph-name="omegatonos" unicode="&#x3ce;" horiz-adv-x="673" 
d="M631 218c0 -66.667 -12.8311 -122.166 -38.498 -166.499s-67.5 -66.5 -125.5 -66.5c-73.333 0 -117 28.333 -131 85c-13.333 -56.667 -57 -85 -131 -85c-30 0 -56 6.5 -78 19.5s-39 30.833 -51 53.5s-20.667 47.167 -26 73.5s-8 55.166 -8 86.499
c0 52.667 4.66699 96.5 14 131.5s23.666 61.167 42.999 78.5s39.333 29.5 60 36.5s46 11.5 76 13.5v-64c-15.333 -1.33301 -28 -4.16602 -38 -8.49902s-20.833 -12.833 -32.5 -25.5s-20.5 -32.5 -26.5 -59.5s-9 -61.167 -9 -102.5c0 -19.333 1.16699 -38 3.5 -56
s6.5 -36 12.5 -54s15 -32.333 27 -43s26.333 -16 43 -16c55.333 0 83 44.667 83 134v139h77v-138c0 -90 27.667 -135 83 -135c17.333 0 32 5.33301 44 16s20.833 25 26.5 43s9.66699 35.833 12 53.5s3.5 36.5 3.5 56.5c0 41.333 -3 75.5 -9 102.5s-14.833 46.833 -26.5 59.5
s-22.5 21.167 -32.5 25.5s-22.667 7.16602 -38 8.49902v64c30 -2 55.333 -6.5 76 -13.5s40.667 -19.167 60 -36.5s33.666 -43.5 42.999 -78.5s14 -78.833 14 -131.5zM441.002 666.001l-86 -144h-41l41 144h86z" />
    <glyph glyph-name="afii10023" unicode="&#x401;" horiz-adv-x="604" 
d="M577 0h-498v706h486v-83h-396v-218h344v-82h-344v-241h408v-82zM460 781h-88v102h88v-102zM263 781h-87v102h87v-102z" />
    <glyph glyph-name="afii10051" unicode="&#x402;" horiz-adv-x="750" 
d="M530 624l-211.999 0.000976562v-238c50.667 27.333 105.334 41 164.001 41c44.667 0 83 -6.16699 115 -18.5s56 -29.333 72 -51s27.5 -44.5 34.5 -68.5s10.5 -50.333 10.5 -79c0 -27.333 -3.5 -52.5 -10.5 -75.5s-18.833 -45.167 -35.5 -66.5s-41.334 -38 -74.001 -50
s-72 -18 -118 -18h-27v76c111.333 0 167 44.667 167 134c0 45.333 -11.833 79.166 -35.5 101.499s-56.5 33.5 -98.5 33.5c-58.667 0 -113.334 -14.333 -164.001 -43v-302h-94v624h-212v82h518v-82z" />
    <glyph glyph-name="afii10052" unicode="&#x403;" horiz-adv-x="542" 
d="M531 624h-359v-624h-94v706h453v-82zM409 895l-87 -124h-60l48 124h99z" />
    <glyph glyph-name="afii10053" unicode="&#x404;" horiz-adv-x="764" 
d="M642 231l100 -12.002c-22.667 -79.333 -65.167 -138.666 -127.5 -177.999s-135.833 -59 -220.5 -59c-104.667 0 -188.167 34 -250.5 102s-93.5 157.667 -93.5 269s31.833 201 95.5 269s150.5 102 260.5 102c171.333 0 280 -68.667 326 -206l-95 -18
c-9.33301 30 -23.5 55.5 -42.5 76.5s-40 36.333 -63 46s-44 16.334 -63 20.001s-38.5 5.5 -58.5 5.5c-75.333 0 -134.833 -22 -178.5 -66s-69.5 -104.667 -77.5 -182h368v-82h-368c6 -74.667 29.5 -136.667 70.5 -186s101.5 -74 181.5 -74c58 0 109.333 16.667 154 50
s72 74.333 82 123z" />
    <glyph glyph-name="afii10054" unicode="&#x405;" horiz-adv-x="667" 
d="M37 226l100.997 12.9951c0 -6.66699 0.333008 -13 1 -19s2.5 -15.667 5.5 -29s7 -25.333 12 -36s12.667 -22.5 23 -35.5s22.333 -23.833 36 -32.5s31.334 -16 53.001 -22s45.834 -9 72.501 -9c17.333 0 35 2 53 6s36.833 10.667 56.5 20s35.667 23.833 48 43.5
s18.5 43.5 18.5 71.5c0 36 -11.333 62.333 -34 79s-56 29.334 -100 38.001l-64 13c-84 16.667 -146.333 40.167 -187 70.5s-61 73.833 -61 130.5c0 54.667 22.333 100.667 67 138c46.667 38.667 107.667 58 183 58c84 0 149 -17.667 195 -53
c28.667 -21.333 49.167 -44.5 61.5 -69.5s21.833 -56.5 28.5 -94.5l-95 -6c0 10 -1.16699 20.5 -3.5 31.5s-7.33301 23.833 -15 38.5s-17.667 27.667 -30 39s-30.166 21 -53.499 29s-50 12 -80 12c-25.333 0 -49.333 -3 -72 -9s-43.167 -17.667 -61.5 -35
s-27.5 -39.666 -27.5 -66.999c0 -31.333 11.833 -54.833 35.5 -70.5s58.834 -29.167 105.501 -40.5l129 -31c13.333 -3.33301 24.166 -6.16602 32.499 -8.49902s23 -8.66602 44 -18.999s38 -21.833 51 -34.5s25 -30.667 36 -54s16.5 -49.666 16.5 -78.999
c0 -58 -19.667 -106.333 -59 -145c-52 -50.667 -126.333 -76 -223 -76c-78 0 -142.333 16.333 -193 49c-62 40 -97.333 105 -106 195z" />
    <glyph glyph-name="afii10055" unicode="&#x406;" horiz-adv-x="229" 
d="M162 0h-95v706h95v-706z" />
    <glyph glyph-name="afii10056" unicode="&#x407;" horiz-adv-x="280" 
d="M187 0h-94v706h94v-706zM254 781h-84v102h84v-102zM110 781h-84v102h84v-102z" />
    </font>
</defs>
</svg>
